<svg width="409" height="117" viewBox="0 0 409 117" fill="none" xmlns="http://www.w3.org/2000/svg">
<path d="M2 116H7.5L16.5 107H11L2 116Z" fill="white" stroke="white"/>
<path d="M11.5 116H17L26 107H20.5L11.5 116Z" fill="white" stroke="white"/>
<path d="M21 116H26.5L35.5 107H30L21 116Z" fill="white" stroke="white"/>
<path d="M30.5 116H36L45 107H39.5L30.5 116Z" fill="white" stroke="white"/>
<path d="M40 116H45.5L54.5 107H49L40 116Z" fill="white" stroke="white"/>
<path d="M49.5 116H55L64 107H58.5L49.5 116Z" fill="white" stroke="white"/>
<path d="M59 116H64.5L73.5 107H68L59 116Z" fill="white" stroke="white"/>
<path d="M68.5 116H74L83 107H77.5L68.5 116Z" fill="white" stroke="white"/>
<path d="M78 116H83.5L92.5 107H87L78 116Z" fill="white" stroke="white"/>
<path d="M87.5 116H93L102 107H96.5L87.5 116Z" fill="white" stroke="white"/>
<path d="M97 116H102.5L111.5 107H106L97 116Z" fill="white" stroke="white"/>
<path d="M106.5 116H112L121 107H115.5L106.5 116Z" fill="white" stroke="white"/>
<path d="M116 116H121.5L130.5 107H125L116 116Z" fill="white" stroke="white"/>
<path d="M125.5 116H131L140 107H134.5L125.5 116Z" fill="white" stroke="white"/>
<path d="M135 116H140.5L149.5 107H144L135 116Z" fill="white" stroke="white"/>
<path d="M144.5 116H150L159 107H153.5L144.5 116Z" fill="white" stroke="white"/>
<path d="M154 116H159.5L168.5 107H163L154 116Z" fill="white" stroke="white"/>
<path d="M163.5 116H169L178 107H172.5L163.5 116Z" fill="white" stroke="white"/>
<path d="M173 116H178.5L187.5 107H182L173 116Z" fill="white" stroke="white"/>
<path d="M182.5 116H188L197 107H191.5L182.5 116Z" fill="white" stroke="white"/>
<path d="M192 116H197.5L206.5 107H201L192 116Z" fill="white" stroke="white"/>
<path d="M201.5 116H207L216 107H210.5L201.5 116Z" fill="white" stroke="white"/>
<path d="M211 116H216.5L225.5 107H220L211 116Z" fill="white" stroke="white"/>
<path d="M220.5 116H226L235 107H229.5L220.5 116Z" fill="white" stroke="white"/>
<path d="M230 116H235.5L244.5 107H239L230 116Z" fill="white" stroke="white"/>
<path d="M239.5 116H245L254 107H248.5L239.5 116Z" fill="white" stroke="white"/>
<path d="M249 116H254.5L263.5 107H258L249 116Z" fill="white" stroke="white"/>
<path d="M258.5 116H264L273 107H267.5L258.5 116Z" fill="white" stroke="white"/>
<path d="M268 116H273.5L282.5 107H277L268 116Z" fill="white" stroke="white"/>
<path d="M277.5 116H283L292 107H286.5L277.5 116Z" fill="white" stroke="white"/>
<path d="M287 116H292.5L301.5 107H296L287 116Z" fill="white" stroke="white"/>
<path d="M296.5 116H302L311 107H305.5L296.5 116Z" fill="white" stroke="white"/>
<path d="M306 116H311.5L320.5 107H315L306 116Z" fill="white" stroke="white"/>
<path d="M315.5 116H321L330 107H324.5L315.5 116Z" fill="white" stroke="white"/>
<path d="M325 116H330.5L339.5 107H334L325 116Z" fill="white" stroke="white"/>
<path d="M334.5 116H340L349 107H343.5L334.5 116Z" fill="white" stroke="white"/>
<path d="M344 116H349.5L358.5 107H353L344 116Z" fill="white" stroke="white"/>
<path d="M353.5 116H359L368 107H362.5L353.5 116Z" fill="white" stroke="white"/>
<path d="M363 116H368.5L377.5 107H372L363 116Z" fill="white" stroke="white"/>
<path d="M373 116H378.5L387.5 107H382L373 116Z" fill="white" stroke="white"/>
<path d="M383 116H388.5L397.5 107H392L383 116Z" fill="white" stroke="white"/>
<path d="M393 116H398.5L407.5 107H402L393 116Z" fill="white" stroke="white"/>
<path d="M403 116H408.5V110.5L403 116Z" fill="white" stroke="white"/>
<path d="M6.5 107H1V112.5L6.5 107Z" fill="white" stroke="white"/>
<path d="M237.828 1.00001L266 1.00002L266 100L237.828 100L200.759 36.0308L185 62.5L137 62.5L137 1L165.172 1.00001L165.172 39.0769L187.414 1.00001L215.586 1.00001L237.828 39.0769L237.828 1.00001Z" fill="white" stroke="white"/>
<path d="M305.828 100H278V1L305.828 1L343.759 64.9692L380.172 1L408 1V100H380.172V61.9231L357.414 100L328.586 100L305.828 61.9231V100Z" fill="white" stroke="white"/>
<path d="M127.129 31V1H1V100H162.5L179.5 73H29.1935V31H127.129Z" fill="white" stroke="white"/>
</svg>
