<svg width="39" height="33" viewBox="0 0 39 33" fill="none" xmlns="http://www.w3.org/2000/svg">
<path d="M30.9563 8.27515C29.073 8.27515 27.3353 7.65124 25.9399 6.59872C24.3395 5.39216 23.1897 3.62228 22.7836 1.58233C22.6831 1.07831 22.6289 0.558174 22.6238 0.0251465H17.2439V14.7256L17.2374 22.7777C17.2374 24.9305 15.8356 26.7558 13.8923 27.3977C13.3283 27.584 12.7193 27.6723 12.085 27.6375C11.2755 27.593 10.5169 27.3488 9.85754 26.9543C8.4544 26.1151 7.50307 24.5927 7.47729 22.8512C7.43668 20.1294 9.63711 17.9102 12.357 17.9102C12.8939 17.9102 13.4096 17.9979 13.8923 18.1571V14.1391V12.6947C13.3831 12.6193 12.8649 12.58 12.3409 12.58C9.36383 12.58 6.57945 13.8175 4.58914 16.0469C3.08481 17.7317 2.18246 19.8812 2.04324 22.1351C1.86084 25.0961 2.9443 27.9108 5.04547 29.9875C5.3542 30.2923 5.6784 30.5753 6.01742 30.8363C7.81889 32.2227 10.0213 32.9742 12.3409 32.9742C12.8649 32.9742 13.3831 32.9356 13.8923 32.8601C16.0592 32.5392 18.0586 31.5472 19.6364 29.9875C21.5751 28.0713 22.6463 25.5273 22.6579 22.8196L22.6302 10.7953C23.5551 11.5088 24.5664 12.0992 25.6518 12.5574C27.3398 13.2696 29.1297 13.6306 30.9717 13.6299V9.72341V8.27386C30.973 8.27515 30.9576 8.27515 30.9563 8.27515V8.27515Z" fill="white"/>
<rect x="19" y="16" width="17" height="17" rx="5" fill="#16A2AA"/>
<path d="M24 23.5L28.3333 28L37 19" stroke="white" stroke-width="3" stroke-linecap="round" stroke-linejoin="round"/>
</svg>
