<svg width="38" height="32" viewBox="0 0 38 32" fill="none" xmlns="http://www.w3.org/2000/svg">
<path fill-rule="evenodd" clip-rule="evenodd" d="M1.03558 5.0827C0 6.95644 0 9.44851 0 14.4327C0 19.4168 0 21.9089 1.03558 23.7826C1.79127 25.1499 2.91753 26.2762 4.28485 27.0319C6.15859 28.0675 8.65066 28.0675 13.6348 28.0675C18.619 28.0675 21.111 28.0675 22.9848 27.0319C24.3521 26.2762 25.4784 25.1499 26.234 23.7826C27.2696 21.9089 27.2696 19.4168 27.2696 14.4327C27.2696 9.44851 27.2696 6.95644 26.234 5.0827C25.4784 3.71538 24.3521 2.58912 22.9848 1.83343C21.111 0.797852 18.619 0.797852 13.6348 0.797852C8.65066 0.797852 6.15859 0.797852 4.28485 1.83343C2.91753 2.58912 1.79127 3.71538 1.03558 5.0827ZM13.6382 7.91199C10.0367 7.91199 7.11719 10.8315 7.11719 14.433C7.11719 18.0344 10.0367 20.954 13.6382 20.954C17.2396 20.954 20.1592 18.0344 20.1592 14.433C20.1592 10.8315 17.2396 7.91199 13.6382 7.91199ZM18.9727 6.13221C18.9727 5.15 19.7689 4.35376 20.7511 4.35376C21.7333 4.35376 22.5296 5.15 22.5296 6.13221C22.5296 7.11443 21.7333 7.91067 20.7511 7.91067C19.7689 7.91067 18.9727 7.11443 18.9727 6.13221ZM13.6318 9.45345C10.8816 9.45345 8.65214 11.6829 8.65214 14.4331C8.65214 17.1833 10.8816 19.4128 13.6318 19.4128C16.382 19.4128 18.6115 17.1833 18.6115 14.4331C18.6115 11.6829 16.382 9.45345 13.6318 9.45345Z" fill="white"/>
<rect x="18" y="15" width="17" height="17" rx="5" fill="#16A2AA"/>
<path d="M23 22.5L27.3333 27L36 18" stroke="white" stroke-width="3" stroke-linecap="round" stroke-linejoin="round"/>
</svg>
