<svg width="47" height="31" viewBox="0 0 47 31" fill="none" xmlns="http://www.w3.org/2000/svg">
<path d="M37.1593 3.85784L37.2068 4.16914C36.7476 2.53484 35.5079 1.27379 33.9325 0.814786L33.8992 0.806845C30.9368 2.17732e-05 19.0161 2.19495e-05 19.0161 2.19495e-05C19.0161 2.19495e-05 7.12538 -0.0158606 4.13292 0.806845C2.52743 1.27379 1.28612 2.53484 0.834872 4.13578L0.826956 4.16914C-0.279781 9.96778 -0.287697 16.9354 0.876038 23.1438L0.826956 22.8293C1.28612 24.4636 2.52585 25.7246 4.10125 26.1836L4.1345 26.1916C7.09371 27 19.0177 27 19.0177 27C19.0177 27 30.9068 27 33.9008 26.1916C35.5079 25.7246 36.7492 24.4636 37.2004 22.8627L37.2083 22.8293C37.7118 20.1325 38 17.0291 38 13.859C38 13.743 38 13.6255 37.9984 13.508C38 13.4 38 13.2713 38 13.1427C38 9.97095 37.7118 6.86755 37.1593 3.85784ZM15.2129 19.2987V7.71566L25.134 13.5159L15.2129 19.2987Z" fill="white"/>
<rect x="27" y="14" width="17" height="17" rx="5" fill="#16A2AA"/>
<path d="M32 21.5L36.3333 26L45 17" stroke="white" stroke-width="3" stroke-linecap="round" stroke-linejoin="round"/>
</svg>
