<svg width="42" height="31" viewBox="0 0 42 31" fill="none" xmlns="http://www.w3.org/2000/svg">
<path d="M12.979 18.2781L12.4319 25.8905C13.2147 25.8905 13.5538 25.5579 13.9603 25.1584L17.6306 21.689L25.2356 27.1978C26.6304 27.9667 27.6131 27.5618 27.9893 25.9287L32.9813 2.79162L32.9826 2.79026C33.4251 0.750839 32.237 -0.0466612 30.8781 0.453651L1.53559 11.5655C-0.466975 12.3344 -0.436654 13.4386 1.19517 13.9389L8.69687 16.2469L26.1218 5.46222C26.9419 4.9251 27.6875 5.22229 27.0742 5.75941L12.979 18.2781Z" fill="white"/>
<rect x="22" y="14" width="17" height="17" rx="5" fill="#16A2AA"/>
<path d="M27 21.5L31.3333 26L40 17" stroke="white" stroke-width="3" stroke-linecap="round" stroke-linejoin="round"/>
</svg>
