<svg width="13" height="14" viewBox="0 0 13 14" fill="none" xmlns="http://www.w3.org/2000/svg">
<path d="M2.87179 3.41026C2.87179 1.52995 4.40174 0 6.28205 0C8.16236 0 9.69231 1.52995 9.69231 3.41026C9.69231 5.29056 8.16236 6.82051 6.28205 6.82051C4.40174 6.82051 2.87179 5.29056 2.87179 3.41026ZM8.4359 7.89744H4.12821C1.85231 7.89744 0 9.74974 0 12.0256C0.000380324 12.5492 0.208515 13.0511 0.578696 13.4213C0.948878 13.7915 1.45084 13.9996 1.97436 14H10.5897C11.1133 13.9996 11.6152 13.7915 11.9854 13.4213C12.3556 13.0511 12.5637 12.5492 12.5641 12.0256C12.5641 9.74974 10.7118 7.89744 8.4359 7.89744Z" fill="#393962"/>
</svg>
