<svg width="153" height="46" viewBox="0 0 153 46" fill="none" xmlns="http://www.w3.org/2000/svg">
<path d="M58.2796 14.1776C53.09 1.84135 43.543 0.0470244 32.0344 0.0352351C27.9129 0.0352351 25.2815 -0.0567146 22.6596 0.0564621C17.8354 0.263953 14.9306 2.86701 14.9258 7.67231C14.9235 12.4917 17.8802 15.1255 22.6714 15.2834C27.5592 15.4438 32.4612 15.1915 37.349 15.3565C41.8501 15.5074 44.5663 18.061 44.5876 22.548C44.6111 27.0963 41.8808 29.6663 37.3277 29.8172C32.3668 29.9823 27.3918 29.6922 22.4332 29.9068C17.6845 30.1143 14.8528 32.8612 14.9211 37.6217C14.9872 42.3279 17.8708 44.9475 22.57 45.1031C27.5309 45.2682 32.4989 45.1432 37.4645 45.1385C53.4036 45.1173 64.4619 28.8694 58.2796 14.1776Z" fill="white"/>
<path d="M7.6497 15.083C2.59212 15.083 0.0574346 17.7049 0.000846239 22.4607C-0.0557421 27.1717 2.72888 30.0577 7.40685 30.1426C12.1414 30.2298 15.0533 27.4075 15.1264 22.6564C15.1948 17.9289 12.5234 15.083 7.6497 15.083Z" fill="white"/>
<path d="M78.656 7.90576C77.5501 7.3776 76.2698 7.11353 74.815 7.11353H68.3828V20.1642H74.815C76.2698 20.1642 77.5501 19.9001 78.656 19.372C79.7618 18.8438 80.6248 18.0917 81.2472 17.1155C81.8697 16.1394 82.1786 14.9746 82.1786 13.6188C82.1786 12.2772 81.8673 11.1195 81.2472 10.1504C80.6271 9.18372 79.7618 8.43392 78.656 7.90576ZM77.3521 15.3259C77.0903 15.7928 76.7272 16.1441 76.2604 16.3799C75.7935 16.6157 75.2512 16.7335 74.6287 16.7335H72.7825V10.5442H74.6287C75.2512 10.5442 75.7935 10.6621 76.2604 10.8979C76.7272 11.1337 77.0903 11.4826 77.3521 11.9424C77.6138 12.4022 77.7435 12.961 77.7435 13.6212C77.7435 14.2908 77.6114 14.8591 77.3521 15.3259Z" fill="white"/>
<path d="M95.9347 10.1528C95.3123 9.18371 94.4493 8.43392 93.3435 7.90576C92.2376 7.3776 90.9573 7.11353 89.5025 7.11353H83.0703V20.1642H89.5025C90.9573 20.1642 92.2376 19.9001 93.3435 19.372C94.4493 18.8438 95.3123 18.0917 95.9347 17.1155C96.5572 16.1394 96.8661 14.9746 96.8661 13.6188C96.8661 12.2772 96.5549 11.1219 95.9347 10.1528ZM92.0372 15.3259C91.7755 15.7928 91.4124 16.1441 90.9455 16.3799C90.4787 16.6157 89.9364 16.7335 89.3139 16.7335H87.4677V10.5442H89.3139C89.9364 10.5442 90.4787 10.6621 90.9455 10.8979C91.4124 11.1337 91.7755 11.4826 92.0372 11.9424C92.2989 12.4022 92.4286 12.961 92.4286 13.6212C92.4286 14.2908 92.2989 14.8591 92.0372 15.3259Z" fill="white"/>
<path d="M101.348 17.8889H106.311L107.186 20.1642H111.734L106.028 7.11353H101.704L95.998 20.1642H100.473L101.348 17.8889ZM103.828 11.4331L105.092 14.7199H102.565L103.828 11.4331Z" fill="white"/>
<path d="M125.036 16.3611C125.402 15.5288 125.586 14.621 125.586 13.6401C125.586 12.6451 125.402 11.735 125.036 10.9097C124.671 10.0821 124.157 9.36299 123.499 8.7476C122.841 8.1322 122.063 7.65592 121.169 7.3211C120.276 6.98629 119.293 6.81888 118.224 6.81888C117.168 6.81888 116.19 6.98629 115.289 7.3211C114.388 7.65592 113.608 8.1322 112.95 8.7476C112.292 9.36299 111.778 10.0845 111.413 10.9097C111.045 11.7373 110.863 12.6475 110.863 13.6401C110.863 14.6234 111.047 15.5288 111.413 16.3611C111.778 17.1934 112.292 17.9173 112.95 18.5327C113.608 19.1481 114.388 19.6244 115.289 19.9592C116.19 20.294 117.168 20.4614 118.224 20.4614C119.293 20.4614 120.276 20.294 121.169 19.9592C122.065 19.6244 122.841 19.1481 123.499 18.5327C124.157 17.9173 124.668 17.1934 125.036 16.3611ZM120.924 15.01C120.776 15.4132 120.566 15.7551 120.299 16.0357C120.033 16.3163 119.722 16.5308 119.368 16.6794C119.014 16.8279 118.632 16.9034 118.222 16.9034C117.812 16.9034 117.43 16.8279 117.076 16.6794C116.723 16.5308 116.411 16.3163 116.145 16.0357C115.878 15.7551 115.669 15.4132 115.52 15.01C115.371 14.6068 115.296 14.1494 115.296 13.6401C115.296 13.1308 115.371 12.6734 115.52 12.2702C115.669 11.867 115.876 11.5251 116.145 11.2446C116.411 10.964 116.723 10.7494 117.076 10.6009C117.43 10.4523 117.812 10.3769 118.222 10.3769C118.632 10.3769 119.014 10.4523 119.368 10.6009C119.722 10.7494 120.033 10.964 120.299 11.2446C120.566 11.5251 120.776 11.867 120.924 12.2702C121.073 12.6734 121.148 13.1308 121.148 13.6401C121.148 14.1494 121.073 14.6045 120.924 15.01Z" fill="white"/>
<path d="M77.7645 25.2643V31.0102H69.2553V25.2643V24.7643H68.7553H68.3828H67.8828V25.2643V38.315V38.815H68.3828H68.7553H69.2553V38.315V32.3639H77.7645V38.315V38.815H78.2645H78.6371H79.1371V38.315V25.2643V24.7643H78.6371H78.2645H77.7645V25.2643Z" fill="white" stroke="white"/>
<path d="M83.3042 25.2643V24.7643H82.8042H82.4316H81.9316V25.2643V32.8518C81.9316 34.7655 82.4002 36.293 83.4255 37.3397C84.4393 38.3748 85.8074 38.8692 87.4657 38.8692C89.1243 38.8692 90.4896 38.3746 91.5054 37.3402L91.5058 37.3397C92.5311 36.293 92.9997 34.7655 92.9997 32.8518V25.2643V24.7643H92.4997H92.1271H91.6271V25.2643V32.833C91.6271 34.5043 91.2346 35.6567 90.5428 36.3865C89.8465 37.1213 88.8436 37.5179 87.4657 37.5179C86.0877 37.5179 85.0848 37.1213 84.3884 36.3865C83.6967 35.6567 83.3042 34.5043 83.3042 32.833V25.2643Z" fill="white" stroke="white"/>
<path d="M106.245 38.815H106.48L106.688 39.0848V38.815H107.061V38.315V25.2643V24.7643H106.561H106.188H105.688V25.2643V36.1587L97.0204 24.9583L96.8702 24.7643H96.6249H96.3903L96.1815 24.4945V24.7643H95.8066V25.2643V38.315V38.815H96.3066H96.6815H97.1815V38.315V27.4205L105.85 38.621L106 38.815H106.245Z" fill="white" stroke="white"/>
<path d="M108.012 25.618V26.118H108.512H112.859V38.315V38.815H113.359H113.732H114.232V38.315V26.118H118.58H119.08V25.618V25.2643V24.7643H118.58H108.512H108.012V25.2643V25.618Z" fill="white" stroke="white"/>
<path d="M128.102 31.0102H121.406V26.118H128.941H129.441V25.618V25.2643V24.7643H128.941H120.533H120.033V25.2643V38.315V38.815H120.533H129.22H129.72V38.315V37.9613V37.4613H129.22H121.406V32.3639H128.102H128.602V31.8639V31.5102V31.0102H128.102Z" fill="white" stroke="white"/>
<path d="M139.098 33.7857L139.098 33.7857L139.101 33.7845C139.944 33.4072 140.61 32.8562 141.078 32.1246C141.549 31.3914 141.773 30.5249 141.773 29.5508C141.773 28.5668 141.55 27.6965 141.077 26.9682C140.609 26.2444 139.943 25.6964 139.101 25.3195L138.967 25.6177L139.101 25.3195C138.257 24.942 137.266 24.7643 136.147 24.7643H131.729H131.229V25.2643V38.315V38.815H131.729H132.101H132.601V38.315V34.3398H136.147C136.604 34.3398 137.038 34.3103 137.45 34.2487L140.589 38.6049L140.739 38.8126H140.995H141.462H142.438L141.867 38.0203L138.881 33.8758C138.954 33.8472 139.027 33.8171 139.098 33.7857ZM136.185 32.9861H132.601V26.118H136.185C137.646 26.118 138.682 26.4456 139.368 27.0254C140.043 27.5962 140.403 28.4132 140.403 29.5508C140.403 30.6745 140.045 31.4911 139.367 32.0703C138.678 32.6548 137.644 32.9861 136.185 32.9861Z" fill="white" stroke="white"/>
<path d="M143.365 30.4407C143.714 30.9367 144.18 31.3221 144.747 31.5988C145.278 31.8581 145.853 32.0652 146.476 32.2214C147.066 32.3702 147.654 32.5166 148.24 32.6607C148.8 32.7986 149.313 32.9691 149.782 33.1734C150.213 33.3613 150.541 33.6127 150.781 33.9192L150.782 33.9207C150.994 34.1893 151.123 34.5699 151.123 35.1107C151.123 35.5488 151.005 35.9406 150.767 36.2986C150.54 36.6414 150.177 36.9376 149.643 37.1703C149.124 37.3954 148.425 37.5202 147.522 37.5202C146.677 37.5202 145.904 37.3648 145.196 37.0571L145.195 37.0566C144.468 36.7426 143.945 36.3725 143.599 35.9622L143.261 35.562L142.877 35.9184L142.615 36.1612L142.272 36.4793L142.567 36.8426C143.067 37.4601 143.784 37.9438 144.673 38.3122C145.576 38.6877 146.533 38.8716 147.541 38.8716C148.617 38.8716 149.54 38.7152 150.286 38.3677C151.011 38.0326 151.581 37.5743 151.954 36.9768C152.314 36.402 152.497 35.7753 152.497 35.1083L152.497 35.1066C152.495 34.3643 152.33 33.7121 151.954 33.1929C151.604 32.7092 151.139 32.3332 150.576 32.0583C150.046 31.7998 149.475 31.591 148.863 31.4279C148.274 31.2712 147.684 31.1218 147.091 30.9773C146.526 30.8393 146.009 30.6687 145.541 30.4648L145.396 30.7984L145.541 30.4648C145.112 30.2776 144.785 30.0265 144.541 29.72C144.331 29.4516 144.2 29.0638 144.2 28.511C144.2 28.0576 144.318 27.6594 144.549 27.2991C144.771 26.9575 145.126 26.6598 145.657 26.4208C146.17 26.1919 146.846 26.0637 147.709 26.0637C148.239 26.0637 148.8 26.1493 149.395 26.3241C149.974 26.4942 150.498 26.7535 150.971 27.1041L151.388 27.4135L151.681 26.9851L151.886 26.6857L152.155 26.2943L151.778 26.006C151.252 25.6039 150.623 25.2927 149.905 25.0598L149.903 25.0593C149.178 24.8269 148.438 24.7101 147.69 24.7101C146.626 24.7101 145.714 24.8718 144.981 25.2271C144.273 25.5707 143.72 26.0323 143.356 26.628C143.005 27.2018 142.825 27.827 142.825 28.4922C142.825 29.2453 142.989 29.9102 143.365 30.4407Z" fill="white" stroke="white"/>
</svg>
