<svg width="127" height="70" viewBox="0 0 127 70" fill="none" xmlns="http://www.w3.org/2000/svg">
<g clip-path="url(#clip0_1352_2)">
<path d="M66.8465 10.7555H69.7279C70.6182 10.7555 71.3054 10.5643 71.7896 10.1816C72.2734 9.7991 72.5157 9.25612 72.5157 8.55345C72.5157 7.80378 72.2776 7.22983 71.8015 6.83166C71.3248 6.43322 70.6337 6.234 69.7279 6.234H66.8465V10.7555V10.7555ZM64.0117 18.908V3.58669H69.9621C71.5552 3.58669 72.8553 4.05536 73.8629 4.99236C74.8701 5.92943 75.3741 7.13997 75.3741 8.62362C75.3741 10.0451 74.874 11.197 73.8745 12.0792C72.8748 12.9618 71.5708 13.4028 69.9621 13.4028H66.8465V18.9081H64.0117V18.908Z" fill="white"/>
<path d="M81.9098 12.4423H84.9554L88.2117 18.9081H85.1897L81.9098 12.4423ZM79.6845 10.8257H82.6362C83.5263 10.8257 84.2017 10.6384 84.6626 10.2636C85.123 9.88863 85.3537 9.34205 85.3537 8.62362C85.3537 7.87388 85.123 7.28811 84.6626 6.86644C84.2017 6.4447 83.5263 6.23394 82.6362 6.23394H79.6845V10.8257ZM76.8496 18.9081V3.58676H82.8938C84.4554 3.58676 85.732 4.06705 86.7243 5.02755C87.7157 5.98806 88.2118 7.21027 88.2118 8.69392C88.2118 10.1311 87.7235 11.2908 86.7475 12.1729C85.7713 13.0554 84.4868 13.4965 82.8938 13.4965H79.6845V18.9082H76.8496V18.9081Z" fill="white"/>
<path d="M93.1897 7.25306C92.5103 8.21356 92.1706 9.54514 92.1706 11.2474C92.1706 12.9498 92.5063 14.2696 93.1781 15.2067C93.8493 16.1438 94.7864 16.6124 95.9892 16.6124C97.1915 16.6124 98.125 16.1437 98.7888 15.2067C99.4525 14.2696 99.7843 12.9499 99.7843 11.2474C99.7843 9.54514 99.4484 8.21356 98.7771 7.25306C98.1054 6.29248 97.1761 5.8122 95.9892 5.8122C94.8021 5.8122 93.8692 6.29248 93.1897 7.25306ZM89.3126 11.2474C89.3126 8.68611 89.9175 6.67911 91.128 5.2267C92.3381 3.77402 93.9588 3.04785 95.9892 3.04785C97.8948 3.04785 99.4798 3.78591 100.745 5.26182C102.01 6.73773 102.643 8.73305 102.643 11.2474C102.643 13.8089 102.045 15.8079 100.85 17.2446C99.6556 18.6818 98.0352 19.4 95.9892 19.4C93.943 19.4 92.3187 18.6818 91.1166 17.2446C89.9136 15.8079 89.3125 13.8089 89.3125 11.2474H89.3126Z" fill="white"/>
<path d="M66.5496 32.0563H69.4227C71.1511 32.0563 72.015 31.502 72.015 30.3928C72.015 29.2553 71.1511 28.6862 69.4227 28.6862H66.5496V32.0563ZM66.5496 26.2234H69.4227C70.9925 26.2234 71.7775 25.6475 71.7775 24.4953C71.7775 23.9195 71.5938 23.4982 71.2266 23.2315C70.8593 22.9652 70.2579 22.8318 69.4227 22.8318H66.5496V26.2234V26.2234ZM71.518 27.3253V27.6062C72.4543 27.7935 73.2066 28.1861 73.7758 28.7833C74.3444 29.3812 74.6291 30.098 74.6291 30.9329C74.6291 32.0132 74.1824 32.881 73.2897 33.5361C72.3966 34.1916 71.1866 34.5192 69.6604 34.5192H63.9355V20.3909H69.6604C71.1866 20.3909 72.3607 20.7223 73.1816 21.3846C74.0026 22.0471 74.413 22.9399 74.413 24.0633C74.413 24.9132 74.1607 25.6295 73.657 26.2129C73.1525 26.796 72.4398 27.1671 71.518 27.3254L71.518 27.3253Z" fill="white"/>
<path d="M76.0977 20.3908H78.7118V32.0562H86.4671V34.519H76.0977V20.3908Z" fill="white"/>
<path d="M89.9563 23.7717C89.3298 24.6574 89.0166 25.8852 89.0166 27.455C89.0166 29.0248 89.3259 30.2416 89.9455 31.1059C90.5646 31.97 91.4287 32.4019 92.5378 32.4019C93.6468 32.4019 94.5071 31.97 95.1193 31.1059C95.7312 30.2417 96.0374 29.0248 96.0374 27.455C96.0374 25.8852 95.7276 24.6574 95.1086 23.7717C94.4894 22.886 93.6322 22.443 92.5379 22.443C91.4433 22.443 90.5827 22.886 89.9563 23.7717H89.9563ZM86.3809 27.455C86.3809 25.0931 86.9388 23.2423 88.055 21.9029C89.1712 20.5636 90.6655 19.8938 92.5378 19.8938C94.2948 19.8938 95.7566 20.5745 96.9232 21.9353C98.0899 23.2964 98.673 25.1362 98.673 27.4549C98.673 29.817 98.1221 31.6603 97.0204 32.9852C95.9188 34.3105 94.4242 34.9726 92.5378 34.9726C90.6509 34.9726 89.1533 34.3105 88.0446 32.9852C86.9355 31.6603 86.3809 29.817 86.3809 27.4549V27.455Z" fill="white"/>
<path d="M111.785 24.9275L109.235 25.4242C108.976 24.4883 108.572 23.7682 108.026 23.264C107.478 22.76 106.808 22.5078 106.017 22.5078C104.893 22.5078 104.014 22.9437 103.381 23.8149C102.747 24.6864 102.43 25.9211 102.43 27.5198C102.43 29.0753 102.747 30.2779 103.381 31.1276C104.014 31.9775 104.893 32.402 106.017 32.402C106.866 32.402 107.583 32.1212 108.166 31.5593C108.749 30.9978 109.12 30.213 109.278 29.2047L111.849 29.7232C111.532 31.394 110.848 32.6866 109.797 33.6008C108.746 34.5156 107.485 34.9726 106.017 34.9726C104.115 34.9726 102.603 34.3176 101.48 33.0068C100.356 31.6965 99.7949 29.8673 99.7949 27.5197C99.7949 25.1292 100.356 23.2747 101.48 21.9569C102.603 20.6391 104.115 19.9802 106.017 19.9802C107.356 19.9802 108.537 20.4089 109.559 21.2656C110.582 22.1227 111.323 23.3432 111.784 24.9273L111.785 24.9275Z" fill="white"/>
<path d="M113.318 20.3908H115.932V26.7853L121.787 20.3908H125.027L119.454 26.8286L125.027 34.519H121.506L117.38 28.6L115.932 30.0258V34.519H113.318V20.3908Z" fill="white"/>
<path d="M76.6385 41.2558L73.8741 41.7946C73.5931 40.7794 73.1556 39.9988 72.5624 39.4519C71.9686 38.9054 71.2424 38.6317 70.3835 38.6317C69.1655 38.6317 68.2125 39.1043 67.5257 40.0493C66.8382 40.9944 66.4947 42.3332 66.4947 44.0669C66.4947 45.7536 66.8382 47.0579 67.5257 47.9792C68.2124 48.901 69.1654 49.3614 70.3835 49.3614C71.3051 49.3614 72.0822 49.0572 72.7147 48.4478C73.3469 47.8386 73.749 46.9878 73.9209 45.8943L76.7091 46.4564C76.3653 48.2685 75.6234 49.6701 74.4835 50.6616C73.3431 51.6538 71.9767 52.1494 70.3836 52.1494C68.3222 52.1494 66.6822 51.4389 65.4641 50.0176C64.2458 48.5965 63.6367 46.6131 63.6367 44.0671C63.6367 41.4748 64.2458 39.4637 65.4641 38.0345C66.6821 36.6055 68.3222 35.891 70.3836 35.891C71.836 35.891 73.1166 36.356 74.2257 37.2851C75.3343 38.2144 76.1388 39.538 76.6386 41.256L76.6385 41.2558Z" fill="white"/>
<path d="M87.4374 36.336H90.2958V51.6573H87.4374V36.336ZM79.683 42.5208H88.6554V45.1915H79.683V42.5208ZM78.3008 36.336H81.1356V51.6573H78.3008V36.336Z" fill="white"/>
<path d="M95.3558 45.215H102.642V47.8622H95.3558V45.215ZM98.5419 40.0846L94.6998 51.6573H91.6309L96.8082 36.336H101.095L106.296 51.6573H103.251L99.3617 40.0846L99.1041 38.7726H98.7996L98.5419 40.0846Z" fill="white"/>
<path d="M107.633 36.3127H110.468V51.6576H107.633V36.3127Z" fill="white"/>
<path d="M122.203 36.336H125.061V51.6574H121.383L115.268 40.4826V51.6574H112.434V36.336H116.088L122.203 47.4641V36.336Z" fill="white"/>
<path d="M72.4135 64.6947L78.5196 53.4706H80.2584V66.3943H79.0532V54.9133L72.9666 66.3943H71.3266L65.2798 54.9133V66.3943H64.0547V53.4706H65.8329L71.8996 64.6947L72.1365 65.426L72.4135 64.6947Z" fill="white"/>
<path d="M82.373 53.4705H93.5576V54.6363H83.5984V59.3593H93.4787V60.5451H83.5984V65.2083H93.5576V66.3942H82.373V53.4705Z" fill="white"/>
<path d="M96.4031 65.1887H100.493C102.167 65.1887 103.458 64.731 104.367 63.8153C105.276 62.8998 105.73 61.5923 105.73 59.8928C105.73 58.2066 105.279 56.9089 104.376 55.9999C103.474 55.0909 102.18 54.6363 100.493 54.6363H96.4031V65.1887ZM95.1777 66.394V53.4705H100.711C102.542 53.4705 104.037 54.0767 105.196 55.2887C106.356 56.5007 106.936 58.0649 106.936 59.9816C106.936 61.8986 106.365 63.4468 105.226 64.6254C104.086 65.8048 102.581 66.394 100.711 66.394H95.1777V66.394Z" fill="white"/>
<path d="M108.715 53.4705H109.94V66.3941H108.715V53.4705Z" fill="white"/>
<path d="M114.425 61.2759H123.159V62.4417H114.425V61.2759ZM118.416 55.1504L112.765 66.3942H111.342L117.844 53.4705H119.681L126.222 66.3942H124.858L119.108 55.1504L118.891 54.3993H118.634L118.416 55.1504Z" fill="white"/>
<path d="M39.7285 30.1328C39.7273 32.7696 37.5892 34.9077 34.9524 34.9089H23.3161C22.9159 34.909 22.5422 35.1098 22.3213 35.4439L14.6356 46.1796C14.5715 46.2759 14.4633 46.3337 14.3476 46.3337C14.1576 46.3337 14.0031 46.1806 14.0014 45.9907L14.0013 20.3703C14.0014 17.733 16.1401 15.5942 18.7774 15.5942H34.9524C37.5897 15.5942 39.7285 17.733 39.7285 20.3703V30.1328ZM41.4422 8.43847e-05H12.4666C5.58074 0.00160516 6.91259e-05 5.58373 6.91259e-05 12.469L0 63.3906C0 69.147 6.85785 72.139 11.077 68.232L26.0684 51.8028C26.8552 51.1007 27.378 50.4787 28.6586 50.4036H41.4422C48.3254 50.4021 53.9039 44.822 53.9039 37.9394V37.9364V12.469C53.9039 12.4672 53.9039 12.4656 53.9039 12.4642C53.9039 5.58159 48.3254 0.00153603 41.4428 1.52588e-05H41.4422L41.4422 8.43847e-05Z" fill="white"/>
</g>
<defs>
<clipPath id="clip0_1352_2">
<rect width="126.223" height="70" fill="white"/>
</clipPath>
</defs>
</svg>
