<svg width="197" height="69" viewBox="0 0 197 69" fill="none" xmlns="http://www.w3.org/2000/svg">
<g filter="url(#filter0_b_137_10)">
<path d="M1.36304 18.0494V19.0494H2.36304H8.92804V65.5754V66.5754H9.92804H19.718H20.718V65.5754V3.27541V2.27541H19.718H13.132H12.4303L12.1917 2.93528C11.4321 5.03529 10.6974 6.77335 9.33941 8.02463C8.02145 9.23904 5.98067 10.1074 2.36304 10.1074H1.36304V11.1074V18.0494ZM183.162 18.9394V17.9394H182.162H175.22H174.22V18.9394V29.9544H163.294H162.294V30.9544V37.8964V38.8964H163.294H174.22V50.0894V51.0894H175.22H182.162H183.162V50.0894V38.8964H194.088H195.088V37.8964V30.9544V29.9544H194.088H183.162V18.9394ZM44.2571 17.6044C44.2571 15.5036 44.7222 14.2544 45.3697 13.5332C45.9977 12.8336 46.9498 12.4634 48.3301 12.4634C49.7104 12.4634 50.6626 12.8336 51.2906 13.5332C51.9381 14.2544 52.4031 15.5036 52.4031 17.6044V51.2464C52.4031 53.3472 51.9381 54.5964 51.2906 55.3176C50.6626 56.0172 49.7104 56.3874 48.3301 56.3874C46.9498 56.3874 45.9977 56.0172 45.3697 55.3176C44.7222 54.5964 44.2571 53.3472 44.2571 51.2464V17.6044ZM32.4671 50.6234C32.4671 55.7743 33.825 59.968 36.5661 62.879C39.316 65.7992 43.3249 67.2874 48.3301 67.2874C53.3354 67.2874 57.3443 65.7992 60.0942 62.879C62.8353 59.968 64.1931 55.7743 64.1931 50.6234V18.2274C64.1931 13.0765 62.8353 8.8828 60.0942 5.97186C57.3443 3.05161 53.3354 1.56342 48.3301 1.56342C43.3249 1.56342 39.316 3.05161 36.5661 5.97186C33.825 8.8828 32.4671 13.0765 32.4671 18.2274V50.6234ZM82.2142 17.6044C82.2142 15.5036 82.6793 14.2544 83.3268 13.5332C83.9548 12.8336 84.907 12.4634 86.2873 12.4634C87.6676 12.4634 88.6197 12.8336 89.2477 13.5332C89.8952 14.2544 90.3603 15.5036 90.3603 17.6044V51.2464C90.3603 53.3472 89.8952 54.5964 89.2477 55.3176C88.6197 56.0172 87.6676 56.3874 86.2873 56.3874C84.907 56.3874 83.9548 56.0172 83.3268 55.3176C82.6793 54.5964 82.2142 53.3472 82.2142 51.2464V17.6044ZM70.4243 50.6234C70.4243 55.7743 71.7821 59.968 74.5232 62.879C77.2731 65.7992 81.282 67.2874 86.2873 67.2874C91.2925 67.2874 95.3014 65.7992 98.0513 62.879C100.792 59.968 102.15 55.7743 102.15 50.6234V18.2274C102.15 13.0765 100.792 8.8828 98.0513 5.97186C95.3014 3.05161 91.2925 1.56342 86.2873 1.56342C81.282 1.56342 77.2731 3.05161 74.5232 5.97186C71.7821 8.8828 70.4243 13.0765 70.4243 18.2274V50.6234ZM120.171 17.6044C120.171 15.5036 120.636 14.2544 121.284 13.5332C121.912 12.8336 122.864 12.4634 124.244 12.4634C125.625 12.4634 126.577 12.8336 127.205 13.5332C127.852 14.2544 128.317 15.5036 128.317 17.6044V51.2464C128.317 53.3472 127.852 54.5964 127.205 55.3176C126.577 56.0172 125.625 56.3874 124.244 56.3874C122.864 56.3874 121.912 56.0172 121.284 55.3176C120.636 54.5964 120.171 53.3472 120.171 51.2464V17.6044ZM108.381 50.6234C108.381 55.7743 109.739 59.968 112.48 62.879C115.23 65.7992 119.239 67.2874 124.244 67.2874C129.25 67.2874 133.258 65.7992 136.008 62.879C138.75 59.968 140.107 55.7743 140.107 50.6234V18.2274C140.107 13.0765 138.75 8.8828 136.008 5.97186C133.258 3.05161 129.25 1.56342 124.244 1.56342C119.239 1.56342 115.23 3.05161 112.48 5.97186C109.739 8.8828 108.381 13.0765 108.381 18.2274V50.6234Z" stroke="#16A2AA" stroke-width="2"/>
</g>
<defs>
<filter id="filter0_b_137_10" x="-49.637" y="-49.4366" width="295.725" height="167.724" filterUnits="userSpaceOnUse" color-interpolation-filters="sRGB">
<feFlood flood-opacity="0" result="BackgroundImageFix"/>
<feGaussianBlur in="BackgroundImage" stdDeviation="25"/>
<feComposite in2="SourceAlpha" operator="in" result="effect1_backgroundBlur_137_10"/>
<feBlend mode="normal" in="SourceGraphic" in2="effect1_backgroundBlur_137_10" result="shape"/>
</filter>
</defs>
</svg>
