<svg width="289" height="69" viewBox="0 0 289 69" fill="none" xmlns="http://www.w3.org/2000/svg">
<g filter="url(#filter0_b_137_11)">
<path d="M1.85669 18.0494V19.0494H2.85669H9.42169V65.5754V66.5754H10.4217H20.2117H21.2117V65.5754V3.27541V2.27541H20.2117H13.6257H12.924L12.6853 2.93528C11.9257 5.03529 11.191 6.77335 9.83306 8.02463C8.5151 9.23904 6.47432 10.1074 2.85669 10.1074H1.85669V11.1074V18.0494ZM276.059 18.9394V17.9394H275.059H268.117H267.117V18.9394V29.9544H256.191H255.191V30.9544V37.8964V38.8964H256.191H267.117V50.0894V51.0894H268.117H275.059H276.059V50.0894V38.8964H286.985H287.985V37.8964V30.9544V29.9544H286.985H276.059V18.9394ZM44.7508 17.6044C44.7508 15.5036 45.2159 14.2544 45.8633 13.5332C46.4913 12.8336 47.4435 12.4634 48.8238 12.4634C50.2041 12.4634 51.1563 12.8336 51.7843 13.5332C52.4317 14.2544 52.8968 15.5036 52.8968 17.6044V51.2464C52.8968 53.3472 52.4317 54.5964 51.7843 55.3176C51.1563 56.0172 50.2041 56.3874 48.8238 56.3874C47.4435 56.3874 46.4913 56.0172 45.8633 55.3176C45.2159 54.5964 44.7508 53.3472 44.7508 51.2464V17.6044ZM32.9608 50.6234C32.9608 55.7743 34.3186 59.968 37.0598 62.879C39.8097 65.7992 43.8186 67.2874 48.8238 67.2874C53.829 67.2874 57.8379 65.7992 60.5878 62.879C63.329 59.968 64.6868 55.7743 64.6868 50.6234V18.2274C64.6868 13.0765 63.329 8.8828 60.5878 5.97186C57.8379 3.05161 53.829 1.56342 48.8238 1.56342C43.8186 1.56342 39.8097 3.05161 37.0598 5.97186C34.3186 8.8828 32.9608 13.0765 32.9608 18.2274V50.6234ZM82.7079 17.6044C82.7079 15.5036 83.173 14.2544 83.8204 13.5332C84.4484 12.8336 85.4006 12.4634 86.7809 12.4634C88.1612 12.4634 89.1134 12.8336 89.7414 13.5332C90.3888 14.2544 90.8539 15.5036 90.8539 17.6044V51.2464C90.8539 53.3472 90.3888 54.5964 89.7414 55.3176C89.1134 56.0172 88.1612 56.3874 86.7809 56.3874C85.4006 56.3874 84.4484 56.0172 83.8204 55.3176C83.173 54.5964 82.7079 53.3472 82.7079 51.2464V17.6044ZM70.9179 50.6234C70.9179 55.7743 72.2758 59.968 75.0169 62.879C77.7668 65.7992 81.7757 67.2874 86.7809 67.2874C91.7861 67.2874 95.795 65.7992 98.5449 62.879C101.286 59.968 102.644 55.7743 102.644 50.6234V18.2274C102.644 13.0765 101.286 8.8828 98.5449 5.97186C95.795 3.05161 91.7861 1.56342 86.7809 1.56342C81.7757 1.56342 77.7668 3.05161 75.0169 5.97186C72.2758 8.8828 70.9179 13.0765 70.9179 18.2274V50.6234ZM137.154 17.6044C137.154 15.5036 137.619 14.2544 138.267 13.5332C138.895 12.8336 139.847 12.4634 141.227 12.4634C142.608 12.4634 143.56 12.8336 144.188 13.5332C144.835 14.2544 145.3 15.5036 145.3 17.6044V51.2464C145.3 53.3472 144.835 54.5964 144.188 55.3176C143.56 56.0172 142.608 56.3874 141.227 56.3874C139.847 56.3874 138.895 56.0172 138.267 55.3176C137.619 54.5964 137.154 53.3472 137.154 51.2464V17.6044ZM125.364 50.6234C125.364 55.7743 126.722 59.968 129.463 62.879C132.213 65.7992 136.222 67.2874 141.227 67.2874C146.233 67.2874 150.241 65.7992 152.991 62.879C155.732 59.968 157.09 55.7743 157.09 50.6234V18.2274C157.09 13.0765 155.732 8.8828 152.991 5.97186C150.241 3.05161 146.233 1.56342 141.227 1.56342C136.222 1.56342 132.213 3.05161 129.463 5.97186C126.722 8.8828 125.364 13.0765 125.364 18.2274V50.6234ZM175.111 17.6044C175.111 15.5036 175.577 14.2544 176.224 13.5332C176.852 12.8336 177.804 12.4634 179.184 12.4634C180.565 12.4634 181.517 12.8336 182.145 13.5332C182.792 14.2544 183.257 15.5036 183.257 17.6044V51.2464C183.257 53.3472 182.792 54.5964 182.145 55.3176C181.517 56.0172 180.565 56.3874 179.184 56.3874C177.804 56.3874 176.852 56.0172 176.224 55.3176C175.577 54.5964 175.111 53.3472 175.111 51.2464V17.6044ZM163.321 50.6234C163.321 55.7743 164.679 59.968 167.42 62.879C170.17 65.7992 174.179 67.2874 179.184 67.2874C184.19 67.2874 188.199 65.7992 190.948 62.879C193.69 59.968 195.047 55.7743 195.047 50.6234V18.2274C195.047 13.0765 193.69 8.8828 190.948 5.97186C188.199 3.05161 184.19 1.56342 179.184 1.56342C174.179 1.56342 170.17 3.05161 167.42 5.97186C164.679 8.8828 163.321 13.0765 163.321 18.2274V50.6234ZM213.069 17.6044C213.069 15.5036 213.534 14.2544 214.181 13.5332C214.809 12.8336 215.761 12.4634 217.142 12.4634C218.522 12.4634 219.474 12.8336 220.102 13.5332C220.75 14.2544 221.215 15.5036 221.215 17.6044V51.2464C221.215 53.3472 220.75 54.5964 220.102 55.3176C219.474 56.0172 218.522 56.3874 217.142 56.3874C215.761 56.3874 214.809 56.0172 214.181 55.3176C213.534 54.5964 213.069 53.3472 213.069 51.2464V17.6044ZM201.279 50.6234C201.279 55.7743 202.636 59.968 205.378 62.879C208.127 65.7992 212.136 67.2874 217.142 67.2874C222.147 67.2874 226.156 65.7992 228.906 62.879C231.647 59.968 233.005 55.7743 233.005 50.6234V18.2274C233.005 13.0765 231.647 8.8828 228.906 5.97186C226.156 3.05161 222.147 1.56342 217.142 1.56342C212.136 1.56342 208.127 3.05161 205.378 5.97186C202.636 8.8828 201.279 13.0765 201.279 18.2274V50.6234Z" stroke="#16A2AA" stroke-width="2"/>
</g>
<defs>
<filter id="filter0_b_137_11" x="-49.1433" y="-49.4366" width="388.128" height="167.724" filterUnits="userSpaceOnUse" color-interpolation-filters="sRGB">
<feFlood flood-opacity="0" result="BackgroundImageFix"/>
<feGaussianBlur in="BackgroundImage" stdDeviation="25"/>
<feComposite in2="SourceAlpha" operator="in" result="effect1_backgroundBlur_137_11"/>
<feBlend mode="normal" in="SourceGraphic" in2="effect1_backgroundBlur_137_11" result="shape"/>
</filter>
</defs>
</svg>
