<svg width="29" height="33" viewBox="0 0 29 33" fill="none" xmlns="http://www.w3.org/2000/svg">
<path d="M-1.39079e-06 31.8176C0.00727862 25.2446 2.625 18.9436 7.27745 14.3004C11.9299 9.65721 18.2361 7.05206 24.8091 7.05789L19.5858 1.83464C19.3969 1.62534 19.2956 1.3514 19.3031 1.06951C19.3105 0.787631 19.426 0.519402 19.6258 0.320364C19.8255 0.121326 20.0942 0.00672464 20.3761 0.000287462C20.658 -0.00614972 20.9316 0.0960705 21.1402 0.285784L28.2363 7.38194C28.3385 7.48396 28.4195 7.60511 28.4748 7.73846C28.5301 7.87182 28.5585 8.01476 28.5585 8.15912C28.5585 8.30347 28.5301 8.44641 28.4748 8.57977C28.4195 8.71312 28.3385 8.83427 28.2363 8.93629L21.1402 16.0324C21.0381 16.1345 20.917 16.2155 20.7836 16.2707C20.6503 16.3259 20.5073 16.3544 20.363 16.3544C20.2187 16.3544 20.0758 16.3259 19.9424 16.2707C19.8091 16.2155 19.6879 16.1345 19.5858 16.0324C19.4838 15.9304 19.4028 15.8092 19.3476 15.6759C19.2924 15.5425 19.2639 15.3996 19.2639 15.2553C19.2639 15.1109 19.2924 14.968 19.3476 14.8347C19.4028 14.7013 19.4838 14.5802 19.5858 14.4781L24.8091 9.25485C18.8188 9.24902 13.0714 11.6227 8.83093 15.8539C4.59049 20.085 2.20423 25.8272 2.19695 31.8176C2.19695 32.1089 2.08122 32.3883 1.87522 32.5943C1.66921 32.8003 1.38981 32.916 1.09848 32.916C0.807141 32.916 0.527739 32.8003 0.321735 32.5943C0.115731 32.3883 -1.40352e-06 32.1089 -1.39079e-06 31.8176Z" fill="white"/>
</svg>
