<svg width="26" height="48" viewBox="0 0 26 48" fill="none" xmlns="http://www.w3.org/2000/svg">
<path d="M11.2652 35.0644C10.3646 33.5377 9.6267 31.9197 9.06365 30.2367C4.25163 30.4226 0.197813 26.6504 0 21.8028C3.42573 21.6632 6.61579 23.5568 8.15403 26.6434C7.68003 23.9564 7.64591 21.2087 8.05219 18.5104C3.70032 17.1846 1.08504 12.7179 2.03891 8.23885C5.46357 8.98286 8.11564 11.7161 8.77626 15.182C9.15323 13.8648 9.63416 12.5799 10.2143 11.3395L10.7672 10.1921C9.75626 5.98212 11.9381 1.6583 15.9092 0C17.4251 3.698 16.2745 7.96112 13.1084 10.3769L12.1844 12.2909C11.3692 14.0297 10.7693 15.8626 10.3993 17.7487C11.9882 14.6846 15.2108 12.8409 18.637 13.037C18.371 17.6697 14.5779 21.2968 9.9722 21.3231C9.84104 24.5667 10.3977 27.8005 11.6048 30.8099C12.0783 26.875 15.1052 23.7442 18.9969 23.1641C19.6416 27.5884 16.8898 31.7967 12.6003 32.9463C13.263 34.2167 14.0394 35.4232 14.9196 36.5508C16.3033 38.3117 17.9343 39.8593 19.7615 41.1459C17.6853 37.1358 18.9639 32.1931 22.7186 29.714C25.2736 33.6457 24.3085 38.9058 20.5282 41.6573C22.0126 42.6232 23.6031 43.4112 25.2683 44.0064C25.7716 44.1837 26.0739 44.701 25.9843 45.2301C25.8948 45.7593 25.4389 46.1461 24.9057 46.145C24.7825 46.145 24.6599 46.1235 24.5431 46.0821C23.0646 45.5525 21.6389 44.8842 20.2846 44.0854C17.7162 47.9639 12.5902 49.1489 8.60031 46.7864C10.5443 43.4585 14.4147 41.7954 18.1444 42.686C16.4574 41.4462 14.9303 39.9995 13.5984 38.3789C9.49553 40.4057 4.53582 38.9037 2.22126 34.9344C5.02529 33.2799 8.50914 33.3298 11.2652 35.0644Z" fill="white"/>
</svg>
