<svg width="435" height="118" viewBox="0 0 435 118" fill="none" xmlns="http://www.w3.org/2000/svg">
<g filter="url(#filter0_b_83_1110)">
<path d="M43.6806 72.8184H43.1806V73.3184V89.4457C43.1806 93.3961 42.1592 95.9801 40.4238 97.5859C38.6808 99.1986 36.1243 99.9123 32.8655 99.9123C29.6067 99.9123 27.0502 99.1986 25.3072 97.5859C23.5718 95.9801 22.5504 93.3961 22.5504 89.4457V28.4846C22.5504 24.5343 23.5718 21.9069 25.3114 20.2599C27.0561 18.608 29.6126 17.8568 32.8655 17.8568C36.1184 17.8568 38.6749 18.608 40.4196 20.2599C42.1592 21.9069 43.1806 24.5343 43.1806 28.4846V40.5801V41.0801H43.6806H63.4134H63.9134V40.5801V29.6135C63.9134 20.4836 61.2254 13.2386 55.8792 8.2814C50.539 3.32969 42.6203 0.729492 32.2963 0.729492C21.9722 0.729492 14.0536 3.32969 8.71338 8.2814C3.36719 13.2386 0.679199 20.4836 0.679199 29.6135V88.3168C0.679199 97.4467 3.36719 104.692 8.71338 109.649C14.0536 114.601 21.9722 117.201 32.2963 117.201C42.6203 117.201 50.539 114.601 55.8792 109.649C61.2254 104.692 63.9134 97.4467 63.9134 88.3168V73.3184V72.8184H63.4134H43.6806ZM199.212 115.562L199.323 115.911H199.689H221.129H221.629V115.411V2.51967V2.01967H221.129H202.535H202.035V2.51967V66.8639L181.571 2.36845L181.46 2.01967H181.094H154.91H154.41V2.51967V115.411V115.911H154.91H173.694H174.194V115.411V36.8684L199.212 115.562ZM285.784 52.1755H259.341V19.147H293.184H293.684V18.647V2.51967V2.01967H293.184H237.97H237.47V2.51967V115.411V115.911H237.97H258.841H259.341V115.411V69.3028H285.784H286.284V68.8028V52.6755V52.1755H285.784ZM97.6379 28.4846C97.6379 24.5343 98.6593 21.9069 100.399 20.2599C102.144 18.608 104.7 17.8568 107.953 17.8568C111.206 17.8568 113.762 18.608 115.507 20.2599C117.247 21.9069 118.268 24.5343 118.268 28.4846V89.4457C118.268 93.396 117.247 96.0234 115.507 97.6704C113.762 99.3223 111.206 100.074 107.953 100.074C104.7 100.074 102.144 99.3223 100.399 97.6704C98.6593 96.0234 97.6379 93.396 97.6379 89.4457V28.4846ZM75.7667 88.3168C75.7667 97.4543 78.6016 104.699 84.0904 109.653C89.5714 114.601 97.6289 117.201 107.953 117.201C118.277 117.201 126.335 114.601 131.816 109.653C137.304 104.699 140.139 97.4543 140.139 88.3168V29.6135C140.139 20.476 137.304 13.2312 131.816 8.27688C126.335 3.32959 118.277 0.729492 107.953 0.729492C97.6289 0.729492 89.5714 3.32959 84.0904 8.27688C78.6016 13.2312 75.7667 20.476 75.7667 29.6135V88.3168Z" stroke="#7676FF"/>
</g>
<g filter="url(#filter1_b_83_1110)">
<mask id="path-2-outside-1_83_1110" maskUnits="userSpaceOnUse" x="313.132" y="1.31299" width="122" height="116" fill="black">
<rect fill="white" x="313.132" y="1.31299" width="122" height="116"/>
<path fill-rule="evenodd" clip-rule="evenodd" d="M350.014 31.0504C350.014 47.0962 341.131 56.5022 332.205 65.9543C323.19 75.4996 314.132 85.0919 314.132 101.617V115.347H366.474V99.3815H332.237C332.073 98.5833 332.073 97.7851 332.073 96.9869V96.9867C332.073 89.2826 338.42 82.5061 345.787 74.6402C355.977 63.7606 368.12 50.7969 368.12 30.4118C368.12 12.5307 358.902 2.31299 341.126 2.31299C323.349 2.31299 314.132 12.5307 314.132 30.4118V41.2681H331.25V29.2942C331.25 21.3116 334.871 18.2782 340.632 18.2782C346.393 18.2782 350.014 20.9923 350.014 31.0504ZM397.465 65.9543C406.392 56.5022 415.274 47.0962 415.274 31.0504C415.274 20.9923 411.653 18.2782 405.892 18.2782C400.131 18.2782 396.51 21.3116 396.51 29.2942V41.2681H379.392V30.4118C379.392 12.5307 388.61 2.31299 406.386 2.31299C424.163 2.31299 433.38 12.5307 433.38 30.4118C433.38 50.7969 421.238 63.7606 411.048 74.6402C403.68 82.5061 397.333 89.2826 397.333 96.9867V96.9869C397.333 97.7851 397.333 98.5833 397.498 99.3815H431.734V115.347H379.392V101.617C379.392 85.0919 388.451 75.4996 397.465 65.9543Z"/>
</mask>
<path d="M332.205 65.9543L331.478 65.2677L332.205 65.9543ZM314.132 115.347H313.132V116.347H314.132V115.347ZM366.474 115.347V116.347H367.474V115.347H366.474ZM366.474 99.3815H367.474V98.3815H366.474V99.3815ZM332.237 99.3815L331.258 99.5834L331.423 100.382H332.237V99.3815ZM345.787 74.6402L346.517 75.3238L345.787 74.6402ZM314.132 41.2681H313.132V42.2681H314.132V41.2681ZM331.25 41.2681V42.2681H332.25V41.2681H331.25ZM397.465 65.9543L396.738 65.2677V65.2677L397.465 65.9543ZM396.51 41.2681V42.2681H397.51V41.2681H396.51ZM379.392 41.2681H378.392V42.2681H379.392V41.2681ZM411.048 74.6402L410.318 73.9566L411.048 74.6402ZM397.498 99.3815L396.518 99.5835L396.683 100.382H397.498V99.3815ZM431.734 99.3815H432.734V98.3815H431.734V99.3815ZM431.734 115.347V116.347H432.734V115.347H431.734ZM379.392 115.347H378.392V116.347H379.392V115.347ZM332.932 66.6409C341.84 57.2084 351.014 47.5372 351.014 31.0504H349.014C349.014 46.6552 340.423 55.796 331.478 65.2677L332.932 66.6409ZM315.132 101.617C315.132 85.5311 323.902 76.2027 332.932 66.6409L331.478 65.2677C322.479 74.7965 313.132 84.6526 313.132 101.617H315.132ZM315.132 115.347V101.617H313.132V115.347H315.132ZM366.474 114.347H314.132V116.347H366.474V114.347ZM365.474 99.3815V115.347H367.474V99.3815H365.474ZM332.237 100.382H366.474V98.3815H332.237V100.382ZM331.073 96.9869C331.073 97.7692 331.069 98.6692 331.258 99.5834L333.217 99.1796C333.076 98.4974 333.073 97.801 333.073 96.9869H331.073ZM331.073 96.9867V96.9869H333.073V96.9867H331.073ZM345.057 73.9566C341.388 77.8742 337.902 81.5924 335.344 85.3068C332.779 89.0295 331.073 92.8492 331.073 96.9867H333.073C333.073 93.4201 334.54 89.9994 336.991 86.4414C339.447 82.8751 342.819 79.272 346.517 75.3238L345.057 73.9566ZM367.12 30.4118C367.12 50.3558 355.27 63.0528 345.057 73.9566L346.517 75.3238C356.685 64.4683 369.12 51.2379 369.12 30.4118H367.12ZM341.126 3.31299C349.823 3.31299 356.275 5.80788 360.562 10.3438C364.858 14.8892 367.12 21.6327 367.12 30.4118H369.12C369.12 21.3098 366.773 14.0039 362.016 8.97012C357.25 3.92697 350.205 1.31299 341.126 1.31299V3.31299ZM315.132 30.4118C315.132 21.6327 317.394 14.8892 321.689 10.3438C325.976 5.80788 332.429 3.31299 341.126 3.31299V1.31299C332.046 1.31299 325.002 3.92697 320.236 8.97013C315.478 14.0039 313.132 21.3098 313.132 30.4118H315.132ZM315.132 41.2681V30.4118H313.132V41.2681H315.132ZM331.25 40.2681H314.132V42.2681H331.25V40.2681ZM330.25 29.2942V41.2681H332.25V29.2942H330.25ZM340.632 17.2782C337.583 17.2782 334.925 18.084 333.047 20.1135C331.183 22.1274 330.25 25.1722 330.25 29.2942H332.25C332.25 25.4336 333.128 22.9704 334.514 21.472C335.887 19.9891 337.92 19.2782 340.632 19.2782V17.2782ZM351.014 31.0504C351.014 25.9425 350.103 22.4569 348.249 20.2495C346.355 17.9938 343.659 17.2782 340.632 17.2782V19.2782C343.366 19.2782 345.361 19.9196 346.717 21.5355C348.115 23.1997 349.014 26.1002 349.014 31.0504H351.014ZM414.274 31.0504C414.274 46.6552 405.683 55.796 396.738 65.2677L398.192 66.6409C407.1 57.2084 416.274 47.5372 416.274 31.0504H414.274ZM405.892 19.2782C408.626 19.2782 410.621 19.9196 411.978 21.5355C413.375 23.1997 414.274 26.1002 414.274 31.0504H416.274C416.274 25.9425 415.363 22.4569 413.51 20.2495C411.616 17.9938 408.919 17.2782 405.892 17.2782V19.2782ZM397.51 29.2942C397.51 25.4336 398.388 22.9704 399.775 21.472C401.147 19.9891 403.18 19.2782 405.892 19.2782V17.2782C402.843 17.2782 400.185 18.084 398.307 20.1135C396.443 22.1274 395.51 25.1722 395.51 29.2942H397.51ZM397.51 41.2681V29.2942H395.51V41.2681H397.51ZM379.392 42.2681H396.51V40.2681H379.392V42.2681ZM378.392 30.4118V41.2681H380.392V30.4118H378.392ZM406.386 1.31299C397.307 1.31299 390.262 3.92697 385.496 8.97013C380.739 14.0039 378.392 21.3098 378.392 30.4118H380.392C380.392 21.6327 382.654 14.8892 386.95 10.3438C391.236 5.80788 397.689 3.31299 406.386 3.31299V1.31299ZM434.38 30.4118C434.38 21.3098 432.033 14.0039 427.276 8.97012C422.51 3.92697 415.466 1.31299 406.386 1.31299V3.31299C415.083 3.31299 421.536 5.80788 425.823 10.3438C430.118 14.8892 432.38 21.6327 432.38 30.4118H434.38ZM411.778 75.3238C421.945 64.4683 434.38 51.2379 434.38 30.4118H432.38C432.38 50.3558 420.531 63.0528 410.318 73.9566L411.778 75.3238ZM398.333 96.9867C398.333 93.4201 399.8 89.9994 402.251 86.4414C404.708 82.8751 408.08 79.272 411.778 75.3238L410.318 73.9566C406.649 77.8742 403.163 81.5924 400.604 85.3068C398.04 89.0295 396.333 92.8492 396.333 96.9867H398.333ZM398.333 96.9869V96.9867H396.333V96.9869H398.333ZM398.477 99.1796C398.337 98.4974 398.333 97.801 398.333 96.9869H396.333C396.333 97.7692 396.33 98.6692 396.518 99.5835L398.477 99.1796ZM431.734 98.3815H397.498V100.382H431.734V98.3815ZM432.734 115.347V99.3815H430.734V115.347H432.734ZM379.392 116.347H431.734V114.347H379.392V116.347ZM378.392 101.617V115.347H380.392V101.617H378.392ZM396.738 65.2677C387.739 74.7965 378.392 84.6526 378.392 101.617H380.392C380.392 85.5311 389.162 76.2027 398.192 66.6409L396.738 65.2677Z" fill="#7676FF" mask="url(#path-2-outside-1_83_1110)"/>
</g>
<defs>
<filter id="filter0_b_83_1110" x="-49.8208" y="-49.7705" width="394.004" height="217.471" filterUnits="userSpaceOnUse" color-interpolation-filters="sRGB">
<feFlood flood-opacity="0" result="BackgroundImageFix"/>
<feGaussianBlur in="BackgroundImage" stdDeviation="25"/>
<feComposite in2="SourceAlpha" operator="in" result="effect1_backgroundBlur_83_1110"/>
<feBlend mode="normal" in="SourceGraphic" in2="effect1_backgroundBlur_83_1110" result="shape"/>
</filter>
<filter id="filter1_b_83_1110" x="263.132" y="-48.687" width="221.249" height="215.034" filterUnits="userSpaceOnUse" color-interpolation-filters="sRGB">
<feFlood flood-opacity="0" result="BackgroundImageFix"/>
<feGaussianBlur in="BackgroundImage" stdDeviation="25"/>
<feComposite in2="SourceAlpha" operator="in" result="effect1_backgroundBlur_83_1110"/>
<feBlend mode="normal" in="SourceGraphic" in2="effect1_backgroundBlur_83_1110" result="shape"/>
</filter>
</defs>
</svg>
