<svg width="217" height="93" viewBox="0 0 217 93" fill="none" xmlns="http://www.w3.org/2000/svg">
<path d="M216.023 18.4629C217.267 23.2078 215.588 28.5615 211.308 34.2275C207.033 39.8879 200.213 45.7865 191.346 51.5732C173.616 63.1435 147.797 74.203 118.095 81.9912C88.3924 89.7795 60.4694 92.8113 39.3432 91.4295C28.7773 90.7384 19.9406 88.9451 13.4376 86.111C6.92816 83.274 2.83823 79.433 1.59406 74.6881C0.349886 69.9431 2.0289 64.5894 6.30882 58.9234C10.5844 53.2631 17.4043 47.3644 26.2716 41.5778C44.0017 30.0075 69.8198 18.948 99.5223 11.1597C129.225 3.37144 157.148 0.339573 178.274 1.72139C188.84 2.41248 197.677 4.20583 204.18 7.03993C210.689 9.87689 214.779 13.7179 216.023 18.4629Z" stroke="#16A2AA"/>
</svg>
