<svg width="37" height="40" viewBox="0 0 37 40" fill="none" xmlns="http://www.w3.org/2000/svg">
<g clip-path="url(#clip0_15_385)">
<path fill-rule="evenodd" clip-rule="evenodd" d="M30.6268 4.94C30.4687 4.94 30.3107 4.9 30.1724 4.82C26.3799 2.84 23.1008 2 19.17 2C15.2589 2 11.5453 2.94 8.16751 4.82C7.69344 5.08 7.10084 4.9 6.8243 4.42C6.56751 3.94 6.74529 3.32 7.21936 3.06C10.8934 1.04 14.9231 0 19.17 0C23.3774 0 27.0515 0.94 31.0811 3.04C31.5749 3.3 31.7527 3.9 31.4959 4.38C31.3181 4.74 30.9823 4.94 30.6268 4.94ZM2.3601 15.44C2.16257 15.44 1.96504 15.38 1.78727 15.26C1.33294 14.94 1.23418 14.32 1.55023 13.86C3.50578 11.06 5.99467 8.86 8.95763 7.32C15.1601 4.08 23.1008 4.06 29.3231 7.3C32.286 8.84 34.7749 11.02 36.7305 13.8C37.0465 14.24 36.9478 14.88 36.4934 15.2C36.0391 15.52 35.4268 15.42 35.1107 14.96C33.3329 12.44 31.0811 10.46 28.4144 9.08C22.7453 6.14 15.4959 6.14 9.84652 9.1C7.1601 10.5 4.90825 12.5 3.13048 15.02C2.97245 15.3 2.67615 15.44 2.3601 15.44ZM14.7058 39.58C14.449 39.58 14.1922 39.48 14.0144 39.28C12.2959 37.54 11.3675 36.42 10.0441 34C8.68109 31.54 7.96998 28.54 7.96998 25.32C7.96998 19.38 12.9873 14.54 19.1502 14.54C25.3132 14.54 30.3305 19.38 30.3305 25.32C30.3305 25.88 29.8959 26.32 29.3428 26.32C28.7897 26.32 28.3552 25.88 28.3552 25.32C28.3552 20.48 24.2268 16.54 19.1502 16.54C14.0737 16.54 9.94529 20.48 9.94529 25.32C9.94529 28.2 10.5774 30.86 11.7823 33.02C13.0465 35.32 13.9157 36.3 15.4366 37.86C15.812 38.26 15.812 38.88 15.4366 39.28C15.2194 39.48 14.9626 39.58 14.7058 39.58ZM28.8687 35.88C26.5181 35.88 24.444 35.28 22.7453 34.1C19.8021 32.08 18.0441 28.8 18.0441 25.32C18.0441 24.76 18.4786 24.32 19.0317 24.32C19.5848 24.32 20.0194 24.76 20.0194 25.32C20.0194 28.14 21.4416 30.8 23.8515 32.44C25.2539 33.4 26.8934 33.86 28.8687 33.86C29.3428 33.86 30.1329 33.8 30.9231 33.66C31.4564 33.56 31.97 33.92 32.0687 34.48C32.1675 35.02 31.8119 35.54 31.2589 35.64C30.1329 35.86 29.1453 35.88 28.8687 35.88ZM24.8984 40C24.8194 40 24.7206 39.98 24.6416 39.96C21.5008 39.08 19.4465 37.9 17.2934 35.76C14.528 32.98 13.007 29.28 13.007 25.32C13.007 22.08 15.7329 19.44 19.091 19.44C22.449 19.44 25.1749 22.08 25.1749 25.32C25.1749 27.46 27.0119 29.2 29.2836 29.2C31.5552 29.2 33.3922 27.46 33.3922 25.32C33.3922 17.78 26.9724 11.66 19.0712 11.66C13.4613 11.66 8.32554 14.82 6.01442 19.72C5.24405 21.34 4.84899 23.24 4.84899 25.32C4.84899 26.88 4.98726 29.34 6.17245 32.54C6.36998 33.06 6.11319 33.64 5.59961 33.82C5.08603 34.02 4.51319 33.74 4.33541 33.24C3.36751 30.62 2.89344 28.02 2.89344 25.32C2.89344 22.92 3.34776 20.74 4.23665 18.84C6.86381 13.26 12.691 9.64 19.0712 9.64C28.0589 9.64 35.3675 16.66 35.3675 25.3C35.3675 28.54 32.6416 31.18 29.2836 31.18C25.9255 31.18 23.1996 28.54 23.1996 25.3C23.1996 23.16 21.3626 21.42 19.091 21.42C16.8194 21.42 14.9823 23.16 14.9823 25.3C14.9823 28.72 16.286 31.92 18.6762 34.32C20.5527 36.2 22.3502 37.24 25.1354 38.02C25.6687 38.16 25.965 38.72 25.8268 39.24C25.728 39.7 25.3132 40 24.8984 40Z" fill="#57BBCA"/>
</g>
<defs>
<clipPath id="clip0_15_385">
<rect width="35.5556" height="40" fill="white" transform="translate(0.492676)"/>
</clipPath>
</defs>
</svg>
