<svg width="26" height="26" viewBox="0 0 26 26" fill="none" xmlns="http://www.w3.org/2000/svg">
<g clip-path="url(#clip0_37_124)">
<path d="M23.6227 13.5173C23.3644 12.3949 22.4463 11.567 21.3413 11.4438C18.7251 11.1515 16.0759 11.1501 13.4396 11.1515C10.8022 11.1501 8.15353 11.1515 5.53655 11.4438C4.43208 11.5673 3.51454 12.3952 3.25648 13.5173C2.88869 15.1156 2.88428 16.8602 2.88428 18.5059C2.88428 20.1516 2.88428 21.896 3.25207 23.4942C3.51013 24.6164 4.42767 25.4443 5.53269 25.5678C8.14912 25.8603 10.7978 25.8614 13.4349 25.8603C16.0723 25.8617 18.7204 25.8603 21.3377 25.5678C22.4422 25.4443 23.3602 24.6164 23.6183 23.4942C23.9858 21.896 23.9877 20.1516 23.9877 18.5059C23.9875 16.86 23.9902 15.1156 23.6227 13.5173ZM8.90372 14.7561H7.37632V22.8722H5.95755V14.7561H4.45799V13.4266H8.90372V14.7561ZM12.7572 22.8725H11.481V22.1047C10.974 22.6859 10.4926 22.9693 10.0236 22.9693C9.61255 22.9693 9.32968 22.8028 9.20203 22.4463C9.13255 22.2334 9.08954 21.8965 9.08954 21.3997V15.8344H10.3647V21.0162C10.3647 21.3151 10.3647 21.4703 10.3763 21.5122C10.4069 21.7102 10.5036 21.8105 10.6746 21.8105C10.9304 21.8105 11.1979 21.6134 11.4807 21.2133V15.8344H12.757L12.7572 22.8725ZM17.6022 20.7601C17.6022 21.411 17.5583 21.88 17.4731 22.1783C17.3028 22.7019 16.9617 22.9693 16.4544 22.9693C16.0006 22.9693 15.5628 22.7173 15.1363 22.1907V22.8728H13.8611V13.4266H15.1363V16.5115C15.5482 16.0045 15.9854 15.7481 16.4544 15.7481C16.9617 15.7481 17.303 16.0152 17.4731 16.5421C17.5589 16.8252 17.6022 17.2906 17.6022 17.957V20.7601ZM22.4151 19.5859H19.8646V20.8334C19.8646 21.4849 20.0777 21.8102 20.5161 21.8102C20.8301 21.8102 21.0129 21.6396 21.0857 21.2988C21.0975 21.2296 21.1144 20.9462 21.1144 20.4348H22.4154V20.6208C22.4154 21.0319 22.3997 21.3151 22.3881 21.4424C22.3454 21.7248 22.245 21.9809 22.0904 22.2064C21.7372 22.7176 21.2139 22.9696 20.5478 22.9696C19.8806 22.9696 19.3727 22.7294 19.0041 22.2489C18.7337 21.8965 18.5947 21.3418 18.5947 20.5938V18.1288C18.5947 17.3764 18.7179 16.8261 18.989 16.4704C19.3573 15.9887 19.8649 15.7489 20.5164 15.7489C21.1563 15.7489 21.6636 15.9887 22.0209 16.4704C22.288 16.8261 22.4157 17.3764 22.4157 18.1288V19.5859H22.4151Z" fill="white"/>
<path d="M20.5047 16.8965C20.0784 16.8965 19.8647 17.2221 19.8647 17.8728V18.524H21.1399V17.8728C21.1396 17.2221 20.9265 16.8965 20.5047 16.8965Z" fill="white"/>
<path d="M15.7723 16.8965C15.5622 16.8965 15.3493 16.9957 15.1362 17.2067V21.4963C15.3491 21.7097 15.5622 21.8106 15.7723 21.8106C16.1401 21.8106 16.327 21.4963 16.327 20.8608V17.8568C16.327 17.2221 16.1401 16.8965 15.7723 16.8965Z" fill="white"/>
<path d="M16.4846 10.5025C16.9547 10.5025 17.4438 10.2168 17.9569 9.62905V10.4049H19.2458V3.29199H17.9569V8.72832C17.6712 9.13195 17.4005 9.33156 17.1427 9.33156C16.9701 9.33156 16.8687 9.22955 16.8405 9.02967C16.8248 8.98748 16.8248 8.83061 16.8248 8.52871V3.29199H15.54V8.91635C15.54 9.41869 15.583 9.75863 15.6542 9.97395C15.7838 10.3343 16.0697 10.5025 16.4846 10.5025Z" fill="white"/>
<path d="M7.51161 6.5393V10.4049H8.94086V6.5393L10.6601 0.860352H9.21491L8.23974 4.60855L7.22516 0.860352H5.72119C6.02254 1.74509 6.33601 2.63423 6.63735 3.51979C7.09585 4.85089 7.38203 5.85445 7.51161 6.5393Z" fill="white"/>
<path d="M12.5759 10.5026C13.2216 10.5026 13.7234 10.2597 14.0793 9.77443C14.3498 9.41849 14.4793 8.85771 14.4793 8.10173V5.61102C14.4793 4.85063 14.35 4.29481 14.0793 3.93557C13.7234 3.44895 13.2219 3.20605 12.5759 3.20605C11.9335 3.20605 11.432 3.44895 11.0752 3.93557C10.8015 4.29481 10.6719 4.85063 10.6719 5.61102V8.10173C10.6719 8.85771 10.8015 9.41849 11.0752 9.77443C11.4317 10.2597 11.9335 10.5026 12.5759 10.5026ZM11.9608 5.35269C11.9608 4.69458 12.1604 4.36649 12.5759 4.36649C12.9914 4.36649 13.1904 4.6943 13.1904 5.35269V8.34462C13.1904 9.00273 12.9914 9.33192 12.5759 9.33192C12.1604 9.33192 11.9608 9.00273 11.9608 8.34462V5.35269Z" fill="white"/>
</g>
<defs>
<clipPath id="clip0_37_124">
<rect width="25" height="25" fill="white" transform="translate(0.936035 0.860352)"/>
</clipPath>
</defs>
</svg>
