<svg width="61" height="61" viewBox="0 0 61 61" fill="none" xmlns="http://www.w3.org/2000/svg">
<g clip-path="url(#clip0_161_51)">
<path d="M47.9893 7.81408C43.1963 3.021 36.8235 0.381348 30.0452 0.381348C23.2668 0.381348 16.8939 3.021 12.1009 7.81408C7.30786 12.6073 4.66821 18.9799 4.66821 25.7582C4.66821 39.4705 17.6336 50.8758 24.5991 57.0031C25.5671 57.8545 26.403 58.5899 27.069 59.2119C27.9033 59.9913 28.9743 60.3811 30.0451 60.3811C31.116 60.3811 32.1868 59.9913 33.0213 59.2119C33.6872 58.5898 34.5231 57.8545 35.4911 57.0031C42.4566 50.8757 55.422 39.4705 55.422 25.7582C55.4219 18.9799 52.7824 12.6073 47.9893 7.81408ZM33.1696 54.3642C32.1804 55.2344 31.3263 55.9859 30.622 56.6437C30.2984 56.9456 29.7917 56.9458 29.468 56.6437C28.7638 55.9856 27.9095 55.2342 26.9204 54.3641C20.3719 48.6038 8.18267 37.8812 8.18267 25.7583C8.18267 13.7035 17.99 3.89615 30.0449 3.89615C42.0998 3.89615 51.9071 13.7035 51.9071 25.7583C51.9072 37.8812 39.7181 48.6038 33.1696 54.3642Z" fill="url(#paint0_linear_161_51)"/>
<path d="M30.0451 13.6162C23.8786 13.6162 18.8618 18.6329 18.8618 24.7994C18.8618 30.9659 23.8786 35.9826 30.0451 35.9826C36.2117 35.9826 41.2283 30.9659 41.2283 24.7994C41.2283 18.6329 36.2117 13.6162 30.0451 13.6162ZM30.0451 32.4678C25.8167 32.4678 22.3765 29.0277 22.3765 24.7993C22.3765 20.5709 25.8167 17.1308 30.0451 17.1308C34.2736 17.1308 37.7137 20.5709 37.7137 24.7993C37.7137 29.0277 34.2736 32.4678 30.0451 32.4678Z" fill="url(#paint1_linear_161_51)"/>
</g>
<defs>
<linearGradient id="paint0_linear_161_51" x1="23.5494" y1="45.73" x2="46.771" y2="39.0279" gradientUnits="userSpaceOnUse">
<stop offset="0.00472955" stop-color="#0E9199"/>
<stop offset="1" stop-color="#1DB3BC"/>
</linearGradient>
<linearGradient id="paint1_linear_161_51" x1="27.1825" y1="30.5211" x2="37.1124" y2="27.133" gradientUnits="userSpaceOnUse">
<stop offset="0.00472955" stop-color="#0E9199"/>
<stop offset="1" stop-color="#1DB3BC"/>
</linearGradient>
<clipPath id="clip0_161_51">
<rect width="60" height="60" fill="white" transform="translate(0.045166 0.381348)"/>
</clipPath>
</defs>
</svg>
