<svg width="25" height="25" viewBox="0 0 25 25" fill="none" xmlns="http://www.w3.org/2000/svg">
<g clip-path="url(#clip0_2127_86)">
<path fill-rule="evenodd" clip-rule="evenodd" d="M0.949387 3.92823C0 5.64601 0 7.93067 0 12.5C0 17.0693 0 19.354 0.949387 21.0718C1.64218 22.3253 2.67471 23.3578 3.92823 24.0506C5.64601 25 7.93067 25 12.5 25C17.0693 25 19.354 25 21.0718 24.0506C22.3253 23.3578 23.3578 22.3253 24.0506 21.0718C25 19.354 25 17.0693 25 12.5C25 7.93067 25 5.64601 24.0506 3.92823C23.3578 2.67471 22.3253 1.64218 21.0718 0.949387C19.354 0 17.0693 0 12.5 0C7.93067 0 5.64601 0 3.92823 0.949387C2.67471 1.64218 1.64218 2.67471 0.949387 3.92823ZM12.5009 6.5218C9.19918 6.5218 6.52262 9.19836 6.52262 12.5001C6.52262 15.8018 9.19918 18.4783 12.5009 18.4783C15.8026 18.4783 18.4791 15.8018 18.4791 12.5001C18.4791 9.19836 15.8026 6.5218 12.5009 6.5218ZM17.391 4.8906C17.391 3.99014 18.1209 3.26017 19.0214 3.26017C19.9219 3.26017 20.6518 3.99014 20.6518 4.8906C20.6518 5.79107 19.9219 6.52104 19.0214 6.52104C18.1209 6.52104 17.391 5.79107 17.391 4.8906ZM12.4998 7.93552C9.97849 7.93552 7.93457 9.97944 7.93457 12.5007C7.93457 15.022 9.97849 17.066 12.4998 17.066C15.0211 17.066 17.065 15.022 17.065 12.5007C17.065 9.97944 15.0211 7.93552 12.4998 7.93552Z" fill="white"/>
</g>
<defs>
<clipPath id="clip0_2127_86">
<rect width="25" height="25" fill="white"/>
</clipPath>
</defs>
</svg>
