<svg width="201" height="18" viewBox="0 0 201 18" fill="none" xmlns="http://www.w3.org/2000/svg">
<path d="M4.64592 0.887124H0.919922V16.9871H3.44992V10.9381H4.64592C7.17592 10.9381 8.41792 9.53512 8.41792 6.95912V4.86612C8.41792 2.29012 7.17592 0.887124 4.64592 0.887124ZM4.64592 3.18712C5.45092 3.18712 5.88792 3.55512 5.88792 4.70512V7.12012C5.88792 8.27012 5.45092 8.63812 4.64592 8.63812H3.44992V3.18712H4.64592Z" fill="#16A2AA"/>
<path d="M18.0281 16.9871C17.7751 16.3891 17.7521 15.8141 17.7521 15.0321V12.5481C17.7521 10.8691 17.3381 9.65013 16.0731 9.12113C17.2001 8.59212 17.7291 7.51112 17.7291 5.85512V4.59012C17.7291 2.10612 16.6021 0.887124 13.9801 0.887124H10.1621V16.9871H12.6921V10.4321H13.5661C14.7161 10.4321 15.2221 10.9841 15.2221 12.4791V15.0091C15.2221 16.3201 15.3141 16.5731 15.4521 16.9871H18.0281ZM13.9111 3.18712C14.8081 3.18712 15.1991 3.69312 15.1991 4.84312V6.43012C15.1991 7.71812 14.6241 8.13212 13.6811 8.13212H12.6921V3.18712H13.9111Z" fill="#16A2AA"/>
<path d="M22.1991 4.59012C22.1991 3.44012 22.7051 3.00312 23.5101 3.00312C24.3151 3.00312 24.8211 3.44012 24.8211 4.59012V13.2841C24.8211 14.4341 24.3151 14.8711 23.5101 14.8711C22.7051 14.8711 22.1991 14.4341 22.1991 13.2841V4.59012ZM19.6691 13.1231C19.6691 15.6991 21.0261 17.1711 23.5101 17.1711C25.9941 17.1711 27.3511 15.6991 27.3511 13.1231V4.75112C27.3511 2.17512 25.9941 0.703125 23.5101 0.703125C21.0261 0.703125 19.6691 2.17512 19.6691 4.75112V13.1231Z" fill="#16A2AA"/>
<path d="M37.3045 0.887124H33.4865V16.9871H37.4655C39.9955 16.9871 41.3065 15.6531 41.3065 13.1691V11.8581C41.3065 10.1561 40.7775 8.93712 39.4205 8.40812C40.5475 7.87912 41.0535 6.82112 41.0535 5.16512V4.59012C41.0535 2.10612 39.9265 0.887124 37.3045 0.887124ZM37.1435 9.74212C38.2935 9.74212 38.7765 10.2021 38.7765 11.6971V13.1001C38.7765 14.2961 38.3165 14.6871 37.4655 14.6871H36.0165V9.74212H37.1435ZM37.2355 3.18712C38.1325 3.18712 38.5235 3.69312 38.5235 4.84312V5.74012C38.5235 7.02812 37.9485 7.44212 37.0055 7.44212H36.0165V3.18712H37.2355Z" fill="#16A2AA"/>
<path d="M43.2902 16.9871H49.9832V14.6871H45.8202V0.887124H43.2902V16.9871Z" fill="#16A2AA"/>
<path d="M53.8672 4.59012C53.8672 3.44012 54.3732 3.00312 55.1782 3.00312C55.9832 3.00312 56.4892 3.44012 56.4892 4.59012V13.2841C56.4892 14.4341 55.9832 14.8711 55.1782 14.8711C54.3732 14.8711 53.8672 14.4341 53.8672 13.2841V4.59012ZM51.3372 13.1231C51.3372 15.6991 52.6942 17.1711 55.1782 17.1711C57.6622 17.1711 59.0192 15.6991 59.0192 13.1231V4.75112C59.0192 2.17512 57.6622 0.703125 55.1782 0.703125C52.6942 0.703125 51.3372 2.17512 51.3372 4.75112V13.1231Z" fill="#16A2AA"/>
<path d="M66.0683 10.9841V13.2841C66.0683 14.4341 65.5623 14.8481 64.7573 14.8481C63.9523 14.8481 63.4463 14.4341 63.4463 13.2841V4.59012C63.4463 3.44012 63.9523 3.00312 64.7573 3.00312C65.5623 3.00312 66.0683 3.44012 66.0683 4.59012V6.31512H68.4603V4.75112C68.4603 2.17512 67.1723 0.703125 64.6883 0.703125C62.2043 0.703125 60.9163 2.17512 60.9163 4.75112V13.1231C60.9163 15.6991 62.2043 17.1711 64.6883 17.1711C67.1723 17.1711 68.4603 15.6991 68.4603 13.1231V10.9841H66.0683Z" fill="#16A2AA"/>
<path d="M76.2284 16.9871H78.8274L75.3084 8.06313L78.8274 0.887124H76.2974L72.9854 7.90212V0.887124H70.4554V16.9871H72.9854V12.0421L73.7674 10.5701L76.2284 16.9871Z" fill="#16A2AA"/>
<path d="M85.2266 10.9841V13.2841C85.2266 14.4341 84.7206 14.8481 83.9156 14.8481C83.1106 14.8481 82.6046 14.4341 82.6046 13.2841V4.59012C82.6046 3.44012 83.1106 3.00312 83.9156 3.00312C84.7206 3.00312 85.2266 3.44012 85.2266 4.59012V6.31512H87.6186V4.75112C87.6186 2.17512 86.3306 0.703125 83.8466 0.703125C81.3626 0.703125 80.0746 2.17512 80.0746 4.75112V13.1231C80.0746 15.6991 81.3626 17.1711 83.8466 17.1711C86.3306 17.1711 87.6186 15.6991 87.6186 13.1231V10.9841H85.2266Z" fill="#16A2AA"/>
<path d="M92.1437 10.0871H95.0187V16.9871H97.5947V0.887124H95.0187V7.78712H92.1437V0.887124H89.6137V16.9871H92.1437V10.0871Z" fill="#16A2AA"/>
<path d="M105.501 0.887124H101.798L99.2221 16.9871H101.545L101.982 14.0661H105.087L105.524 16.9871H108.077L105.501 0.887124ZM103.523 3.73912L104.742 11.8811H102.304L103.523 3.73912Z" fill="#16A2AA"/>
<path d="M109.715 16.9871H112.245V0.887124H109.715V16.9871Z" fill="#16A2AA"/>
<path d="M119.96 16.9871H122.559V0.887124H120.305V10.5241L117.706 0.887124H114.532V16.9871H116.809V5.32612L119.96 16.9871Z" fill="#16A2AA"/>
<path d="M133.807 10.9841V13.2841C133.807 14.4341 133.301 14.8481 132.496 14.8481C131.691 14.8481 131.185 14.4341 131.185 13.2841V4.59012C131.185 3.44012 131.691 3.00312 132.496 3.00312C133.301 3.00312 133.807 3.44012 133.807 4.59012V6.31512H136.199V4.75112C136.199 2.17512 134.911 0.703125 132.427 0.703125C129.943 0.703125 128.655 2.17512 128.655 4.75112V13.1231C128.655 15.6991 129.943 17.1711 132.427 17.1711C134.911 17.1711 136.199 15.6991 136.199 13.1231V10.9841H133.807Z" fill="#16A2AA"/>
<path d="M140.517 4.59012C140.517 3.44012 141.023 3.00312 141.828 3.00312C142.633 3.00312 143.139 3.44012 143.139 4.59012V13.2841C143.139 14.4341 142.633 14.8711 141.828 14.8711C141.023 14.8711 140.517 14.4341 140.517 13.2841V4.59012ZM137.987 13.1231C137.987 15.6991 139.344 17.1711 141.828 17.1711C144.312 17.1711 145.669 15.6991 145.669 13.1231V4.75112C145.669 2.17512 144.312 0.703125 141.828 0.703125C139.344 0.703125 137.987 2.17512 137.987 4.75112V13.1231Z" fill="#16A2AA"/>
<path d="M153.178 16.9871H155.777V0.887124H153.523V10.5241L150.924 0.887124H147.75V16.9871H150.027V5.32612L153.178 16.9871Z" fill="#16A2AA"/>
<path d="M160.579 3.18712H164.742V0.887124H158.049V16.9871H160.579V10.3401H163.845V8.04012H160.579V3.18712Z" fill="#16A2AA"/>
<path d="M166.415 14.7561V16.9871H168.14V14.7561H166.415Z" fill="#16A2AA"/>
<path d="M180.388 16.9871V16.5041H174.983V0.887124H174.477V16.9871H180.388Z" fill="#16A2AA"/>
<path d="M182.597 0.887124V16.9871H183.103V0.887124H182.597Z" fill="#16A2AA"/>
<path d="M189.004 16.9871V1.37012H192.523V0.887124H184.979V1.37012H188.497V16.9871H189.004Z" fill="#16A2AA"/>
<path d="M194.961 8.59212V1.37012H200.596V0.887124H194.455V16.9871H200.596V16.5041H194.961V9.05212H199.699V8.59212H194.961Z" fill="#16A2AA"/>
</svg>
