<svg width="186" height="76" viewBox="0 0 186 76" fill="none" xmlns="http://www.w3.org/2000/svg">
<path d="M22.1699 5.84668H186L164.609 75.8467H0L22.1699 5.84668Z" fill="url(#paint0_linear_19_32)"/>
<path d="M141.197 0H175.585L171.095 14.6934H136.543L141.197 0Z" fill="#4040AF"/>
<path d="M82.2497 22.1224H79.0854V30.3958H80.9959V27.7956H82.2497C83.8975 27.7956 85.1752 26.5309 85.1752 24.959C85.1752 23.387 83.8975 22.1224 82.2497 22.1224L82.2497 22.1224ZM82.2497 26.0227H80.9959V23.8953H82.2497C82.8348 23.8953 83.2646 24.3563 83.2646 24.959C83.2646 25.5618 82.8348 26.0227 82.2497 26.0227ZM90.5244 30.3958H92.5782L90.7992 27.3583C91.7185 26.8973 92.3395 25.9754 92.3395 24.959C92.3395 23.387 91.0618 22.1224 89.4737 22.1224H86.1304V30.3958H88.0408V27.6774H88.9484L90.5244 30.3958H90.5244ZM88.0408 23.8953H89.4737C89.9991 23.8953 90.4289 24.3563 90.4289 24.959C90.4289 25.5618 89.9991 26.0227 89.4737 26.0227H88.0408V23.8953ZM97.3425 30.5612C99.7426 30.5612 101.689 28.6939 101.689 26.2591C101.689 23.8244 99.7426 21.9569 97.3425 21.9569C94.9425 21.9569 92.9962 23.8244 92.9962 26.2591C92.9962 28.6939 94.9425 30.5612 97.3425 30.5612ZM97.3425 28.7175C95.9813 28.7175 94.9067 27.7365 94.9067 26.2591C94.9067 24.7818 95.9813 23.8008 97.3425 23.8008C98.7038 23.8008 99.7784 24.7818 99.7784 26.2591C99.7784 27.7365 98.7038 28.7175 97.3425 28.7175ZM84.2676 40.584C84.7213 40.194 84.9961 39.6502 84.9961 38.9648C84.9961 37.5346 83.8139 36.6009 82.3572 36.6009H79.0854V44.8743H82.5959C84.0885 44.8743 85.2945 43.917 85.2945 42.4515C85.2945 41.6122 84.8886 40.974 84.2676 40.584V40.584ZM82.3572 38.3738C82.7989 38.3738 83.0855 38.6811 83.0855 39.1066C83.0855 39.5321 82.787 39.8394 82.3572 39.8394H80.9959V38.3737H82.3572V38.3738ZM82.5959 43.1015H80.9959V41.5177H82.5959C83.0735 41.5177 83.384 41.8486 83.384 42.3095C83.384 42.7705 83.0735 43.1015 82.5959 43.1015V43.1015ZM88.1602 43.0542V36.6009H86.2498V44.8743H91.1454V43.0542H88.1602V43.0542ZM95.4917 45.0397C97.8919 45.0397 99.8382 43.1724 99.8382 40.7376C99.8382 38.3029 97.8919 36.4354 95.4917 36.4354C93.0917 36.4354 91.1454 38.3029 91.1454 40.7376C91.1454 43.1724 93.0917 45.0397 95.4917 45.0397ZM95.4917 43.196C94.1305 43.196 93.056 42.215 93.056 40.7376C93.056 39.2603 94.1305 38.2793 95.4917 38.2793C96.853 38.2793 97.9276 39.2603 97.9276 40.7376C97.9276 42.215 96.853 43.196 95.4917 43.196V43.196ZM104.901 45.0397C106.429 45.0397 107.767 44.2952 108.483 43.1251L106.835 42.1795C106.477 42.8178 105.749 43.196 104.901 43.196C103.42 43.196 102.465 42.215 102.465 40.7376C102.465 39.2603 103.42 38.2793 104.901 38.2793C105.749 38.2793 106.465 38.6575 106.835 39.2956L108.483 38.3502C107.755 37.1801 106.418 36.4354 104.901 36.4354C102.382 36.4354 100.555 38.3029 100.555 40.7376C100.555 43.1724 102.382 45.0397 104.901 45.0397ZM116.137 44.8743L113.2 40.6312L116.018 36.601H113.845L111.289 40.194V36.601H109.379V44.8743H111.289V41.045L113.964 44.8743H116.137V44.8743ZM120.125 45.0397C121.654 45.0397 122.991 44.2952 123.707 43.1251L122.06 42.1795C121.701 42.8178 120.973 43.196 120.125 43.196C118.645 43.196 117.689 42.215 117.689 40.7376C117.689 39.2603 118.645 38.2793 120.125 38.2793C120.973 38.2793 121.689 38.6575 122.06 39.2956L123.707 38.3502C122.979 37.1801 121.642 36.4354 120.125 36.4354C117.606 36.4354 115.779 38.3029 115.779 40.7376C115.779 43.1724 117.606 45.0397 120.125 45.0397ZM129.14 36.6009V39.7684H126.513V36.6009H124.603V44.8743H126.513V41.5886H129.14V44.8743H131.051V36.6009H129.14ZM137.797 44.8743H139.887L137.045 36.6009H134.609L131.767 44.8743H133.857L134.275 43.5742H137.379L137.797 44.8743V44.8743ZM134.848 41.8013L135.827 38.7639L136.806 41.8013H134.848H134.848ZM140.603 36.6009V44.8743H142.514V36.6009H140.603ZM148.604 36.6009V41.0922L145.38 36.6009H143.947V44.8743H145.857V40.383L149.081 44.8743H150.514V36.6009H148.604V36.6009ZM87.4439 51.0794H85.5333L83.2647 54.7551L80.9959 51.0794H79.0855V59.3528H80.9959V54.5425L83.1572 58.0527H83.3722L85.5333 54.5425V59.3528H87.4439V51.0794V51.0794ZM90.7872 57.5327V56.0671H93.7725V54.2706H90.7872V52.8995H94.071V51.0794H88.8768V59.3528H94.1306V57.5327H90.7872V57.5327ZM98.5486 51.0794H95.2053V59.3528H98.5486C100.853 59.3528 102.608 57.5563 102.608 55.2161C102.608 52.8759 100.853 51.0794 98.5486 51.0794ZM98.5486 57.5327H97.1157V52.8995H98.5486C99.8621 52.8995 100.77 53.7978 100.77 55.2161C100.77 56.6344 99.8621 57.5327 98.5486 57.5327ZM103.683 51.0794V59.3528H105.594V51.0794H103.683V51.0794ZM112.34 59.3528H114.43L111.588 51.0794H109.152L106.31 59.3528H108.4L108.818 58.0527H111.922L112.34 59.3528ZM109.391 56.2798L110.37 53.2423L111.349 56.2798H109.391H109.391Z" fill="white"/>
<path d="M59.3912 21.9805C59.3991 21.9805 59.4059 21.9753 59.408 21.968C59.4176 21.9366 59.4341 21.8947 59.4347 21.8936C59.466 21.8172 59.51 21.7455 59.5636 21.6814C59.5653 21.6793 59.5994 21.6405 59.6272 21.6148C59.774 21.4759 59.9734 21.3953 60.1779 21.3921C60.1782 21.3921 60.1784 21.3921 60.1787 21.3921C60.1839 21.3921 60.1892 21.3916 60.1943 21.3921C60.1945 21.3921 60.1949 21.3921 60.195 21.3921C60.4526 21.3948 60.7023 21.5229 60.8508 21.7279C60.8687 21.7527 60.8901 21.7873 60.8932 21.793C60.9702 21.9226 61.0082 22.0755 61.0035 22.2243C61.0026 22.2465 61.016 22.2671 61.0371 22.2754C61.5145 22.466 66.6139 24.5005 67.4685 24.8415C67.5374 24.8688 67.6161 24.8527 67.6684 24.8006C67.8161 24.6518 68.0214 24.5584 68.2351 24.5563C68.2353 24.5563 68.2355 24.5563 68.2357 24.5563C68.2409 24.5563 68.2409 24.5563 68.2462 24.5563C68.2463 24.5563 68.2466 24.5563 68.2467 24.5563C68.5295 24.5588 68.8039 24.7174 68.9432 24.9643C68.9864 25.0408 69.0162 25.1239 69.0324 25.2091C69.0324 25.2102 69.0328 25.2111 69.0328 25.2118C69.0333 25.2169 69.0428 25.2716 69.0448 25.3166C69.0469 25.3719 69.0438 25.4282 69.0343 25.4835C69.0333 25.4896 69.0324 25.4958 69.0308 25.5025C69.0262 25.5283 69.0194 25.5532 69.0121 25.5785C69.0121 25.579 69.0118 25.5796 69.0118 25.5801C69.0096 25.5862 69.0009 25.6146 68.9931 25.6348C68.9689 25.6979 68.9358 25.7566 68.8963 25.8114C68.8529 25.8708 68.8493 25.9499 68.8874 26.0129C69.2786 26.6544 71.2443 29.876 71.6284 30.5055C71.6654 30.5663 71.7348 30.6002 71.8058 30.5924C71.835 30.5887 71.8653 30.5869 71.895 30.5869C71.895 30.5869 71.8956 30.5869 71.8961 30.5869C72.0776 30.5887 72.2566 30.6513 72.3949 30.7639C72.396 30.7643 72.3969 30.7648 72.3969 30.7654C72.3991 30.7669 72.4189 30.7833 72.4189 30.7833C72.4367 30.7988 72.4518 30.8138 72.4544 30.8163C72.4721 30.8336 72.4867 30.8501 72.4867 30.8501C72.4946 30.8587 72.4967 30.861 72.4967 30.861C72.5196 30.8875 72.5207 30.8897 72.527 30.8975C72.527 30.8976 72.527 30.8976 72.5274 30.8977C72.5332 30.906 72.5368 30.91 72.5467 30.9246C72.5467 30.9247 72.5472 30.925 72.5472 30.9251C72.5472 30.9252 72.5614 30.9449 72.5614 30.9449C72.5697 30.9582 72.5671 30.954 72.5739 30.9651C72.5739 30.9651 72.5739 30.9651 72.5739 30.9652C72.5759 30.9678 72.5953 30.9999 72.6094 31.0277C72.6103 31.0299 72.6219 31.054 72.6219 31.054C72.6365 31.0874 72.6386 31.0932 72.6386 31.0932C72.6479 31.1184 72.6558 31.1416 72.6563 31.1442C72.66 31.1544 72.6605 31.158 72.6605 31.158C72.6605 31.159 72.6683 31.1862 72.6683 31.1862C72.6714 31.1992 72.6751 31.2156 72.6751 31.2156C72.6782 31.2322 72.6825 31.2546 72.6825 31.2546C72.6845 31.268 72.6866 31.2846 72.6866 31.2846C72.6923 31.3345 72.6918 31.3446 72.6918 31.3446C72.6923 31.3526 72.6923 31.3609 72.6923 31.369C72.6929 31.3701 72.6929 31.3712 72.6929 31.3724C72.6929 31.376 72.6929 31.3852 72.6929 31.3886C72.6929 31.3898 72.6929 31.3909 72.6923 31.3918C72.6918 31.4235 72.6897 31.4551 72.6856 31.4867C72.6856 31.4875 72.6825 31.506 72.6825 31.5062C72.6746 31.5561 72.6772 31.536 72.672 31.5595L72.6667 31.5801C72.6662 31.5816 72.6657 31.5829 72.6657 31.5843C72.6641 31.5891 72.6605 31.6036 72.6589 31.6089C72.6578 31.6103 72.6578 31.6118 72.6574 31.6132C72.6521 31.6306 72.6449 31.65 72.6438 31.653C72.639 31.6653 72.6318 31.6835 72.6313 31.6849C72.6171 31.7178 72.6109 31.73 72.6094 31.733C72.6026 31.746 72.5931 31.7628 72.5901 31.7687C72.5895 31.7696 72.589 31.7706 72.5885 31.7716C72.5854 31.7766 72.5713 31.7993 72.5713 31.7994C72.5478 31.8368 72.553 31.8284 72.5383 31.8475C72.5383 31.8476 72.5238 31.868 72.5082 31.8865C72.5071 31.8875 72.5066 31.8885 72.5055 31.8896C72.5018 31.8935 72.4872 31.9098 72.4831 31.9154C72.4815 31.9172 72.4799 31.9188 72.4783 31.9204C72.4627 31.9367 72.4559 31.9429 72.4548 31.9443C72.4543 31.9443 72.4543 31.9444 72.4543 31.9445C72.4439 31.9544 72.434 31.964 72.4231 31.9735C72.4064 31.9881 72.4048 31.989 72.3969 31.9955C72.3839 32.006 72.3661 32.0191 72.3605 32.0231C72.3594 32.0239 72.3584 32.0247 72.3573 32.0254C72.3437 32.0349 72.2994 32.0636 72.2728 32.0779C72.2728 32.0779 72.2728 32.078 72.2722 32.078C72.2706 32.0789 72.2691 32.08 72.267 32.0809C72.2045 32.1142 72.1663 32.1807 72.1705 32.2513C72.2143 33.0736 72.4616 37.677 72.505 38.4865C72.5087 38.5559 72.5519 38.6173 72.6166 38.6445C72.651 38.6581 72.684 38.6749 72.7153 38.6939C72.7419 38.71 72.7142 38.6867 72.7868 38.743C72.7868 38.7431 72.804 38.757 72.804 38.757C72.8259 38.7753 72.8468 38.7946 72.8666 38.8151C72.8671 38.8153 72.8671 38.8157 72.8676 38.8158L72.8802 38.8289C72.9088 38.8609 72.911 38.8644 72.9214 38.8776C72.9224 38.879 72.9418 38.9055 72.9449 38.9105C72.9647 38.9388 72.9746 38.957 72.9767 38.9605C72.985 38.9752 72.996 38.996 72.996 38.996C73.009 39.0217 73.0122 39.0289 73.0122 39.0289C73.0185 39.0443 73.0215 39.0516 73.0263 39.0632L73.0289 39.0705C73.0294 39.0714 73.0299 39.0725 73.0305 39.0736C73.0509 39.1287 73.0649 39.1859 73.0717 39.2437V39.2438L73.0738 39.2625C73.0769 39.298 73.0774 39.3463 73.0774 39.3485C73.077 39.3682 73.0749 39.3942 73.0743 39.4032C73.0738 39.405 73.0738 39.4067 73.0738 39.4085C73.0727 39.4167 73.0718 39.4255 73.0711 39.4282C73.0711 39.4294 73.0711 39.4306 73.0711 39.4318C73.0629 39.4928 73.0477 39.5531 73.0247 39.61C73.0238 39.6117 73.0231 39.6135 73.0222 39.6153C73.019 39.6229 73.005 39.6559 73.0044 39.6561C73.0044 39.6562 73.0044 39.6564 73.0044 39.6566C73.0018 39.6618 73.0014 39.6632 72.9946 39.6762V39.6763C72.9946 39.6765 72.9512 39.7562 72.9016 39.8151C72.9005 39.8164 72.8996 39.8178 72.8985 39.819C72.8985 39.819 72.8817 39.8379 72.876 39.8439C72.8751 39.8455 72.8735 39.847 72.8719 39.8485C72.8661 39.8545 72.8645 39.8559 72.8645 39.8559C72.8463 39.8741 72.8281 39.8916 72.8082 39.9081C72.7962 39.9183 72.7957 39.9186 72.791 39.9227C72.7842 39.9276 72.7764 39.9334 72.7764 39.9335C72.7764 39.9335 72.7764 39.9336 72.7764 39.9337C72.7602 39.9455 72.7445 39.9566 72.7278 39.9671C72.7164 39.9742 72.7158 39.9745 72.7117 39.9769C72.6355 40.0223 72.6255 40.022 72.6052 40.0303C72.5082 40.0694 72.4033 40.0855 72.2994 40.0814C72.2285 40.0791 72.1632 40.1167 72.1304 40.1784C71.7682 40.8566 69.8234 44.5006 69.4504 45.1993C69.4154 45.2648 69.4237 45.3446 69.4717 45.4013C69.5328 45.4733 69.5835 45.5555 69.6184 45.646C69.6225 45.6562 69.6256 45.6664 69.6299 45.6766C69.646 45.7233 69.6586 45.7709 69.6674 45.8237C69.6674 45.8251 69.6679 45.8267 69.6679 45.8282C69.6684 45.8359 69.6731 45.8643 69.6731 45.8654C69.6835 45.9565 69.6794 46.0493 69.6627 46.1381C69.6622 46.1404 69.6616 46.1425 69.6611 46.1448C69.6564 46.1639 69.6319 46.2623 69.5991 46.3346C69.431 46.7037 68.9906 46.9321 68.5744 46.8368C68.4168 46.8008 68.2719 46.7203 68.1557 46.6095C68.1021 46.5589 68.023 46.5449 67.9551 46.5743C67.0669 46.9575 61.5262 49.3512 60.8004 49.6649C60.7554 49.6842 60.7248 49.7263 60.7202 49.7747C60.7202 49.7752 60.7201 49.7755 60.7201 49.7761C60.7201 49.7769 60.7184 49.7929 60.7178 49.7976C60.7178 49.7993 60.7174 49.801 60.7171 49.8025C60.7105 49.8523 60.698 49.9014 60.6792 49.9483C60.6785 49.9502 60.6778 49.9521 60.6768 49.9539C60.6747 49.9588 60.6672 49.9761 60.6637 49.984C60.6625 49.9869 60.6612 49.9897 60.6598 49.9924C60.6479 50.0157 60.6414 50.0277 60.6309 50.0448C60.6146 50.0711 60.5966 50.0963 60.5766 50.1201C60.5751 50.1217 60.5736 50.1235 60.5722 50.1252C60.5673 50.1304 60.5539 50.145 60.5483 50.1513C60.5464 50.1534 60.5443 50.1556 60.5422 50.1577C60.5271 50.1725 60.5076 50.1899 60.5013 50.1955C60.4997 50.1968 60.4983 50.1983 60.4967 50.1993C60.4834 50.2104 60.4777 50.2147 60.4687 50.2214C60.25 50.3823 59.923 50.3823 59.7045 50.2144C59.6895 50.2028 59.6706 50.1863 59.6639 50.1802C59.6623 50.1788 59.6608 50.1775 59.6593 50.1761C59.6487 50.1659 59.636 50.1533 59.6313 50.1484C59.6297 50.1467 59.6279 50.1449 59.6263 50.1431C59.5893 50.1023 59.5569 50.0577 59.531 50.0085C59.5285 50.0041 59.5158 49.9771 59.5123 49.9698C59.5117 49.9686 59.5112 49.9674 59.5106 49.966C59.5106 49.966 59.5106 49.966 59.5106 49.9659C59.5065 49.9564 59.497 49.9502 59.4866 49.9502C59.1452 49.9502 53.9433 49.9502 53.385 49.9502C53.3569 49.9502 53.3319 49.9682 53.3232 49.9946C53.3214 50.0004 53.2851 50.0978 53.2482 50.1617C53.1506 50.33 52.9954 50.4617 52.8155 50.5369C52.7477 50.5652 52.7036 50.6312 52.7036 50.7043C52.7029 51.6387 52.7029 57.3809 52.7029 58.2849C52.7029 58.3533 52.7414 58.4158 52.8026 58.447C52.8298 58.46 52.8559 58.4752 52.8804 58.4921C52.8804 58.4921 52.8805 58.4922 52.8806 58.4922C52.8829 58.4939 52.9076 58.5108 52.9289 58.5279C52.9307 58.5295 52.9325 58.5309 52.9342 58.5325C52.9423 58.5394 52.9716 58.5652 52.9716 58.5652C52.9797 58.5731 52.9881 58.5812 52.996 58.5894C52.9991 58.5928 52.9994 58.5928 53.0025 58.5962C53.0367 58.6328 53.0653 58.6702 53.0893 58.7092C53.0903 58.7109 53.0913 58.7126 53.0923 58.7143C53.0969 58.7223 53.115 58.7542 53.115 58.7542C53.1335 58.7904 53.1499 58.8279 53.1622 58.8663C53.1625 58.8667 53.1626 58.8672 53.1629 58.8677C53.1629 58.8677 53.1652 58.8754 53.1661 58.8787C53.1665 58.8797 53.1667 58.8808 53.1671 58.8818C53.1678 58.8842 53.169 58.889 53.1699 58.8913C53.1702 58.8924 53.1705 58.8935 53.1707 58.8946C53.1746 58.9092 53.1791 58.9277 53.1791 58.9277C53.1824 58.9426 53.1863 58.9629 53.1863 58.9629C53.1884 58.9763 53.1908 58.9939 53.1908 58.9939C53.1941 59.022 53.1951 59.0383 53.1951 59.0383C53.1962 59.055 53.1965 59.0741 53.1965 59.0756C53.1969 59.0984 53.1952 59.1294 53.1947 59.1377C53.1947 59.1387 53.1946 59.1399 53.1945 59.1411C53.1941 59.1463 53.1937 59.1497 53.1936 59.1517C53.1935 59.1534 53.1933 59.155 53.1931 59.1568C53.1889 59.1937 53.1871 59.2031 53.1844 59.2169C53.1789 59.2466 53.1715 59.2758 53.162 59.3046C53.1617 59.3061 53.1612 59.3074 53.1608 59.3087C53.1591 59.3134 53.1541 59.3277 53.1519 59.3336C53.1513 59.3356 53.1506 59.3375 53.1499 59.3393C53.1477 59.3447 53.1461 59.3488 53.1461 59.3488C53.146 59.3492 53.1459 59.3496 53.1458 59.3498C53.1266 59.3963 53.1184 59.411 53.1161 59.415C53.1157 59.4153 53.1153 59.4158 53.1151 59.4163C53.1066 59.4318 53.0947 59.452 53.0906 59.4589C53.0895 59.4608 53.0884 59.4626 53.0873 59.4644C53.0638 59.501 53.0378 59.5359 53.0084 59.5677C53.0067 59.5695 53.0051 59.5713 53.0031 59.5732C52.9968 59.5795 52.9762 59.6001 52.9686 59.6077C52.9665 59.6098 52.9642 59.6119 52.9621 59.6138C52.9536 59.6216 52.9435 59.6303 52.9405 59.6328C52.9397 59.6334 52.939 59.6341 52.9382 59.6348C52.9242 59.6463 52.9057 59.6603 52.9 59.6645C52.8988 59.6653 52.8977 59.6662 52.8965 59.667C52.879 59.6793 52.8693 59.6858 52.8549 59.6948C52.6116 59.8458 52.2756 59.8371 52.0402 59.6635C52.0394 59.663 52.0276 59.6542 52.0159 59.645C52.0046 59.6359 52.0084 59.6392 51.9991 59.6311L51.9814 59.6155C51.9801 59.6144 51.9789 59.6133 51.9776 59.6123C51.9717 59.6068 51.9701 59.6053 51.9701 59.6053C51.9573 59.593 51.941 59.576 51.9355 59.5703C51.9344 59.569 51.9332 59.5678 51.9321 59.5664C51.9026 59.5338 51.8755 59.4988 51.8525 59.4615C51.8514 59.4597 51.8504 59.458 51.8494 59.4562C51.8458 59.4502 51.834 59.4295 51.8288 59.4203C51.8271 59.4175 51.8257 59.4146 51.824 59.4115C51.8161 59.3953 51.807 59.376 51.8047 59.3708C51.8042 59.37 51.8038 59.3689 51.8035 59.368C51.8013 59.363 51.7963 59.3598 51.7909 59.3598C51.5084 59.3598 44.7606 59.3598 43.7719 59.3598C43.7026 59.3598 43.639 59.3985 43.6077 59.4597C43.5919 59.4921 43.5731 59.5235 43.552 59.5541C43.5492 59.5582 43.4719 59.6635 43.3851 59.7327C43.1421 59.9264 42.7861 59.9709 42.4993 59.8365C42.372 59.7766 42.2614 59.6848 42.1776 59.5711C42.1775 59.5709 42.1773 59.5708 42.1771 59.5705L42.1742 59.5666C42.1742 59.5664 42.1742 59.5664 42.1741 59.5664C42.0729 59.4255 42.018 59.2553 42.0191 59.0797C42.0194 59.0133 42.0279 58.947 42.0441 58.8827L42.0453 58.8779C42.0453 58.8775 42.0455 58.8773 42.0456 58.8771C42.1047 58.6521 42.2672 58.4603 42.4752 58.3512C42.5348 58.3201 42.5725 58.2593 42.5733 58.1926C42.5829 57.4462 42.6318 53.2837 42.6406 52.5356C42.6414 52.4701 42.6067 52.4094 42.5497 52.3763C42.5394 52.3706 42.5293 52.3645 42.5197 52.3581C42.5184 52.3575 42.5175 52.3567 42.5164 52.356C42.5143 52.3546 42.5064 52.3493 42.5027 52.3468C42.5011 52.3458 42.4997 52.3446 42.4982 52.3435C42.4793 52.3299 42.4609 52.3154 42.4435 52.3001C42.443 52.2997 42.4426 52.2994 42.4422 52.299C42.4404 52.2973 42.4321 52.2898 42.4253 52.2834C42.4087 52.2676 42.4225 52.2832 42.3875 52.2442C42.3745 52.2296 42.361 52.2124 42.3565 52.2064C42.3556 52.2052 42.3546 52.204 42.3537 52.2028C42.3395 52.1834 42.3257 52.1636 42.3135 52.1428C42.3134 52.1426 42.3134 52.1425 42.3133 52.1423C42.3133 52.1423 42.3081 52.1332 42.3063 52.1301C42.3057 52.1289 42.3051 52.1278 42.3045 52.1268C42.2843 52.0901 42.2674 52.0517 42.2547 52.0117C42.2544 52.0108 42.254 52.0097 42.2538 52.0087C42.2534 52.0076 42.2492 51.9936 42.2476 51.9881C42.2473 51.9865 42.2468 51.9851 42.2464 51.9835C42.2456 51.9803 42.2448 51.9779 42.2445 51.9762C42.2439 51.9745 42.2435 51.9728 42.2431 51.971C42.2321 51.9241 42.2251 51.8765 42.2242 51.8298C42.2242 51.829 42.2242 51.8281 42.2242 51.8274C42.2242 51.8208 42.2244 51.7792 42.2275 51.7487C42.229 51.7338 42.231 51.7191 42.2336 51.7044C42.237 51.6844 42.2438 51.6568 42.2438 51.6568V51.6567C42.2529 51.6231 42.2496 51.6351 42.2513 51.6296C42.2513 51.6296 42.2601 51.602 42.2614 51.5989C42.2654 51.5874 42.2714 51.5726 42.2735 51.5674C42.2742 51.5659 42.2748 51.5644 42.2754 51.563C42.2845 51.5424 42.2977 51.5163 42.3018 51.5083C42.3027 51.5069 42.3034 51.5054 42.3042 51.5039C42.3101 51.4933 42.3068 51.4988 42.3132 51.488C42.3134 51.4877 42.3138 51.4871 42.3141 51.4866C42.3181 51.4802 42.3349 51.4531 42.3497 51.4331C42.3509 51.4312 42.3524 51.4293 42.3537 51.4276C42.3581 51.4221 42.3707 51.4062 42.3762 51.3992C42.378 51.3972 42.3796 51.3951 42.3815 51.393C42.3855 51.3886 42.3926 51.3807 42.3958 51.3769C42.397 51.3757 42.3981 51.3745 42.3991 51.3733C42.4065 51.3654 42.4142 51.3577 42.4218 51.3503C42.4362 51.3362 42.4379 51.3351 42.4453 51.3286C42.4579 51.3175 42.4755 51.3038 42.4803 51.2999C42.4817 51.2988 42.4833 51.2978 42.4847 51.2966C42.507 51.2801 42.5301 51.2651 42.5544 51.2515C42.6115 51.2192 42.647 51.1589 42.6467 51.0935C42.6454 50.106 42.63 43.0347 42.628 42.1076C42.628 42.0499 42.6001 41.9956 42.5531 41.9613C42.5148 41.9331 42.4799 41.8995 42.4499 41.8608C42.4246 41.8278 42.4027 41.7921 42.3857 41.7543C42.3849 41.7523 42.384 41.7505 42.3833 41.7486C42.3816 41.7446 42.3757 41.73 42.3728 41.7229C42.3716 41.7202 42.3706 41.7174 42.3696 41.7147C42.3684 41.7108 42.3671 41.7074 42.3664 41.7054C42.3657 41.7039 42.3653 41.7023 42.3648 41.7006C42.36 41.686 42.3552 41.6679 42.3531 41.6597C42.3525 41.6572 42.3518 41.6546 42.3513 41.6519C42.3491 41.6416 42.3468 41.63 42.346 41.6252C42.3456 41.6231 42.3453 41.6212 42.3449 41.6192C42.3416 41.5976 42.3394 41.5707 42.3393 41.5684C42.3363 41.5224 42.337 41.4957 42.3456 41.4452C42.3472 41.4353 42.3499 41.4225 42.3513 41.4163C42.3518 41.4141 42.3523 41.4118 42.3529 41.4096C42.3568 41.3949 42.3621 41.3766 42.3638 41.3709C42.3645 41.3686 42.3652 41.3664 42.366 41.364C42.3743 41.3402 42.3821 41.322 42.3821 41.322C42.3823 41.3219 42.3823 41.3218 42.3824 41.3216C42.4208 41.2369 42.4813 41.1631 42.5556 41.1076C42.601 41.073 42.6275 41.0199 42.6277 40.9633C42.6302 40.0761 42.6458 33.4533 42.6474 32.8127C42.6475 32.7838 42.6297 32.7575 42.6024 32.7467C42.6021 32.7466 42.6016 32.7464 42.6011 32.7463C42.5971 32.7447 42.5931 32.743 42.5892 32.7413C42.5892 32.7413 42.5889 32.7413 42.5889 32.7411C42.5099 32.7072 42.4363 32.6598 42.3741 32.6012C42.373 32.6004 42.3721 32.5993 42.3708 32.5984C42.3687 32.5961 42.3533 32.581 42.3478 32.5757C42.3464 32.5743 42.3449 32.5726 42.3435 32.5711C42.3116 32.5373 42.2825 32.501 42.2578 32.4623C42.2571 32.4613 42.2562 32.4602 42.2556 32.459C42.2529 32.4545 42.2401 32.4337 42.2401 32.4337C42.2318 32.4194 42.2359 32.4267 42.2288 32.4136C42.2288 32.4136 42.2089 32.3772 42.1936 32.3384C42.1935 32.3381 42.1931 32.3376 42.1931 32.3372C42.1931 32.3371 42.187 32.3214 42.1855 32.3175C42.1852 32.3167 42.1849 32.3157 42.1846 32.3149C42.1793 32.3005 42.1736 32.2822 42.1736 32.282C42.1652 32.2533 42.1695 32.269 42.165 32.2516C42.165 32.2516 42.1538 32.2073 42.1482 32.1658C42.1479 32.1641 42.1477 32.1625 42.1475 32.1606C42.1471 32.1567 42.1454 32.1422 42.1448 32.1363C42.1445 32.1344 42.1444 32.1323 42.1443 32.1305C42.1415 32.0947 42.1409 32.0588 42.1431 32.023C42.1431 32.0224 42.1431 32.0216 42.1432 32.0209C42.1437 32.015 42.1467 31.9773 42.1523 31.9437C42.1529 31.9412 42.1534 31.9388 42.1539 31.9365C42.1559 31.9262 42.1638 31.8904 42.1638 31.8904C42.1638 31.8903 42.1638 31.8902 42.1638 31.8902C42.174 31.8523 42.1704 31.8658 42.1723 31.8597C42.1723 31.8597 42.1774 31.8437 42.1786 31.8396C42.1789 31.8388 42.1792 31.8378 42.1794 31.837C42.1833 31.8258 42.1883 31.8124 42.1904 31.807C42.191 31.8053 42.1916 31.8038 42.1922 31.8021C42.2002 31.7831 42.2101 31.7606 42.2107 31.7596C42.2185 31.7428 42.2307 31.7202 42.2307 31.7201C42.2387 31.7056 42.2344 31.7132 42.2421 31.7001L42.2519 31.684C42.2531 31.6822 42.2543 31.6802 42.2556 31.6782C42.2662 31.662 42.2801 31.6426 42.2844 31.6364C42.2856 31.6347 42.2867 31.633 42.2879 31.6316C42.3598 31.537 42.4548 31.4586 42.5635 31.4074C42.5637 31.4073 42.5641 31.4071 42.5645 31.407C42.6163 31.3833 42.6497 31.3317 42.6497 31.2752C42.6502 30.3897 42.654 23.7891 42.6545 22.851C42.6545 22.7891 42.622 22.7302 42.5685 22.6971C42.5652 22.6951 42.5619 22.693 42.5587 22.6909C42.5587 22.6909 42.5585 22.6909 42.5583 22.6909C42.5559 22.6888 42.521 22.6656 42.4932 22.6424C42.4932 22.6424 42.4661 22.6191 42.4428 22.5934C42.4427 22.5934 42.4425 22.5934 42.4423 22.5927C42.4423 22.5927 42.4368 22.5866 42.4342 22.584C42.4334 22.583 42.4325 22.5819 42.4317 22.5809C42.4201 22.5674 42.4127 22.5587 42.4022 22.5443C42.4019 22.5437 42.4019 22.5437 42.4019 22.5437C42.4016 22.5437 42.3965 22.5365 42.3944 22.5339C42.3935 22.5324 42.3927 22.5313 42.3918 22.5302C42.3823 22.5158 42.3803 22.5127 42.3757 22.5055C42.3665 22.4905 42.3553 22.4699 42.3513 22.4621C42.3502 22.46 42.3492 22.4574 42.348 22.4553C42.3298 22.4171 42.3146 22.3779 42.3048 22.3371C42.3045 22.3355 42.2977 22.3019 42.2952 22.2891C42.2945 22.2854 42.2939 22.2818 42.2935 22.2782C42.2899 22.2513 42.2882 22.2168 42.2882 22.2168C42.2876 22.1785 42.2881 22.1785 42.2887 22.1671C42.2895 22.1516 42.2916 22.1336 42.2917 22.131C42.2938 22.114 42.2954 22.1036 42.2985 22.0876C42.3003 22.0772 42.2957 22.0927 42.3066 22.051C42.3167 22.0132 42.3303 21.9755 42.3478 21.9404C42.348 21.9404 42.3481 21.9399 42.3483 21.9399C42.3502 21.9357 42.3647 21.9079 42.3792 21.8846C42.3802 21.883 42.381 21.8821 42.382 21.881C42.3842 21.8779 42.3934 21.8639 42.3962 21.8598C42.3978 21.8577 42.3991 21.8557 42.4005 21.8536C42.4226 21.8237 42.4361 21.8087 42.4514 21.7927C42.453 21.7911 42.4548 21.79 42.4565 21.7885C42.4625 21.7824 42.478 21.7679 42.4842 21.7616C42.4866 21.7591 42.489 21.7571 42.4913 21.7549C42.5099 21.7399 42.5343 21.7214 42.5345 21.7214C42.5349 21.7208 42.5357 21.7204 42.5363 21.7199C42.5611 21.7022 42.5654 21.7007 42.5765 21.694C42.6668 21.6402 42.772 21.6119 42.8768 21.6108C42.8771 21.6108 42.8772 21.6108 42.8773 21.6108C42.8814 21.6108 42.8814 21.6108 42.8854 21.6108C42.8855 21.6108 42.8857 21.6108 42.8858 21.6108C42.9971 21.6119 43.1085 21.6433 43.2022 21.7038C43.203 21.7043 43.2039 21.7049 43.2047 21.7054C43.2093 21.7085 43.2374 21.7276 43.2557 21.7426H43.2559C43.2719 21.7549 43.293 21.7751 43.293 21.7751C43.3189 21.7999 43.3427 21.8272 43.3642 21.8568C43.3655 21.8583 43.3667 21.8604 43.3681 21.8624C43.3723 21.8686 43.3849 21.8872 43.3849 21.8872C43.3917 21.8985 43.4009 21.9146 43.4009 21.9146C43.4054 21.9218 43.4061 21.9238 43.4061 21.9238C43.4244 21.9585 43.4608 21.9802 43.5004 21.9802C44.2092 21.9802 50.2436 21.9802 50.775 21.9802C50.797 21.9802 50.8165 21.9672 50.8242 21.9466C50.8247 21.945 50.852 21.8821 50.8541 21.8789C50.8581 21.8707 50.8635 21.8604 50.8653 21.8572C50.8656 21.8568 50.8659 21.8557 50.8663 21.8552C50.8734 21.8418 50.8694 21.849 50.877 21.836C50.8771 21.836 50.8771 21.836 50.8773 21.8355C50.8798 21.8319 50.8992 21.7999 50.9174 21.7751C50.9188 21.7735 50.92 21.772 50.9213 21.7699C50.926 21.7643 50.9405 21.7462 50.9468 21.7385C50.9483 21.7363 50.95 21.7343 50.9519 21.7323C50.956 21.7276 50.9645 21.7178 50.9681 21.7137C50.9692 21.7121 50.9706 21.711 50.9719 21.7095C50.9811 21.7002 50.9927 21.6884 50.9959 21.6852C50.9967 21.6848 50.9976 21.6837 50.9984 21.6827C51.0158 21.6662 51.0399 21.646 51.047 21.6403C51.0482 21.6393 51.0494 21.6382 51.0506 21.6373C51.0763 21.6165 51.0998 21.6006 51.1313 21.5815C51.1353 21.5788 51.1353 21.5788 51.1393 21.5768C51.248 21.5143 51.3737 21.4812 51.4989 21.4796C51.499 21.4796 51.4992 21.4796 51.4994 21.4796C51.5024 21.4796 51.5055 21.4796 51.5086 21.4796C51.5089 21.4796 51.5093 21.4796 51.5097 21.4796C51.6804 21.4818 51.8496 21.5437 51.9785 21.6548H51.9787C51.98 21.6563 52.0037 21.6765 52.0235 21.6966C52.0247 21.6982 52.0258 21.6991 52.027 21.7007C52.0314 21.7049 52.0524 21.7276 52.0524 21.7276C52.0655 21.743 52.0825 21.7643 52.0825 21.7643C52.1008 21.7885 52.0945 21.7808 52.098 21.786L52.11 21.803C52.1161 21.8118 52.1173 21.8138 52.1173 21.8138C52.1173 21.8138 52.1201 21.8185 52.1214 21.8206C52.1223 21.8221 52.1229 21.8232 52.1235 21.8242C52.1387 21.849 52.154 21.879 52.154 21.879C52.168 21.9074 52.1762 21.9254 52.1856 21.9513H52.1857C52.192 21.9684 52.209 21.9802 52.2277 21.9802C52.7341 21.9802 59.0616 21.9802 59.3914 21.9802L59.3912 21.9805ZM42.9981 59.7754C42.9978 59.7755 42.9973 59.7755 42.9969 59.7756C42.996 59.7757 42.9935 59.7762 42.9935 59.7762C42.9949 59.776 42.9963 59.7758 42.9975 59.7755C42.9987 59.7753 43 59.775 43.0013 59.7748C43.0013 59.7748 42.9991 59.7751 42.9982 59.7754H42.9981ZM52.6917 59.6343L52.6909 59.6347L52.6917 59.6343ZM52.6969 59.6323C52.6966 59.6324 52.6961 59.6326 52.6958 59.6328C52.6949 59.633 52.6935 59.6336 52.6935 59.6336C52.6943 59.6332 52.6953 59.6329 52.6963 59.6325C52.6974 59.6322 52.6982 59.6318 52.6992 59.6314C52.6992 59.6314 52.6977 59.6321 52.6969 59.6323H52.6969ZM52.7013 59.6305L52.7004 59.6309L52.7013 59.6305ZM52.0576 59.5117C52.0576 59.5117 52.0578 59.5118 52.0579 59.5118L52.0576 59.5116C52.0576 59.5116 52.0576 59.5116 52.0576 59.5117ZM52.0517 59.5059C52.0525 59.5067 52.0532 59.5074 52.0538 59.5081C52.0545 59.5088 52.0552 59.5094 52.056 59.5101C52.056 59.5101 52.0548 59.5091 52.0542 59.5085C52.0539 59.5082 52.0537 59.508 52.0534 59.5077C52.0528 59.507 52.0517 59.5059 52.0517 59.5059L52.0517 59.5059ZM52.0503 59.5046L52.0507 59.505L52.05 59.5044C52.05 59.5044 52.0502 59.5045 52.0503 59.5046L52.0503 59.5046ZM42.2166 59.3871C42.217 59.3882 42.2175 59.3892 42.218 59.3902C42.2186 59.3913 42.2191 59.3925 42.2196 59.3937C42.2196 59.3937 42.2188 59.3916 42.2183 59.3907C42.2182 59.3904 42.218 59.3901 42.2178 59.3897C42.2175 59.3889 42.2166 59.3871 42.2166 59.3871L42.2166 59.3871ZM42.2156 59.3854C42.2158 59.3855 42.216 59.3858 42.216 59.3859L42.2151 59.3839C42.2151 59.3839 42.2155 59.3849 42.2156 59.3854L42.2156 59.3854ZM53.0613 59.1724L53.0612 59.1733L53.0613 59.1724ZM53.062 59.1673C53.0619 59.1678 53.0619 59.1682 53.0618 59.1685C53.0617 59.1694 53.0614 59.1709 53.0614 59.1709C53.0616 59.1699 53.0618 59.1689 53.0619 59.168C53.062 59.1668 53.0622 59.1659 53.0622 59.1648C53.0622 59.1648 53.0621 59.1665 53.062 59.1673V59.1673ZM47.4289 56.3349C47.413 56.3214 47.39 56.3198 47.3723 56.3312C47.0467 56.5411 44.2078 58.3709 43.7024 58.6968C43.6592 58.7247 43.6403 58.7777 43.6563 58.826C43.6565 58.826 43.6565 58.826 43.6565 58.826C43.6713 58.8704 43.7131 58.9004 43.7603 58.9004C44.5876 58.9005 51.3358 58.9005 51.7498 58.9005C51.7615 58.9005 51.7716 58.8928 51.7746 58.8816C51.7748 58.8808 51.7751 58.8799 51.7753 58.8792C51.7767 58.8744 51.778 58.8704 51.7786 58.8688L51.7791 58.8669C51.784 58.8518 51.7787 58.835 51.7656 58.8256C51.4915 58.6275 48.773 56.6624 48.3894 56.3853C48.3637 56.3667 48.3289 56.3661 48.3025 56.3838C48.3024 56.384 48.3023 56.3841 48.3022 56.3841C48.3006 56.385 48.271 56.4048 48.2421 56.4208C48.2408 56.4215 48.2394 56.4222 48.2381 56.4228C48.231 56.4264 48.2024 56.4411 48.1795 56.4509C48.1778 56.4516 48.1759 56.4525 48.1741 56.4532C48.1598 56.4587 48.0947 56.4834 48.0334 56.4952C47.8219 56.5355 47.5932 56.4754 47.4289 56.3349V56.3349ZM42.2235 58.7694C42.2235 58.7696 42.2234 58.7698 42.2234 58.7699C42.2231 58.7703 42.2226 58.7712 42.2226 58.7712L42.2235 58.7694V58.7694ZM42.2275 58.762C42.2268 58.7631 42.2263 58.7642 42.2257 58.7652C42.2252 58.7663 42.2246 58.7673 42.2241 58.7684C42.2241 58.7684 42.2249 58.7666 42.2254 58.7657C42.2255 58.7654 42.2258 58.765 42.2259 58.7646C42.2264 58.7638 42.2275 58.762 42.2275 58.762L42.2275 58.762ZM42.2287 58.7596C42.2286 58.7597 42.2285 58.7601 42.2283 58.7603L42.2287 58.7594V58.7596ZM52.7191 58.548C52.7195 58.5481 52.7199 58.5484 52.7202 58.5485C52.7211 58.5488 52.7225 58.5496 52.7225 58.5496C52.7216 58.5491 52.7206 58.5487 52.7196 58.5482C52.7186 58.5478 52.7177 58.5474 52.7167 58.5469C52.7167 58.5469 52.7181 58.5477 52.7191 58.548H52.7191ZM52.7136 58.5455L52.7161 58.5467C52.7153 58.5462 52.7145 58.5459 52.7136 58.5455ZM52.7104 58.5441L52.7125 58.545C52.7118 58.5447 52.711 58.5444 52.7104 58.5441ZM52.7085 58.5433H52.7086H52.7085ZM52.1816 50.5595C52.1476 50.548 52.1098 50.5595 52.0885 50.5881C51.7291 51.0676 48.8801 54.8673 48.5229 55.3439C48.5014 55.3723 48.4994 55.4106 48.5172 55.4413V55.4414L48.5278 55.46C48.5353 55.4742 48.5453 55.4938 48.5453 55.4938C48.5523 55.5086 48.5611 55.5295 48.5611 55.5295C48.5676 55.5452 48.5754 55.5668 48.5754 55.5668C48.5781 55.5749 48.581 55.5833 48.5834 55.5915C48.5982 55.6392 48.5964 55.6378 48.5999 55.6557C48.6053 55.681 48.6062 55.6891 48.6082 55.7035C48.6101 55.7172 48.6118 55.7352 48.6118 55.7352C48.6152 55.7784 48.6152 55.8221 48.6112 55.8656C48.6051 55.9293 48.6334 55.9915 48.6856 56.0292C49.2101 56.4097 51.8571 58.323 52.0642 58.4727C52.0718 58.4782 52.0823 58.4786 52.0903 58.4736C52.0906 58.4733 52.0909 58.4732 52.0914 58.473C52.1069 58.4634 52.1229 58.4546 52.1391 58.4463C52.1999 58.4151 52.2382 58.3529 52.2382 58.2849C52.2387 57.355 52.2387 51.3161 52.2387 50.6387C52.2387 50.603 52.2157 50.5711 52.1816 50.5594C52.1816 50.5595 52.1816 50.5595 52.1815 50.5595H52.1816ZM43.2736 52.401C43.2481 52.381 43.213 52.3776 43.184 52.3925C43.184 52.3925 43.1655 52.4021 43.1446 52.4112L43.1438 52.4115C43.1209 52.4211 43.1059 52.4432 43.1055 52.4679C43.0999 52.9427 43.0488 57.3102 43.039 58.1387C43.0381 58.2153 43.0855 58.2841 43.1577 58.3113C43.1835 58.3196 43.2082 58.3304 43.2324 58.3423C43.2907 58.3714 43.3602 58.3678 43.415 58.3324C43.9644 57.9797 46.7621 56.1762 47.1437 55.9302C47.1703 55.9133 47.1852 55.8834 47.183 55.8522C47.183 55.8517 47.1818 55.831 47.1814 55.8243C47.1813 55.8224 47.1812 55.8207 47.1812 55.819C47.1808 55.8002 47.1813 55.7766 47.1815 55.7695C47.1815 55.7679 47.1816 55.7665 47.1816 55.765C47.1826 55.7497 47.1839 55.7329 47.1843 55.7305C47.1856 55.7152 47.1886 55.6948 47.1895 55.6887C47.1898 55.6874 47.1899 55.6862 47.1901 55.6848C47.1921 55.6728 47.195 55.658 47.196 55.6533C47.1962 55.6525 47.1963 55.6516 47.1966 55.6507C47.1976 55.6461 47.1982 55.6429 47.1986 55.641C47.199 55.6392 47.1994 55.6377 47.1998 55.636C47.2043 55.6184 47.2105 55.596 47.2105 55.596C47.2258 55.5469 47.2208 55.5638 47.2273 55.5467C47.2282 55.5445 47.2359 55.5258 47.2383 55.5201C47.2387 55.519 47.2392 55.5179 47.2397 55.5168C47.2401 55.5159 47.2398 55.5148 47.2391 55.5143C47.1619 55.4535 43.7046 52.7394 43.2736 52.401L43.2736 52.401ZM48.1187 56.3377L48.1179 56.3381L48.1187 56.3377ZM48.1237 56.3357C48.1233 56.3359 48.1231 56.336 48.1227 56.336C48.1219 56.3365 48.1203 56.3371 48.1203 56.3371C48.1214 56.3368 48.1222 56.3364 48.1232 56.336C48.1241 56.3354 48.1251 56.3351 48.126 56.3347C48.126 56.3347 48.1246 56.3353 48.1237 56.3357H48.1237ZM48.1282 56.3339L48.1272 56.3342L48.1282 56.3339ZM48.4797 55.8805L48.4796 55.8814L48.4797 55.8805ZM48.4806 55.8757C48.4805 55.876 48.4805 55.8764 48.4805 55.8767C48.4803 55.8776 48.48 55.8791 48.48 55.8791C48.4802 55.8782 48.4803 55.8771 48.4805 55.8761C48.4806 55.8752 48.4808 55.874 48.4809 55.873C48.4809 55.873 48.4807 55.8747 48.4806 55.8757ZM47.3203 55.6889C47.3202 55.6891 47.3202 55.6892 47.3202 55.6895C47.3201 55.6899 47.3201 55.6901 47.3201 55.6901L47.3203 55.6889V55.6889ZM47.3217 55.6816C47.3217 55.6827 47.3213 55.6837 47.321 55.6847C47.3209 55.6858 47.3207 55.6868 47.3206 55.6877C47.3206 55.6877 47.3208 55.6863 47.3209 55.6854C47.321 55.6851 47.3212 55.6847 47.3212 55.6843C47.3214 55.6833 47.3216 55.6816 47.3216 55.6816H47.3217ZM48.2485 44.9179C48.2026 44.8619 48.1274 44.8378 48.057 44.8568C47.955 44.8852 47.8469 44.8929 47.7409 44.8795C47.6706 44.8707 47.6016 44.9029 47.5633 44.9619C47.0343 45.7798 43.5698 51.1412 43.4018 51.4011C43.3982 51.4068 43.3984 51.4145 43.4027 51.4199C43.4027 51.42 43.4027 51.42 43.4027 51.42C43.4028 51.4201 43.4028 51.4203 43.403 51.4205C43.4045 51.4224 43.414 51.4351 43.414 51.4351C43.4201 51.4436 43.4211 51.4449 43.4211 51.4449C43.438 51.4693 43.4408 51.4746 43.4491 51.4883C43.4583 51.504 43.4697 51.5263 43.4697 51.5263C43.4799 51.5471 43.4925 51.5768 43.4925 51.5768C43.4986 51.5926 43.5061 51.6144 43.5061 51.6144C43.5129 51.6364 43.5194 51.6582 43.5239 51.6807C43.5242 51.6822 43.5246 51.6839 43.5249 51.6855C43.526 51.6914 43.531 51.7198 43.531 51.7198C43.5344 51.7424 43.5367 51.7653 43.5375 51.788C43.5376 51.7889 43.5376 51.7896 43.5376 51.7904C43.5378 51.7932 43.5381 51.8154 43.5381 51.8154C43.5381 51.8161 43.5381 51.8168 43.5381 51.8175C43.5374 51.8663 43.5362 51.8697 43.5339 51.8895C43.5328 51.8995 43.5308 51.9125 43.5302 51.9164C43.5301 51.9173 43.5299 51.9183 43.5296 51.9195C43.5278 51.931 43.5249 51.9449 43.5242 51.9485C43.5242 51.9496 43.5238 51.9505 43.5235 51.9514C43.517 51.9827 43.5286 52.015 43.5541 52.0348C43.9687 52.3603 47.2272 54.9186 47.5317 55.1577C47.5453 55.1684 47.5639 55.1703 47.5792 55.1628C47.5794 55.1628 47.5794 55.1628 47.5794 55.1628C47.6764 55.115 47.7845 55.0898 47.8931 55.089C47.8931 55.089 47.8931 55.089 47.8932 55.089C47.8977 55.089 47.8977 55.089 47.9022 55.089C47.9374 55.0892 47.9724 55.092 48.0071 55.0973C48.0743 55.1073 48.1417 55.0801 48.182 55.026C48.6598 54.3904 51.3901 50.7485 51.7243 50.3027C51.7443 50.2761 51.7448 50.24 51.7254 50.213C51.725 50.2125 51.7245 50.2119 51.7243 50.2113C51.6262 50.0633 51.5719 49.8872 51.5747 49.7089C51.5747 49.7049 51.5799 49.5899 51.6015 49.5046C51.6108 49.4678 51.6278 49.4193 51.629 49.4158C51.6365 49.3956 51.6467 49.3717 51.6472 49.3707C51.6584 49.3451 51.6707 49.3201 51.6842 49.2958C51.7201 49.231 51.7126 49.1515 51.6658 49.0943C51.1822 48.5027 48.7284 45.5045 48.2485 44.9179L48.2485 44.9179ZM42.5156 52.1925C42.5157 52.1926 42.5157 52.1926 42.5158 52.1928L42.5154 52.1925H42.5156ZM42.5103 52.1875C42.511 52.1881 42.5116 52.1887 42.5122 52.1893C42.513 52.19 42.5136 52.1906 42.5142 52.1912C42.5142 52.1912 42.5133 52.1904 42.5126 52.1896C42.5124 52.1895 42.512 52.1892 42.5118 52.1889C42.5113 52.1885 42.5103 52.1875 42.5103 52.1875V52.1875ZM42.5091 52.1863L42.5095 52.1868L42.509 52.1862C42.509 52.1862 42.509 52.1863 42.5091 52.1863V52.1863ZM43.403 51.8956L43.4028 51.8963L43.403 51.8956ZM43.4038 51.8912C43.4037 51.8916 43.4037 51.8919 43.4035 51.8923C43.4035 51.893 43.4032 51.8943 43.4032 51.8943C43.4034 51.8935 43.4035 51.8926 43.4037 51.8918C43.4038 51.8909 43.4039 51.8899 43.404 51.8889C43.404 51.8889 43.4038 51.8903 43.4038 51.8912V51.8912ZM42.3624 51.7169C42.3624 51.7172 42.3622 51.7173 42.3622 51.7175C42.3622 51.7179 42.3622 51.7183 42.3622 51.7183L42.3624 51.7169V51.7169ZM42.3637 51.7105C42.3635 51.7115 42.3632 51.7123 42.3631 51.7133C42.3629 51.7142 42.3628 51.7151 42.3626 51.716C42.3626 51.716 42.3629 51.7147 42.363 51.7139C42.3631 51.7136 42.3631 51.7132 42.3632 51.7127C42.3633 51.7119 42.3637 51.7105 42.3637 51.7105L42.3637 51.7105ZM43.2832 41.9113C43.2773 41.9083 43.2702 41.9094 43.2655 41.9141C43.2651 41.9144 43.2646 41.9148 43.2643 41.9152C43.2591 41.9202 43.2222 41.9548 43.1882 41.9778C43.1879 41.9779 43.1878 41.978 43.1876 41.9781C43.1874 41.9781 43.1514 42.002 43.1194 42.0175C43.1026 42.0256 43.0919 42.0427 43.0919 42.0611C43.0929 42.5429 43.1059 48.4296 43.11 50.3771C43.1102 50.4579 43.1642 50.5291 43.2427 50.5518C43.3212 50.5743 43.4053 50.543 43.4495 50.475C44.4203 48.9723 47.1542 44.7416 47.2417 44.6062C47.243 44.6042 47.2429 44.6016 47.2413 44.5998C47.2412 44.5995 47.2409 44.5992 47.2406 44.599C47.233 44.5889 47.2289 44.5842 47.2165 44.5667C47.2165 44.5666 47.2165 44.5666 47.2164 44.5666C47.2164 44.5663 47.2034 44.5475 47.2033 44.5475C47.2033 44.5474 47.2033 44.5474 47.2033 44.5474C47.2 44.5424 47.1994 44.542 47.191 44.5282C47.1909 44.5282 47.1909 44.5282 47.1909 44.5281C47.1909 44.5281 47.1779 44.506 47.1738 44.4992C47.1729 44.4975 47.172 44.496 47.171 44.4944C47.1671 44.4873 47.1572 44.4689 47.1481 44.4495C47.148 44.4488 47.1475 44.4482 47.1473 44.4476C47.1472 44.4475 47.1381 44.4267 47.1379 44.4266C47.1378 44.4263 47.1377 44.4261 47.1376 44.4258C47.1177 44.3798 47.1154 44.3671 47.1148 44.365C47.1078 44.3437 47.1054 44.3344 47.1051 44.3336C47.1011 44.319 47.0994 44.3122 47.0991 44.3108C47.0991 44.3107 47.0991 44.3106 47.0991 44.3105C47.0928 44.2837 47.0918 44.2782 47.0918 44.2782C47.0906 44.2718 47.0902 44.2711 47.0878 44.2556C47.0878 44.2556 47.0827 44.2266 47.0803 44.1978C47.0803 44.1976 47.0788 44.1768 47.0782 44.1682C47.0782 44.1659 47.0779 44.1634 47.0779 44.1611C47.0775 44.1504 47.0774 44.1387 47.0773 44.1332C47.0773 44.1312 47.0773 44.1291 47.0773 44.127C47.0775 44.1112 47.0781 44.0956 47.0781 44.0956C47.0797 44.0593 47.0868 44.01 47.0868 44.0096C47.0908 43.9853 47.0932 43.9746 47.0937 43.9725C47.0939 43.9724 47.0939 43.9722 47.0939 43.9722C47.0983 43.9528 47.1011 43.9418 47.1021 43.9379C47.1022 43.937 47.1026 43.9362 47.1028 43.9354C47.1039 43.9312 47.1087 43.915 47.1099 43.9106C47.1101 43.9097 47.1103 43.909 47.1106 43.9083V43.9082C47.1111 43.9067 47.1104 43.9052 47.109 43.9042C47.0033 43.8493 43.4953 42.022 43.2832 41.9114L43.2832 41.9113ZM60.2772 50.1828L60.2765 50.183L60.2772 50.1828ZM60.2817 50.181C60.2813 50.1812 60.281 50.1813 60.2805 50.1815C60.2798 50.1818 60.2787 50.1822 60.2787 50.1822C60.2794 50.182 60.2802 50.1816 60.281 50.1812C60.2818 50.181 60.2828 50.1806 60.2835 50.1802C60.2835 50.1802 60.2822 50.1806 60.2817 50.181H60.2817ZM59.7435 50.0795C59.7436 50.0796 59.7436 50.0796 59.7437 50.0797L59.7435 50.0795ZM59.7418 50.0779L59.7421 50.0783L59.7403 50.0765C59.7403 50.0765 59.7414 50.0774 59.7418 50.0779L59.7418 50.0779ZM59.7386 50.0748C59.7389 50.0751 59.739 50.0752 59.7393 50.0754C59.7396 50.0758 59.7403 50.0765 59.7403 50.0765L59.7385 50.0747C59.7385 50.0747 59.7385 50.0748 59.7386 50.0748V50.0748ZM59.7374 50.0736C59.7375 50.0737 59.7377 50.0739 59.7377 50.074L59.7372 50.0735C59.7372 50.0735 59.7373 50.0735 59.7374 50.0736V50.0736ZM51.7761 50.043V50.0433V50.043ZM56.9318 46.2723C56.8891 46.2206 56.821 46.1967 56.755 46.2105C56.6801 46.2262 56.602 46.2261 56.5269 46.2118C56.4682 46.201 56.4079 46.219 56.365 46.2602C55.9389 46.6685 53.8171 48.7033 53.3343 49.1661C53.2795 49.2187 53.2632 49.2994 53.2932 49.3689C53.3001 49.3842 53.3065 49.3999 53.3124 49.4158C53.3291 49.461 53.3726 49.491 53.4211 49.491C54.1334 49.491 59.0867 49.491 59.4797 49.491C59.4944 49.491 59.5079 49.482 59.5136 49.4683C59.5138 49.4677 59.5142 49.4671 59.5145 49.4665C59.5147 49.4661 59.5148 49.4658 59.5149 49.4654C59.5252 49.4426 59.5218 49.4161 59.5058 49.3968C59.2563 49.0939 57.3435 46.7719 56.9318 46.2723ZM51.7906 49.3693C51.7906 49.3695 51.7906 49.3695 51.7906 49.3696V49.3693ZM51.7934 49.3641C51.7934 49.3641 51.7933 49.3642 51.7933 49.3643L51.7934 49.3641ZM60.1826 41.4129C60.1696 41.4113 60.1575 41.4188 60.1529 41.4308C60.04 41.7286 59.7497 41.9565 59.4225 41.9894C59.3605 41.9955 59.2985 41.995 59.237 41.9881C59.1652 41.9797 59.0949 42.014 59.0581 42.0758C58.7343 42.6138 57.3035 45.0019 57.1285 45.2937C57.1182 45.311 57.1183 45.3326 57.1288 45.35C57.1296 45.3512 57.1304 45.3524 57.1311 45.3537C57.1353 45.3613 57.1521 45.391 57.1521 45.391C57.1688 45.4245 57.1624 45.4115 57.1687 45.4268C57.1895 45.4757 57.204 45.5274 57.21 45.5804L57.2116 45.5947C57.2141 45.6271 57.2152 45.6595 57.2127 45.692C57.2123 45.697 57.2117 45.702 57.211 45.7069C57.2092 45.7169 57.2057 45.7376 57.2004 45.7619C57.1883 45.8163 57.202 45.873 57.2375 45.9162C57.5887 46.3429 59.4207 48.5666 59.8123 49.0419C59.8545 49.0929 59.9213 49.1176 59.9868 49.1062C60.0198 49.0995 60.0534 49.0962 60.0872 49.0959C60.0934 49.0959 60.0934 49.0959 60.0994 49.0959C60.2124 49.0976 60.3253 49.1293 60.4215 49.1883L60.4218 49.1884L60.4247 49.1901C60.4502 49.2059 60.484 49.2316 60.484 49.2316C60.5181 49.2593 60.565 49.2655 60.6055 49.2481C61.3405 48.9305 67.6975 46.1842 67.8827 46.1042C67.8851 46.103 67.8865 46.1006 67.8862 46.0978C67.8633 45.9421 67.903 45.6607 68.0248 45.478C68.0515 45.4381 68.0819 45.4002 68.115 45.3651C68.1668 45.3103 68.1792 45.2296 68.1461 45.1619C67.9355 44.7299 67.2149 43.2584 67.0092 42.8384C66.9782 42.7748 66.9126 42.7347 66.8413 42.7356C66.739 42.7374 66.636 42.7189 66.5402 42.679C66.4993 42.6617 66.46 42.6411 66.4229 42.6169C66.4215 42.6161 66.4201 42.6151 66.4188 42.6143C66.4113 42.609 66.3799 42.5874 66.3623 42.5734C66.3622 42.5734 66.3621 42.5733 66.3621 42.5733C66.3367 42.5531 66.3125 42.5313 66.29 42.5079C66.2899 42.5077 66.2895 42.5074 66.2892 42.5071C66.2892 42.5071 66.281 42.4983 66.2782 42.4952C66.2771 42.4942 66.2763 42.4933 66.2754 42.4923C66.2449 42.4585 66.2168 42.4221 66.1929 42.3833C66.1918 42.3817 66.191 42.3801 66.1899 42.3783C66.1867 42.3728 66.1754 42.353 66.1706 42.3447C66.1691 42.3422 66.1677 42.3396 66.1663 42.3369C66.1628 42.33 66.156 42.3168 66.154 42.3126C66.1467 42.2972 66.1387 42.2785 66.1374 42.2753C66.1225 42.2389 66.1104 42.2014 66.1014 42.1632C66.1013 42.1628 66.1012 42.1624 66.101 42.1619C66.1002 42.158 66.0924 42.1229 66.0887 42.0941L66.0886 42.0939C66.0886 42.0938 66.0886 42.0938 66.0886 42.0938C66.0606 42.0904 60.5763 41.4584 60.1825 41.4129L60.1826 41.4129ZM52.0602 41.7545C52.0324 41.7366 51.9965 41.7365 51.9685 41.7542C51.5634 42.0089 48.7137 43.8021 48.5792 43.8865C48.5764 43.8884 48.5752 43.8919 48.5762 43.8951C48.5832 43.9166 48.5857 43.9257 48.5859 43.9266C48.5881 43.9345 48.5905 43.944 48.5905 43.944C48.5974 43.9711 48.6042 44.0096 48.6042 44.0096C48.6078 44.0352 48.6112 44.0693 48.6114 44.0713C48.6134 44.0956 48.6134 44.1052 48.6137 44.1196C48.6137 44.1204 48.6137 44.1214 48.6137 44.1222C48.6137 44.1265 48.6137 44.1391 48.6137 44.1392C48.613 44.1796 48.6131 44.1608 48.6124 44.1737C48.611 44.2015 48.6059 44.2382 48.6055 44.2409C48.6049 44.2452 48.6004 44.2737 48.594 44.3017C48.5936 44.3034 48.5901 44.317 48.5889 44.3221C48.5885 44.3234 48.5882 44.3247 48.5878 44.3262C48.5853 44.3355 48.582 44.3465 48.581 44.3499C48.5808 44.3507 48.5805 44.3517 48.5803 44.3527C48.5748 44.3697 48.5679 44.3891 48.5669 44.3914C48.5552 44.4237 48.5477 44.439 48.5461 44.4423C48.546 44.4425 48.546 44.4427 48.5459 44.443C48.5296 44.4769 48.5255 44.4845 48.5163 44.5006C48.5163 44.5006 48.5163 44.5006 48.5163 44.5007C48.5133 44.506 48.5139 44.5125 48.5177 44.5173C48.6703 44.7035 51.5075 48.1703 52.03 48.8088C52.0768 48.8659 52.1535 48.8897 52.2247 48.8691C52.3005 48.8472 52.3794 48.8351 52.4587 48.8339C52.4589 48.8339 52.4591 48.8339 52.4593 48.8339C52.465 48.8339 52.4707 48.8336 52.4766 48.8339C52.4766 48.8339 52.4768 48.8339 52.477 48.8339C52.5858 48.835 52.694 48.8563 52.7953 48.8955C52.8623 48.9213 52.9383 48.9061 52.9899 48.8567C53.4558 48.4101 55.5751 46.3776 56.0195 45.9516C56.0655 45.9074 56.0851 45.8426 56.0711 45.7806C56.069 45.7734 56.0675 45.7664 56.0661 45.7589C56.0658 45.7572 56.0655 45.7556 56.0651 45.7538C56.0645 45.7498 56.062 45.734 56.0609 45.7265C56.0604 45.7239 56.06 45.721 56.0598 45.7184C56.0592 45.7137 56.0587 45.709 56.0583 45.7043C56.056 45.682 56.056 45.6758 56.0557 45.664C56.0553 45.6474 56.0561 45.6255 56.0565 45.6169C56.0566 45.6146 56.0567 45.6126 56.0569 45.6104C56.0572 45.6053 56.0577 45.6 56.0583 45.5947C56.0634 45.5396 56.0629 45.5526 56.0695 45.5238C56.0696 45.5238 56.0824 45.4739 56.092 45.449C56.1141 45.391 56.1013 45.3256 56.0592 45.2799C55.6205 44.8049 53.3891 42.3879 52.9178 41.8774C52.8682 41.8236 52.7908 41.8043 52.7214 41.8283C52.514 41.9002 52.2759 41.8839 52.0831 41.7687C52.0755 41.7642 52.0677 41.7595 52.0602 41.7545L52.0602 41.7545ZM56.6345 46.0954H56.632C56.632 46.0954 56.6343 46.0954 56.6345 46.0954ZM56.6286 46.0953H56.6288H56.6286ZM69.5431 46.0671V46.0673V46.0671ZM68.0931 45.6144C68.0931 45.6146 68.0929 45.6146 68.0929 45.6146L68.0931 45.6144ZM68.0959 45.609C68.0959 45.6091 68.0959 45.6091 68.0958 45.6093L68.0959 45.609ZM56.1936 45.56C56.1936 45.5602 56.1936 45.5602 56.1936 45.5602C56.1936 45.5605 56.193 45.5624 56.193 45.5624L56.1936 45.56V45.56ZM67.6953 34.8053C67.6347 34.7721 67.5602 34.7757 67.5028 34.8145C66.9305 35.202 64.066 37.1456 63.6927 37.3988C63.6695 37.4146 63.658 37.4427 63.6635 37.4701C63.6636 37.4709 63.6638 37.4717 63.6639 37.4726C63.6649 37.4783 63.6696 37.5047 63.6696 37.5047C63.6738 37.5318 63.6761 37.5592 63.6763 37.5868C63.6763 37.5884 63.6763 37.5898 63.6763 37.5913C63.6762 37.5965 63.6757 37.621 63.6757 37.6211C63.6748 37.6422 63.6729 37.6632 63.6696 37.6841C63.6695 37.6855 63.6691 37.6869 63.6689 37.6884C63.668 37.6935 63.6648 37.7108 63.6636 37.7175C63.6632 37.7198 63.6627 37.7222 63.6623 37.7244C63.6557 37.7536 63.6471 37.7825 63.6363 37.8107C63.6345 37.8158 63.6354 37.8216 63.639 37.8256C63.7683 37.9783 66.0547 40.6794 66.5017 41.2074C66.5455 41.259 66.6142 41.2825 66.6808 41.2687C66.7286 41.2578 66.7774 41.2527 66.8265 41.252C66.8267 41.252 66.8271 41.252 66.8274 41.252C66.8305 41.252 66.8338 41.252 66.837 41.252C66.8373 41.252 66.8374 41.252 66.8377 41.252C66.9638 41.2534 67.0889 41.2855 67.1979 41.3463C67.2044 41.3499 67.2108 41.3536 67.2171 41.3573C67.2172 41.3573 67.2173 41.3574 67.2175 41.3575C67.2595 41.3823 67.2992 41.4114 67.3354 41.444C67.3359 41.4444 67.3362 41.4446 67.3364 41.445C67.3366 41.445 67.3497 41.4571 67.3497 41.4571C67.3618 41.4689 67.3779 41.4853 67.3779 41.4853C67.3854 41.4931 67.3872 41.4953 67.3872 41.4953C67.4189 41.53 67.4478 41.5675 67.4724 41.6076C67.4728 41.6081 67.4732 41.6087 67.4734 41.6093C67.4735 41.6095 67.4849 41.6286 67.4849 41.6286C67.5058 41.6649 67.4989 41.6541 67.5021 41.6603C67.5105 41.6771 67.5213 41.7009 67.5213 41.7009C67.5347 41.7317 67.546 41.7635 67.5552 41.7959C67.5558 41.7981 67.5654 41.8366 67.5661 41.8405C67.58 41.9042 67.5772 41.9038 67.5785 41.9187L67.5809 41.9462C67.5831 41.9798 67.5832 42.0136 67.5806 42.0469L67.5791 42.0658C67.5716 42.1325 67.57 42.1301 67.5672 42.1441C67.5584 42.1873 67.5556 42.1923 67.5514 42.2066C67.5363 42.2567 67.5344 42.2568 67.5284 42.2716C67.5159 42.302 67.51 42.3138 67.5008 42.3316C67.5006 42.3322 67.5001 42.3328 67.4999 42.3334C67.4983 42.3364 67.4924 42.3476 67.4904 42.3513C67.4899 42.3521 67.4894 42.353 67.4888 42.3539C67.4846 42.3616 67.4796 42.3701 67.4772 42.374C67.4765 42.3753 67.4758 42.3766 67.4749 42.3778C67.4617 42.3989 67.4588 42.4032 67.4516 42.4136C67.4315 42.4428 67.4095 42.4704 67.3853 42.4962C67.3851 42.4966 67.3849 42.4968 67.3846 42.497C67.3845 42.4972 67.3756 42.5064 67.3731 42.5092C67.3726 42.5098 67.372 42.5104 67.3714 42.511C67.3714 42.511 67.3714 42.511 67.3713 42.511C67.3687 42.5136 67.3681 42.5177 67.3697 42.5212C67.4265 42.6372 68.3339 44.4899 68.5714 44.9744C68.6033 45.0395 68.6709 45.0798 68.7441 45.0771C68.7528 45.0766 68.7616 45.0764 68.7704 45.0762C68.7709 45.0762 68.7719 45.0762 68.7725 45.0762C68.7761 45.0762 68.7796 45.0762 68.7833 45.0762C68.7837 45.0762 68.7842 45.0762 68.7848 45.0762C68.8102 45.0765 68.8349 45.0779 68.8601 45.0804C68.9339 45.0874 69.005 45.0494 69.0397 44.9842C69.4394 44.2369 71.642 40.1102 71.7698 39.8706C71.7735 39.864 71.7719 39.8562 71.7667 39.8511C71.7662 39.8505 71.7656 39.85 71.7651 39.8495C71.7578 39.8419 71.7563 39.8403 71.7563 39.8403C71.737 39.8183 71.7119 39.7874 71.7098 39.7844C71.6728 39.7353 71.6608 39.7126 71.6445 39.6811C71.642 39.6765 71.6273 39.6459 71.6221 39.6356C71.6211 39.6331 71.62 39.6308 71.619 39.6284C71.6133 39.6151 71.6076 39.5994 71.6055 39.5951C71.6055 39.5941 71.6055 39.5931 71.6049 39.5923C71.5949 39.5661 71.5866 39.5393 71.5799 39.512C71.5799 39.5105 71.5793 39.509 71.5788 39.5075C71.5778 39.5016 71.5731 39.4806 71.5716 39.4716C71.571 39.4689 71.57 39.466 71.57 39.463C71.5657 39.4384 71.5621 39.4135 71.5611 39.3884C71.5611 39.388 71.5611 39.3876 71.5611 39.3872C71.5605 39.3831 71.559 39.3561 71.559 39.3297C71.559 39.3296 71.5596 39.302 71.5605 39.291C71.5605 39.2881 71.5605 39.2852 71.5612 39.2825C71.5621 39.2584 71.5648 39.2342 71.5689 39.2103C71.5694 39.2086 71.5694 39.207 71.57 39.2052C71.571 39.1995 71.5757 39.1784 71.5773 39.1694C71.5778 39.1661 71.5789 39.1631 71.5793 39.1603C71.5877 39.1297 71.5992 39.0925 71.6002 39.0894C71.6107 39.0591 71.6148 39.0503 71.6216 39.0345C71.6221 39.0337 71.6227 39.0326 71.6232 39.0317C71.628 39.0221 71.6488 38.9777 71.6665 38.9489C71.678 38.9301 71.6942 38.9069 71.6968 38.9034C71.7072 38.8878 71.7067 38.8668 71.6947 38.8518C71.4521 38.5434 69.0888 35.545 68.6055 34.9325C68.5574 34.8716 68.4759 34.8472 68.402 34.8717C68.3695 34.8834 68.3361 34.8923 68.3021 34.8991C68.0975 34.9408 67.8797 34.9057 67.6953 34.8055L67.6953 34.8053ZM58.5289 41.4675C58.4997 41.4008 58.4334 41.3578 58.3601 41.3578C57.6194 41.3576 53.9363 41.3576 53.2868 41.3576C53.231 41.3576 53.1802 41.3895 53.1565 41.4393V41.4396C53.1536 41.4458 53.1547 41.4528 53.1593 41.458C53.32 41.632 55.994 44.5285 56.447 45.019C56.4848 45.0599 56.5393 45.0816 56.5952 45.0779C56.6094 45.0766 56.6238 45.0761 56.6381 45.0761C56.6383 45.0761 56.6385 45.0761 56.6385 45.0761C56.6386 45.0761 56.6387 45.0761 56.6389 45.0761C56.6884 45.0765 56.7345 45.0509 56.7597 45.0086C57.0176 44.5784 58.3343 42.3808 58.6491 41.8553C58.6872 41.7917 58.6828 41.7117 58.638 41.6526C58.5938 41.5955 58.5573 41.533 58.5289 41.4675H58.5289ZM48.4784 44.2194L48.4783 44.2202L48.4784 44.2194ZM48.4791 44.2146L48.4786 44.2178L48.4789 44.2167C48.4789 44.216 48.4791 44.2146 48.4791 44.2146V44.2146ZM48.4796 44.2112L48.4791 44.2146L48.4796 44.2112ZM47.2175 44.011C47.2175 44.0112 47.2173 44.0114 47.2173 44.0117C47.2173 44.012 47.2172 44.0123 47.2172 44.0123L47.2175 44.011V44.011ZM47.2191 44.003C47.2189 44.0041 47.2187 44.0054 47.2183 44.0064C47.2182 44.0075 47.2179 44.0086 47.2177 44.0097C47.2177 44.0097 47.2181 44.0079 47.2183 44.007C47.2183 44.0067 47.2183 44.0063 47.2185 44.0058C47.2186 44.005 47.2191 44.0029 47.2191 44.0029V44.003ZM48.1079 43.5529C48.1083 43.5531 48.1087 43.5532 48.109 43.5534C48.1099 43.5538 48.1116 43.5546 48.1116 43.5546C48.1106 43.5542 48.1095 43.5536 48.1085 43.5531C48.1076 43.5527 48.1063 43.5523 48.1054 43.5518C48.1054 43.5518 48.1071 43.5525 48.1079 43.5529H48.1079ZM48.1022 43.5504L48.1048 43.5515C48.1038 43.5511 48.1029 43.5507 48.1022 43.5504ZM48.1005 43.5498H48.1006C48.1006 43.5498 48.1006 43.5498 48.1005 43.5498ZM48.2127 43.4621C48.2714 43.4934 48.3424 43.4909 48.3985 43.4554C48.7871 43.2114 50.2359 42.2999 51.0567 41.7835C51.1268 41.7393 51.1585 41.654 51.1336 41.5753C51.1087 41.4966 51.0338 41.4442 50.9504 41.4476C49.4886 41.5049 46.0704 41.6391 44.6055 41.6966C44.5222 41.6998 44.4515 41.7581 44.4333 41.8386C44.4148 41.919 44.4532 42.0016 44.5271 42.0401C45.4613 42.5268 47.1635 43.4135 47.3607 43.5162C47.372 43.5222 47.3856 43.5211 47.3961 43.5134L47.3973 43.5126C47.411 43.503 47.4672 43.4649 47.5252 43.4387C47.6235 43.3942 47.7317 43.3708 47.84 43.3696C47.8401 43.3696 47.8403 43.3696 47.8404 43.3696C47.8454 43.3696 47.8454 43.3696 47.8504 43.3696C47.9764 43.3709 48.1015 43.4022 48.2127 43.4621V43.4621ZM66.4047 42.4408L66.405 42.4411L66.4046 42.4408H66.4047ZM66.3987 42.435C66.3994 42.4358 66.4 42.4365 66.4007 42.4372C66.4017 42.4379 66.4024 42.4386 66.4031 42.4393C66.4031 42.4393 66.4019 42.4381 66.4013 42.4375C66.4011 42.4373 66.4007 42.4371 66.4004 42.4367C66.3997 42.4361 66.3986 42.435 66.3986 42.435L66.3987 42.435ZM66.3971 42.4336L66.3976 42.4341L66.3969 42.4335C66.3969 42.4335 66.3971 42.4335 66.3971 42.4336L66.3971 42.4336ZM67.4472 42.0814L67.4471 42.0822L67.4472 42.0814ZM67.448 42.0762C67.448 42.0766 67.448 42.077 67.4478 42.0773C67.4478 42.0782 67.4474 42.08 67.4474 42.08C67.4477 42.0788 67.4478 42.0778 67.4481 42.0767C67.4482 42.0757 67.4482 42.0745 67.4484 42.0735C67.4484 42.0735 67.4482 42.0753 67.4481 42.0763L67.448 42.0762ZM52.7059 41.7019L52.705 41.7022L52.7059 41.7019ZM52.7111 41.6998C52.7109 41.6998 52.7105 41.6999 52.7102 41.7002C52.7093 41.7005 52.7076 41.7013 52.7076 41.7013C52.7086 41.7008 52.7097 41.7004 52.7107 41.6999C52.7116 41.6995 52.7126 41.6991 52.7136 41.6988C52.7136 41.6988 52.712 41.6995 52.7112 41.6998H52.7111ZM52.716 41.6978L52.7149 41.6981L52.716 41.6978ZM62.8472 38.1671C62.8235 38.1573 62.7962 38.1624 62.7777 38.18C62.5149 38.4291 60.6347 40.2119 60.1945 40.6292C60.1427 40.6785 60.1256 40.7537 60.151 40.8203C60.151 40.8203 60.151 40.8203 60.151 40.8204C60.1542 40.8284 60.1571 40.8364 60.16 40.8446C60.1833 40.9103 60.2424 40.9571 60.3123 40.9652C61.1285 41.0594 65.7525 41.5925 66.1459 41.6378C66.1617 41.6396 66.177 41.632 66.1851 41.6185L66.1861 41.6173C66.1861 41.6172 66.1861 41.6171 66.1861 41.617C66.2005 41.5939 66.1985 41.5644 66.1809 41.5437C65.9048 41.2176 63.8253 38.7611 63.3892 38.2459C63.3443 38.1929 63.2731 38.1695 63.2051 38.1857C63.0887 38.2143 62.9645 38.2097 62.8492 38.1678C62.8485 38.1676 62.8479 38.1674 62.8472 38.1671H62.8472ZM42.4753 41.4521C42.4752 41.4529 42.4751 41.4537 42.4749 41.4544L42.4753 41.4521ZM58.6592 41.4444C58.6599 41.4455 58.6604 41.4468 58.6609 41.4479C58.6615 41.4491 58.6621 41.4502 58.6627 41.4514C58.6627 41.4514 58.6616 41.4493 58.6611 41.4484C58.661 41.4479 58.6609 41.4475 58.6608 41.4474C58.6603 41.4465 58.6592 41.4444 58.6592 41.4444V41.4444ZM58.6585 41.4429C58.6586 41.443 58.6586 41.4431 58.6588 41.4432L58.6577 41.4413C58.6577 41.4413 58.6582 41.4424 58.6585 41.4429ZM67.0878 41.434L67.0907 41.4353C67.0907 41.4353 67.0906 41.4353 67.0904 41.4352C67.0898 41.4349 67.0878 41.434 67.0878 41.434ZM67.0847 41.4326L67.0878 41.434C67.0878 41.434 67.0867 41.4335 67.0861 41.4333C67.0859 41.4331 67.0857 41.433 67.0854 41.4329C67.0852 41.4329 67.0847 41.4326 67.0847 41.4326H67.0847ZM67.0816 41.4312L67.0841 41.4323C67.0833 41.432 67.0824 41.4316 67.0816 41.4312ZM67.08 41.4306H67.0801C67.08 41.4306 67.08 41.4306 67.08 41.4306ZM43.4007 32.7542C43.3492 32.7048 43.272 32.6924 43.2073 32.7231C43.2075 32.7239 43.2075 32.7239 43.2075 32.7239C43.1493 32.7519 43.1122 32.8105 43.1121 32.8744C43.1091 33.7994 43.0939 40.1254 43.0921 40.9505C43.092 41.0013 43.1188 41.0485 43.1627 41.0749C43.164 41.0756 43.1655 41.0764 43.1668 41.0773C43.168 41.078 43.1691 41.0788 43.1705 41.0795C43.2015 41.0992 43.2307 41.1216 43.2572 41.1469C43.2576 41.1471 43.2577 41.1474 43.2581 41.1478C43.2612 41.1508 43.2793 41.1684 43.2952 41.1869C43.2976 41.1897 43.2997 41.1923 43.3018 41.1952C43.3088 41.2042 43.3294 41.2311 43.3294 41.2311C43.3394 41.2459 43.3522 41.267 43.3522 41.267C43.3584 41.2782 43.3591 41.2788 43.3614 41.2832C43.3625 41.2839 43.3636 41.2843 43.3647 41.2843C43.5107 41.2797 51.3861 40.9706 51.725 40.9573C51.7314 40.9569 51.7373 40.9524 51.7387 40.946C51.7493 40.9073 51.7455 40.9211 51.7474 40.9148L51.7633 40.8684C51.7645 40.8646 51.766 40.8608 51.7677 40.8571C51.7719 40.8463 51.7811 40.8245 51.7828 40.8206C51.7885 40.8084 51.7857 40.7939 51.7759 40.7845C51.3847 40.4093 44.2945 33.611 43.4007 32.7542L43.4007 32.7542ZM57.2996 30.9135C57.293 30.9005 57.2794 30.8922 57.2648 30.8922C56.9664 30.8922 53.9981 30.8922 53.3493 30.8922C53.2784 30.8922 53.2137 30.9327 53.1832 30.996C53.1143 31.1413 53.001 31.2622 52.8592 31.3421C52.8426 31.3513 52.8256 31.36 52.8084 31.368C52.7442 31.3981 52.7033 31.462 52.7033 31.5323C52.7029 32.5378 52.7029 39.3007 52.7029 40.2954C52.7029 40.3649 52.7427 40.4283 52.8058 40.4591C52.8627 40.487 52.9162 40.522 52.9643 40.5631C52.974 40.5713 52.9746 40.5721 52.978 40.575C52.9946 40.5902 53.0168 40.6127 53.0168 40.6127C53.0272 40.6236 53.041 40.6389 53.041 40.6389C53.051 40.6503 53.0638 40.6663 53.0638 40.6663C53.071 40.6753 53.0723 40.6772 53.0723 40.6772C53.0804 40.6879 53.0909 40.7025 53.0909 40.7025C53.1032 40.7201 53.1126 40.7351 53.1137 40.7369C53.13 40.7633 53.1468 40.7959 53.1468 40.7959C53.1611 40.8256 53.1697 40.8449 53.1795 40.8713C53.1855 40.8874 53.201 40.8982 53.2184 40.8982C53.603 40.8982 57.5877 40.8982 58.3605 40.8982C58.4343 40.8982 58.5008 40.8547 58.5298 40.7874C58.5455 40.7492 58.5647 40.7122 58.5866 40.6767C58.5872 40.6756 58.5878 40.6747 58.5883 40.6738C58.5923 40.6677 58.6179 40.6281 58.6419 40.5975C58.8031 40.3916 59.0602 40.2648 59.3268 40.262C59.3271 40.262 59.3275 40.262 59.3275 40.262C59.3332 40.262 59.3332 40.262 59.3388 40.262C59.4541 40.2631 59.5679 40.2884 59.6732 40.3336C59.7411 40.3624 59.8197 40.3484 59.8729 40.2978C60.3412 39.854 62.3951 37.9066 62.4839 37.8222C62.4858 37.8207 62.4864 37.8179 62.4853 37.8158C62.485 37.8149 62.4846 37.8141 62.4844 37.8134C62.4747 37.7873 62.4729 37.7821 62.469 37.7686L62.4655 37.7562C62.4652 37.7551 62.4648 37.754 62.4645 37.7529C62.4635 37.7493 62.463 37.7469 62.4624 37.7452C62.462 37.7435 62.4616 37.7419 62.4612 37.7402C62.4515 37.6984 62.4454 37.6565 62.4438 37.614C62.4437 37.6117 62.4436 37.6096 62.4436 37.6073C62.4436 37.5943 62.4441 37.5481 62.4489 37.5126C62.4493 37.5101 62.4532 37.4813 62.4604 37.4519C62.4605 37.4511 62.4608 37.4503 62.4609 37.4498C62.4609 37.4496 62.465 37.4343 62.4662 37.4296C62.4667 37.4276 62.4673 37.4254 62.4679 37.4234C62.4695 37.4181 62.4699 37.4174 62.4699 37.4174C62.4741 37.403 62.481 37.3846 62.4837 37.3774C62.4843 37.3755 62.485 37.3736 62.486 37.3717C62.4948 37.3496 62.5046 37.328 62.516 37.307C62.516 37.307 62.5161 37.3068 62.5163 37.3068C62.5163 37.3067 62.5226 37.2952 62.5231 37.2943C62.5239 37.2927 62.5248 37.2913 62.5256 37.2899C62.5453 37.2565 62.5611 37.2358 62.5633 37.233C62.5634 37.2327 62.5634 37.2327 62.5635 37.2325C62.5652 37.2303 62.5742 37.2187 62.5778 37.2142C62.5789 37.2128 62.58 37.2114 62.5812 37.21C62.5877 37.2021 62.5955 37.1932 62.5991 37.1891C62.6003 37.1876 62.6016 37.1863 62.6029 37.1849C62.6113 37.1761 62.6214 37.1656 62.6251 37.162C62.6264 37.1607 62.6276 37.1595 62.629 37.1582C62.6384 37.1492 62.648 37.1406 62.6579 37.132C62.7063 37.0906 62.7296 37.0272 62.719 36.9647C62.6242 36.3953 62.1866 33.7767 62.0874 33.1834C62.0761 33.1155 62.0271 33.0599 61.9608 33.0392C61.8674 33.0107 61.7787 32.9636 61.7002 32.898C61.6819 32.8829 61.6587 32.8606 61.6527 32.8547C61.6516 32.8537 61.6506 32.8527 61.6496 32.8517C61.6316 32.8335 61.6144 32.8144 61.5984 32.7945C61.5981 32.7942 61.5978 32.7937 61.5975 32.7933C61.5968 32.7926 61.5904 32.7844 61.5877 32.781C61.587 32.78 61.5862 32.779 61.5855 32.7781C61.5817 32.7733 61.578 32.7682 61.5767 32.7665C61.5762 32.7657 61.5758 32.7651 61.5753 32.7644C61.5665 32.7522 61.5561 32.7365 61.5523 32.7308C61.5516 32.7297 61.5509 32.7286 61.5501 32.7275C61.5426 32.7151 61.5101 32.6563 61.5072 32.6503C61.476 32.585 61.4811 32.5888 61.4778 32.5798C61.4701 32.5582 61.4693 32.5545 61.4664 32.5449C61.4618 32.5299 61.4569 32.5101 61.4551 32.5034C61.4546 32.5015 61.4543 32.4996 61.4539 32.4977C61.4458 32.4596 61.4435 32.4429 61.4435 32.4429C61.4373 32.4003 61.4415 32.4323 61.4385 32.4013C61.4385 32.4011 61.4368 32.3734 61.4361 32.3626C61.436 32.3594 61.4359 32.3564 61.4357 32.3533C61.4356 32.3372 61.4357 32.3184 61.4359 32.3126C61.4359 32.3115 61.4359 32.3101 61.436 32.309C61.4367 32.2936 61.4274 32.2793 61.413 32.2734C61.1561 32.17 58.9458 31.2806 58.5301 31.1133C58.491 31.0975 58.446 31.105 58.4141 31.1326V31.1327C58.4139 31.1329 58.4138 31.133 58.4135 31.1332C58.2018 31.3112 57.8809 31.359 57.6234 31.2325C57.5793 31.2111 57.5376 31.1848 57.499 31.1548C57.499 31.1548 57.499 31.1548 57.4989 31.1548C57.4983 31.1544 57.4798 31.1399 57.4619 31.1241C57.4606 31.1228 57.4595 31.1217 57.4582 31.1206C57.4534 31.1162 57.4343 31.0981 57.4342 31.098C57.4006 31.0644 57.3965 31.0584 57.396 31.0573C57.396 31.0573 57.396 31.0573 57.396 31.0572C57.3794 31.0374 57.378 31.0356 57.3715 31.0273C57.3538 31.0044 57.3375 30.9808 57.3229 30.956C57.322 30.9544 57.3054 30.9241 57.3013 30.9169C57.3006 30.9157 57.3 30.9146 57.2995 30.9136V30.9135L57.2996 30.9135ZM58.6667 40.7966C58.6666 40.7966 58.6666 40.7968 58.6665 40.7969C58.6662 40.7974 58.6658 40.7983 58.6658 40.7983L58.6667 40.7965V40.7966ZM58.6708 40.7885C58.6701 40.7898 58.6695 40.7909 58.6689 40.792C58.6684 40.7931 58.6678 40.7941 58.6673 40.7952C58.6673 40.7952 58.6683 40.7933 58.6686 40.7925C58.6688 40.7921 58.669 40.7917 58.6692 40.7915C58.6697 40.7905 58.6708 40.7885 58.6708 40.7885V40.7885ZM58.6721 40.786C58.672 40.7862 58.6719 40.7865 58.6718 40.7867C58.6718 40.7868 58.6717 40.7869 58.6717 40.7869L58.6721 40.786V40.786ZM52.7276 40.5631C52.728 40.5632 52.7283 40.5634 52.7287 40.5636C52.7294 40.5639 52.7311 40.5647 52.7311 40.5647C52.7301 40.5643 52.729 40.5638 52.7281 40.5634C52.7271 40.5629 52.7261 40.5624 52.7249 40.562C52.7249 40.562 52.7266 40.5628 52.7276 40.5631V40.5631ZM52.7219 40.5607L52.7243 40.5618C52.7236 40.5615 52.7227 40.561 52.7219 40.5607ZM48.8036 28.5906C48.7453 28.5524 48.669 28.5544 48.6126 28.5956C48.4092 28.7444 48.1375 28.7949 47.8916 28.7273C47.8284 28.71 47.7679 28.6848 47.7111 28.6529C47.6461 28.6163 47.5653 28.6222 47.5065 28.6676C46.871 29.159 43.5481 31.7292 43.5396 31.7356L43.5397 31.7358C43.5399 31.7362 43.5441 31.7442 43.5496 31.7554V31.7555C43.5536 31.7642 43.5549 31.7668 43.5549 31.7668C43.5685 31.7967 43.5831 31.8383 43.5846 31.8425C43.5917 31.8645 43.5996 31.8953 43.5996 31.8953C43.6027 31.9079 43.6064 31.9253 43.6064 31.9253C43.6095 31.9404 43.6127 31.9612 43.6127 31.9612C43.6166 31.9868 43.6191 32.0126 43.62 32.0383C43.62 32.0392 43.6201 32.0402 43.6201 32.0409C43.6202 32.0438 43.6206 32.0611 43.6206 32.067C43.6207 32.0697 43.6207 32.0725 43.6206 32.0753C43.62 32.1133 43.619 32.1219 43.6174 32.1363C43.6173 32.1381 43.6171 32.1396 43.617 32.1412C43.616 32.1489 43.6131 32.172 43.612 32.1807C43.6118 32.1832 43.6114 32.1856 43.6109 32.1881C43.6087 32.2007 43.6059 32.2151 43.6051 32.2191C43.605 32.2198 43.6047 32.2205 43.6045 32.2212C43.5948 32.267 43.6093 32.3145 43.6434 32.3472C44.354 33.0286 51.405 39.7894 52.0657 40.4229C52.0947 40.4506 52.1376 40.4586 52.1748 40.4433C52.1748 40.443 52.1748 40.443 52.1748 40.443C52.2135 40.4271 52.2386 40.3898 52.2386 40.3484C52.2387 39.5636 52.2387 32.5535 52.2387 31.5288C52.2387 31.4582 52.1974 31.3938 52.1328 31.3638C52.0181 31.3115 51.9151 31.2318 51.8361 31.1259C51.7234 30.9751 51.6727 30.7795 51.6869 30.5941C51.6921 30.5284 51.6607 30.4652 51.6054 30.4288C51.1571 30.1337 49.2697 28.8963 48.8036 28.5906V28.5906ZM72.555 39.9128L72.5539 39.9132L72.555 39.9128ZM72.5602 39.9108C72.5602 39.9109 72.5597 39.911 72.5592 39.9112C72.5586 39.9115 72.5566 39.9122 72.5566 39.9122C72.5577 39.9118 72.5586 39.9114 72.5597 39.911C72.5607 39.9106 72.5618 39.9102 72.5629 39.9097C72.5629 39.9097 72.5613 39.9105 72.5602 39.9108H72.5602ZM72.5654 39.9087L72.5645 39.9091L72.5654 39.9087ZM72.9422 39.4226V39.4236V39.4226ZM72.9427 39.4173C72.9427 39.4177 72.9427 39.418 72.9427 39.4185C72.9427 39.4194 72.9422 39.4212 72.9422 39.4212C72.9422 39.4201 72.9427 39.4189 72.9427 39.4179C72.9427 39.4169 72.9433 39.4158 72.9433 39.4146C72.9433 39.4146 72.9427 39.4165 72.9427 39.4173V39.4173ZM71.6987 39.2171C71.6987 39.2173 71.6987 39.2176 71.6982 39.2178C71.6982 39.2181 71.6982 39.2184 71.6982 39.2184L71.6987 39.2171V39.2171ZM71.7003 39.2093C71.6998 39.2104 71.6998 39.2115 71.6993 39.2126C71.6993 39.2137 71.6993 39.2148 71.6987 39.2159C71.6987 39.2159 71.6993 39.2142 71.6993 39.2132C71.6993 39.2129 71.6993 39.2125 71.6998 39.2122C71.6998 39.2112 71.7002 39.2093 71.7002 39.2093L71.7003 39.2093ZM72.5769 38.7658L72.5801 38.7671V38.767C72.579 38.7668 72.5769 38.7658 72.5769 38.7658ZM72.5738 38.7644L72.5769 38.7658C72.5769 38.7658 72.5758 38.7654 72.5758 38.765C72.5758 38.765 72.5754 38.7649 72.5754 38.7647C72.5743 38.7646 72.5738 38.7644 72.5738 38.7644V38.7644ZM72.5706 38.763L72.5733 38.764C72.5727 38.7637 72.5722 38.7633 72.5706 38.763ZM71.4843 32.0628C71.4216 32.0274 71.3438 32.0315 71.2849 32.0735C70.8862 32.3594 69.4575 33.384 69.0588 33.6696C68.9997 33.7119 68.9718 33.7849 68.9868 33.8554C69.0223 34.0164 69.0117 34.1873 68.9543 34.3427C68.9445 34.3693 68.9333 34.3956 68.9209 34.4211C68.8905 34.4835 68.8986 34.5574 68.9414 34.6119C69.3114 35.081 70.9478 37.1567 71.683 38.0898C71.7326 38.1527 71.8177 38.1764 71.8928 38.1485C71.9679 38.1207 72.0164 38.0476 72.0123 37.968C71.9361 36.5542 71.7446 32.9877 71.706 32.2727C71.7023 32.2013 71.6563 32.1387 71.5896 32.1125C71.5536 32.0986 71.5181 32.082 71.4843 32.0628L71.4843 32.0628ZM63.5396 37.5083C63.5396 37.5087 63.5398 37.5093 63.5398 37.5096C63.54 37.5104 63.5401 37.5116 63.5401 37.5116C63.54 37.5107 63.5399 37.5099 63.5398 37.5091C63.5395 37.5081 63.5394 37.5073 63.5393 37.5063C63.5393 37.5063 63.5395 37.5076 63.5396 37.5083V37.5083ZM62.5809 37.5034C62.5809 37.5038 62.5809 37.5039 62.5809 37.5041C62.5808 37.5044 62.5808 37.5047 62.5808 37.5047L62.5809 37.5034V37.5034ZM62.5821 37.4975C62.5819 37.4984 62.5818 37.4992 62.5816 37.5C62.5814 37.5009 62.5813 37.5017 62.5812 37.5025C62.5812 37.5025 62.5814 37.5013 62.5814 37.5006C62.5815 37.5003 62.5816 37.4999 62.5818 37.4995C62.5819 37.4988 62.5821 37.4975 62.5821 37.4975V37.4975ZM62.8667 32.6729C62.8548 32.6694 62.842 32.6747 62.8364 32.6855C62.8281 32.7001 62.8326 32.6926 62.8247 32.7056L62.7961 32.7506C62.7674 32.7908 62.7765 32.7776 62.7725 32.7829C62.7725 32.7829 62.7725 32.7829 62.7724 32.7829C62.7489 32.8129 62.757 32.8022 62.7528 32.8071C62.7528 32.8071 62.7452 32.8157 62.7425 32.8192C62.7415 32.8202 62.7405 32.8213 62.7397 32.8224C62.7262 32.8371 62.7083 32.8552 62.7032 32.8604C62.702 32.8616 62.7005 32.8629 62.6993 32.8642C62.6932 32.87 62.6918 32.8713 62.6918 32.8713C62.6821 32.8802 62.6689 32.8918 62.6688 32.8919C62.6687 32.8919 62.6685 32.8919 62.6684 32.8922C62.6343 32.9217 62.6123 32.9358 62.6122 32.9358C62.6122 32.9359 62.6122 32.9359 62.6122 32.9359C62.5791 32.9586 62.5867 32.9541 62.5558 32.9719C62.5374 32.9825 62.5276 33.0031 62.5311 33.0236C62.5905 33.3795 63.0798 36.3078 63.1783 36.8967C63.1884 36.9562 63.2289 37.0058 63.2855 37.0279C63.2857 37.0272 63.2857 37.0272 63.2857 37.0272C63.3387 37.0474 63.3982 37.0406 63.4451 37.0089C63.9454 36.6704 66.6095 34.8627 67.1975 34.4639C67.2617 34.4202 67.2914 34.3408 67.271 34.266C67.258 34.2218 67.2493 34.1762 67.2449 34.1301C67.2446 34.1276 67.2444 34.1253 67.2441 34.1228C67.2433 34.1066 67.2388 34.0267 67.2429 33.9745C67.243 33.9724 67.2417 33.9703 67.2396 33.9697C67.1043 33.9296 63.1856 32.7675 62.8667 32.6729H62.8667ZM68.8732 34.1342V34.1344V34.1342ZM67.9455 26.0924C67.8722 26.0635 67.7887 26.0852 67.7383 26.1451C67.0757 26.9264 63.0498 31.6759 62.8268 31.9391C62.821 31.9458 62.8203 31.9554 62.8247 31.963C62.8247 31.9631 62.8247 31.9631 62.8247 31.9631C62.8247 31.9632 62.8249 31.9633 62.8249 31.9635C62.8258 31.9653 62.8335 31.9785 62.8335 31.9785C62.8389 31.9883 62.84 31.9903 62.84 31.9903C62.8405 31.9913 62.8463 32.0025 62.8521 32.0143C62.8572 32.0247 62.8594 32.0296 62.8601 32.031C62.8784 32.0714 62.8853 32.0937 62.8853 32.0937C62.8959 32.1253 62.9 32.1408 62.9 32.1408C62.9115 32.1829 62.9441 32.2162 62.9865 32.2287C63.5008 32.3814 66.6376 33.3115 67.2849 33.5036C67.3525 33.5236 67.4258 33.5037 67.4734 33.4523C67.6349 33.2784 67.8688 33.1712 68.1121 33.1672C68.1123 33.1672 68.1125 33.1672 68.1128 33.1672C68.1185 33.1672 68.1242 33.1672 68.1299 33.1672C68.1301 33.1672 68.1304 33.1672 68.1307 33.1672C68.2928 33.169 68.4525 33.2165 68.5898 33.3C68.6527 33.3384 68.7332 33.3354 68.7934 33.2922C69.2525 32.9635 71.0444 31.6788 71.1242 31.6218C71.1252 31.6207 71.1257 31.6186 71.1252 31.6168C71.1221 31.6065 71.1216 31.6029 71.1216 31.6029C71.1211 31.6015 71.1122 31.5689 71.1122 31.5688V31.5687C71.0991 31.5148 71.0991 31.5075 71.0991 31.5064V31.5063C71.096 31.4848 71.0934 31.4634 71.0912 31.4418C71.086 31.3757 71.0887 31.3897 71.0892 31.3709C71.0897 31.329 71.0897 31.3485 71.0903 31.335C71.0903 31.3349 71.0923 31.3113 71.0928 31.3024C71.0934 31.3005 71.0934 31.2984 71.0934 31.2964C71.096 31.2742 71.0975 31.2655 71.1007 31.2454C71.1007 31.2451 71.1064 31.2166 71.1064 31.2157C71.1096 31.2027 71.1085 31.2067 71.11 31.2014L71.1153 31.1807C71.1153 31.1792 71.1159 31.1779 71.1163 31.1766C71.1179 31.1714 71.1221 31.1568 71.1226 31.1519C71.1231 31.1504 71.1242 31.149 71.1242 31.1473C71.132 31.1225 71.1404 31.1017 71.1408 31.099C71.1451 31.0891 71.1467 31.0856 71.1467 31.0856C71.1471 31.0844 71.1555 31.0647 71.1591 31.0571C71.1596 31.055 71.1607 31.0527 71.1618 31.0504C71.1769 31.0181 71.1811 31.0106 71.1899 30.9953C71.1904 30.9945 71.191 30.9935 71.1915 30.9927C71.1952 30.9867 71.2098 30.9616 71.2098 30.9615C71.2108 30.961 71.2108 30.9605 71.2114 30.9601C71.227 30.9344 71.2291 30.9325 71.2343 30.9252L71.2452 30.9107L71.2463 30.9091C71.275 30.8711 71.2776 30.8195 71.2526 30.7786C70.9265 30.2439 68.8446 26.8316 68.4728 26.2221C68.4402 26.1689 68.3802 26.139 68.3178 26.1451C68.1919 26.1565 68.0634 26.1379 67.9456 26.0925L67.9455 26.0924ZM61.7568 32.7771L61.7571 32.7774L61.7567 32.777C61.7567 32.777 61.7567 32.7771 61.7568 32.7771ZM61.7506 32.7714C61.7514 32.7721 61.7521 32.7728 61.7529 32.7734C61.7537 32.7741 61.7544 32.7748 61.7552 32.7756C61.7552 32.7756 61.754 32.7745 61.7533 32.7739C61.7531 32.7736 61.7527 32.7734 61.7524 32.773C61.7518 32.7724 61.7506 32.7713 61.7506 32.7713L61.7506 32.7714ZM61.7492 32.7699L61.7497 32.7703L61.7491 32.7697L61.7492 32.7699L61.7492 32.7699ZM43.1157 32.6271C43.1153 32.6273 43.115 32.6274 43.1147 32.6275C43.1138 32.6279 43.1123 32.6285 43.1123 32.6285C43.1133 32.6281 43.1143 32.6276 43.1152 32.6273C43.1161 32.6269 43.1171 32.6265 43.1181 32.626C43.1181 32.626 43.1166 32.6267 43.1157 32.6271H43.1157ZM43.1203 32.6251L43.1193 32.6256L43.1203 32.6251ZM42.4608 32.5075L42.4611 32.5078L42.4608 32.5075ZM42.4548 32.5018C42.4557 32.5024 42.4563 32.5031 42.457 32.5038C42.4578 32.5047 42.4586 32.5052 42.4593 32.5059C42.4593 32.5059 42.4581 32.5048 42.4575 32.5043C42.4571 32.504 42.4569 32.5037 42.4566 32.5035C42.456 32.5029 42.4548 32.5018 42.4548 32.5018L42.4548 32.5018ZM42.4534 32.5002L42.4538 32.5008L42.4531 32.5002H42.4534H42.4534ZM43.4857 32.1542L43.4856 32.155L43.4857 32.1542ZM43.4864 32.149C43.4863 32.1493 43.4863 32.1497 43.4863 32.1502C43.4861 32.151 43.4859 32.1526 43.4859 32.1526C43.4861 32.1516 43.4862 32.1507 43.4863 32.1496C43.4864 32.1484 43.4867 32.1473 43.4867 32.1463C43.4867 32.1463 43.4865 32.148 43.4864 32.149V32.149ZM42.2812 31.955C42.2811 31.9553 42.2811 31.9555 42.281 31.9558C42.281 31.956 42.2808 31.9564 42.2808 31.9564L42.2812 31.9551V31.955ZM42.2826 31.9475C42.2824 31.9486 42.2822 31.9498 42.2819 31.9507C42.2817 31.9518 42.2816 31.9529 42.2813 31.9538C42.2813 31.9538 42.2816 31.9522 42.2818 31.9513C42.2819 31.951 42.282 31.9506 42.282 31.9503C42.2822 31.9493 42.2826 31.9475 42.2826 31.9475H42.2826ZM60.0618 27.1056C60.0299 27.1041 60.0003 27.1208 59.9861 27.1495C59.8133 27.491 58.7761 29.5438 58.5337 30.0235C58.5042 30.0817 58.5084 30.1509 58.5446 30.2052C58.5673 30.2377 58.5864 30.2722 58.6021 30.3079C58.6023 30.3081 58.6024 30.3085 58.6025 30.3088C58.6025 30.3089 58.6109 30.3284 58.6109 30.3284C58.6253 30.3637 58.6291 30.3784 58.6291 30.3784C58.6362 30.4012 58.6444 30.4335 58.6444 30.4335C58.6475 30.4482 58.6515 30.4684 58.6515 30.4684C58.6555 30.4921 58.6591 30.5236 58.6595 30.5261C58.6628 30.5609 58.6623 30.565 58.6625 30.5761C58.663 30.5994 58.6617 30.631 58.6615 30.6381C58.6613 30.6393 58.6613 30.6402 58.6612 30.6411C58.66 30.6579 58.6697 30.6735 58.6853 30.6799C58.9458 30.7847 61.0537 31.633 61.5208 31.8209C61.5734 31.842 61.6333 31.8311 61.6748 31.793C61.6758 31.7921 61.6765 31.7914 61.6776 31.7906C61.6825 31.7863 61.7009 31.7705 61.7054 31.7665C61.7061 31.7659 61.7068 31.7653 61.7077 31.7647C61.733 31.7439 61.7427 31.7097 61.7318 31.679C61.5621 31.1997 60.2973 27.6258 60.1312 27.1565C60.1208 27.1269 60.0933 27.1066 60.0619 27.1049C60.0619 27.1055 60.0619 27.1055 60.0618 27.1055L60.0618 27.1056ZM60.9503 22.7366C60.8829 22.7093 60.8059 22.7243 60.7536 22.7744C60.6779 22.8472 60.5882 22.9066 60.4906 22.9464C60.4223 22.9743 60.3775 23.041 60.3775 23.1143C60.3772 23.6561 60.3772 25.6993 60.3772 25.9396C60.3772 25.954 60.3847 25.967 60.3968 25.9742C60.3969 25.9742 60.3969 25.9742 60.3969 25.9742C60.3985 25.9746 60.4 25.9762 60.4015 25.9762C60.4107 25.9824 60.4464 26.0057 60.4464 26.0057C60.4703 26.0223 60.4932 26.0409 60.5143 26.0604C60.5144 26.0604 60.5144 26.0604 60.5146 26.061C60.5163 26.0625 60.5421 26.0873 60.5618 26.1106C60.5619 26.1106 60.562 26.111 60.5621 26.111L60.5713 26.1224C60.5816 26.1359 60.5752 26.1256 60.5954 26.1545C60.5954 26.1545 60.6094 26.1746 60.6211 26.1942C60.6211 26.1942 60.6212 26.1942 60.6212 26.1948L60.6284 26.2071C60.6405 26.2293 60.6477 26.2432 60.6563 26.264C60.657 26.2656 60.6576 26.2671 60.6582 26.2685C60.6609 26.2753 60.6707 26.3012 60.6707 26.3012C60.6766 26.3176 60.6832 26.3409 60.6832 26.3409C60.7117 26.4463 60.7116 26.5604 60.6825 26.6621C60.6825 26.6627 60.6823 26.6627 60.6822 26.6627C60.6822 26.6632 60.6695 26.706 60.6579 26.7324C60.6578 26.7329 60.6577 26.7329 60.6577 26.7335C60.6576 26.7335 60.6409 26.7716 60.627 26.796C60.6269 26.796 60.6268 26.7964 60.6268 26.7964C60.625 26.7991 60.6064 26.831 60.5875 26.8569C60.5866 26.8578 60.5856 26.8594 60.5845 26.861C60.582 26.8641 60.5714 26.8775 60.5683 26.8816C60.5677 26.8827 60.5668 26.8837 60.5661 26.8842C60.549 26.905 60.5439 26.9329 60.5529 26.9585C60.7027 27.3818 61.9224 30.8288 62.1558 31.4882C62.1783 31.5514 62.2339 31.5973 62.3008 31.608C62.32 31.6098 62.3387 31.6137 62.3574 31.618C62.4251 31.6348 62.4966 31.6117 62.5416 31.5587C63.1342 30.8615 66.8814 26.4406 67.4438 25.7768C67.4848 25.7284 67.4976 25.6627 67.4776 25.6028C67.472 25.5868 67.4671 25.5713 67.4628 25.5548C67.4622 25.5521 67.4615 25.5496 67.4609 25.547C67.4568 25.5284 67.4394 25.4453 67.4371 25.3832C67.4371 25.3828 67.4371 25.3828 67.4371 25.3828C67.4357 25.3467 67.4129 25.3151 67.3788 25.3012C66.7827 25.0636 61.7872 23.0704 60.9503 22.7366H60.9503ZM72.5576 31.4687C72.5576 31.4691 72.5576 31.4696 72.5576 31.4699C72.5576 31.471 72.557 31.4729 72.557 31.4729C72.557 31.4717 72.5576 31.4705 72.5576 31.4693C72.5576 31.4683 72.5581 31.4671 72.5581 31.4659C72.5581 31.4659 72.5576 31.4678 72.5576 31.4687ZM72.5586 31.4626L72.5581 31.4647L72.5586 31.4626ZM43.1194 22.7357C43.1187 22.7361 43.1184 22.7366 43.1184 22.7377C43.1184 22.8468 43.1139 30.5873 43.1135 31.3186C43.1135 31.3507 43.133 31.3797 43.1631 31.392L43.1648 31.3927C43.1648 31.3927 43.165 31.3927 43.1651 31.3928C43.1905 31.4037 43.2199 31.4001 43.2417 31.3831C43.6091 31.0989 46.6443 28.7512 47.2337 28.2954C47.29 28.2518 47.3157 28.1799 47.2997 28.1109C47.2919 28.0807 47.2866 28.0498 47.2832 28.0183C47.2728 27.9221 47.2795 27.824 47.3026 27.7304C47.3031 27.7283 47.3036 27.7263 47.3043 27.7243C47.3077 27.7117 47.3245 27.6534 47.3425 27.6106C47.345 27.6043 47.3661 27.5569 47.387 27.5206C47.3923 27.5109 47.3911 27.4991 47.3837 27.4904C47.1299 27.2076 43.1292 22.7471 43.1196 22.7357H43.1194V22.7357ZM52.7274 31.2642L52.7304 31.263L52.7274 31.2642ZM52.733 31.2618L52.7318 31.2624L52.733 31.2618ZM58.1651 31.1364L58.1642 31.1367L58.1651 31.1364ZM58.1701 31.1342C58.1697 31.1343 58.1694 31.1345 58.169 31.1347C58.1682 31.135 58.1666 31.1356 58.1666 31.1356C58.1676 31.1353 58.1685 31.1349 58.1695 31.1345C58.1705 31.1341 58.1714 31.1337 58.1723 31.1332C58.1723 31.1332 58.1709 31.1338 58.1701 31.1342H58.1701ZM58.1745 31.1324L58.1735 31.1327L58.1745 31.1324ZM71.2932 31.0743C71.2932 31.0744 71.2932 31.0747 71.2932 31.0748C71.2932 31.0751 71.2926 31.0759 71.2926 31.0759L71.2932 31.0743V31.0743ZM71.2974 31.0674C71.2963 31.0683 71.2958 31.0693 71.2958 31.0703C71.2953 31.0712 71.2948 31.0724 71.2942 31.0733C71.2942 31.0733 71.2948 31.0717 71.2953 31.0707C71.2958 31.0705 71.2958 31.0701 71.2958 31.0698C71.2958 31.0689 71.2973 31.0674 71.2973 31.0674L71.2974 31.0674ZM71.2984 31.065C71.2984 31.0652 71.2984 31.0654 71.2984 31.0657V31.0649C71.2984 31.0649 71.2984 31.0649 71.2984 31.065V31.065ZM57.5366 31.0185L57.5369 31.0188L57.5365 31.0184C57.5365 31.0184 57.5365 31.0185 57.5366 31.0185V31.0185ZM57.5308 31.013C57.5314 31.0138 57.5321 31.0143 57.5329 31.0151C57.5336 31.0158 57.5342 31.0165 57.5349 31.0171C57.5349 31.0171 57.5338 31.016 57.5332 31.0154C57.5329 31.0151 57.5326 31.0151 57.5324 31.0147C57.5318 31.0141 57.5308 31.013 57.5308 31.013L57.5308 31.013ZM57.5292 31.0116L57.5297 31.0121L57.5291 31.0115C57.5291 31.0115 57.5291 31.0116 57.5292 31.0116L57.5292 31.0116ZM51.8747 30.9431C51.8748 30.9434 51.8749 30.9436 51.875 30.9437C51.8753 30.9443 51.8759 30.9455 51.8759 30.9455L51.8745 30.9425C51.8745 30.9425 51.8746 30.9429 51.8747 30.9431V30.9431ZM51.8737 30.9412C51.8738 30.9412 51.874 30.9414 51.874 30.9415L51.8731 30.9396C51.8731 30.9396 51.8736 30.9407 51.8737 30.9412V30.9412ZM72.3524 30.8963L72.3535 30.8971C72.3535 30.8971 72.353 30.8969 72.353 30.8967L72.3524 30.8964V30.8963ZM72.3515 30.8954C72.3508 30.8946 72.3499 30.8938 72.3494 30.8931L72.3515 30.8954ZM57.9665 29.8822C58.0382 29.8844 58.1046 29.8452 58.1367 29.7816C58.3236 29.412 58.923 28.2257 59.276 27.5271C59.3121 27.4557 59.297 27.3689 59.2386 27.3138C59.1803 27.2587 59.0923 27.2475 59.0218 27.2862C57.8792 27.9155 55.1574 29.4147 53.9293 30.0912C53.856 30.1315 53.8194 30.2159 53.8406 30.2963C53.8617 30.3768 53.9349 30.4329 54.0189 30.4329C55.1239 30.4329 57.14 30.4329 57.238 30.4329C57.2403 30.4329 57.2421 30.4313 57.2426 30.4292L57.2427 30.4285C57.2489 30.4039 57.2505 30.3991 57.2505 30.3991C57.2551 30.384 57.2618 30.3641 57.2622 30.3619C57.2634 30.3588 57.2645 30.3555 57.2657 30.3523C57.2708 30.3389 57.2717 30.3367 57.2739 30.3312C57.2742 30.3302 57.2748 30.3291 57.2752 30.3282C57.2776 30.3228 57.2871 30.3012 57.2907 30.2927C57.2921 30.2897 57.2936 30.2867 57.295 30.2837C57.3278 30.2187 57.3504 30.1869 57.3811 30.1491C57.3816 30.1486 57.382 30.148 57.3824 30.1474C57.3843 30.1452 57.3907 30.1374 57.3939 30.1336C57.3953 30.132 57.3966 30.1305 57.3981 30.1289C57.4076 30.118 57.4199 30.1052 57.4235 30.1011C57.4248 30.0998 57.4262 30.0984 57.4275 30.097C57.4518 30.0728 57.483 30.0465 57.4923 30.0387C57.4943 30.0371 57.4964 30.0356 57.4983 30.034C57.6263 29.9369 57.7847 29.8812 57.9473 29.8818H57.9474C57.9537 29.8818 57.9601 29.882 57.9664 29.8822L57.9665 29.8822ZM59.6242 22.778C59.5685 22.7263 59.4862 22.714 59.4175 22.7471C58.3082 23.2837 50.0985 27.2582 49.0543 27.7634C48.991 27.794 48.9509 27.8577 48.9511 27.9274C48.9522 27.9561 48.9504 27.9847 48.9472 28.0133C48.9391 28.0811 48.9704 28.1476 49.0279 28.1853C49.4804 28.4834 51.3486 29.7085 51.8241 30.0204C51.8863 30.0612 51.9673 30.0608 52.0291 30.0195C52.1552 29.9339 52.3067 29.8834 52.4655 29.8818C52.4705 29.8818 52.4706 29.8818 52.4758 29.8818C52.6282 29.8833 52.7786 29.9326 52.9057 30.0162C52.963 30.0539 53.0365 30.0566 53.0965 30.0235C53.8983 29.5825 59.0473 26.7463 59.4528 26.5232C59.4683 26.5144 59.478 26.4979 59.4782 26.4808C59.4782 26.4799 59.4784 26.4793 59.4784 26.4783C59.4808 26.4277 59.4826 26.4225 59.485 26.4085V26.408C59.485 26.408 59.4891 26.3858 59.4905 26.378C59.491 26.3755 59.4915 26.3729 59.4919 26.3708C59.4964 26.3512 59.5033 26.3269 59.5033 26.3269C59.5038 26.3254 59.5043 26.3233 59.5049 26.3223C59.51 26.3057 59.511 26.3032 59.5139 26.2954C59.514 26.2949 59.514 26.2949 59.514 26.2949C59.5153 26.2913 59.5263 26.2618 59.5399 26.2345H59.5401C59.5401 26.234 59.5563 26.202 59.5723 26.1767C59.5733 26.1756 59.5741 26.174 59.575 26.1726C59.5769 26.1699 59.5885 26.1529 59.5906 26.1498C59.5919 26.1482 59.5933 26.1462 59.5948 26.1436C59.6213 26.1075 59.6358 26.0929 59.6553 26.0734C59.6938 26.0346 59.7376 26.0015 59.7851 25.9742C59.7873 25.9732 59.7896 25.9717 59.7919 25.9706C59.7953 25.969 59.8016 25.9659 59.8098 25.9618C59.8727 25.9308 59.9127 25.8678 59.9127 25.7986C59.9129 25.3177 59.9129 23.5482 59.9129 23.0724C59.9129 23.0048 59.8748 22.9423 59.8139 22.9107C59.7449 22.8762 59.6809 22.8312 59.6242 22.7781L59.6242 22.778ZM48.2429 28.6185L48.2422 28.6186L48.2429 28.6185ZM48.2502 28.6171C48.2498 28.6173 48.2494 28.6173 48.2491 28.6174C48.248 28.6175 48.2457 28.618 48.2457 28.618C48.2471 28.6178 48.2484 28.6175 48.2497 28.6173C48.2509 28.617 48.2521 28.6168 48.2535 28.6165C48.2535 28.6165 48.2513 28.6169 48.2502 28.6171H48.2502ZM48.8181 28.0195V28.0197V28.0195ZM47.4866 27.6063C47.4864 27.6065 47.4864 27.6066 47.4863 27.6069C47.4861 27.6072 47.4859 27.6079 47.4859 27.6079L47.4866 27.6063H47.4866ZM48.7321 27.3695C48.7463 27.3853 48.7695 27.3899 48.7887 27.3806C49.3169 27.125 56.0464 23.8673 58.28 22.7863C58.3571 22.7491 58.3979 22.6638 58.3785 22.5812C58.3593 22.4985 58.2849 22.4402 58.1991 22.4402C56.5367 22.4402 52.8039 22.4402 52.2549 22.4402C52.2157 22.4402 52.18 22.4624 52.1634 22.4976C52.1633 22.4976 52.1633 22.4976 52.1631 22.498C52.1631 22.498 52.1577 22.5094 52.155 22.5151C52.1542 22.5167 52.1533 22.5182 52.1523 22.5202C52.1491 22.5265 52.1459 22.5321 52.1459 22.5321C52.1457 22.5327 52.1456 22.5337 52.1453 22.5343C52.1345 22.5538 52.1184 22.5796 52.1139 22.5863C52.1131 22.5879 52.1121 22.5895 52.1111 22.591C52.1065 22.5978 52.1054 22.5993 52.1054 22.5993C52.0882 22.6241 52.0939 22.6163 52.09 22.621C52.09 22.621 52.0813 22.6329 52.0783 22.6365C52.0774 22.6376 52.0766 22.6391 52.0756 22.6401C52.0704 22.6468 52.0692 22.6484 52.0692 22.6484C52.0617 22.6571 52.052 22.6685 52.0482 22.6726C52.0474 22.6737 52.0465 22.6748 52.0454 22.6757C52.0373 22.6845 52.027 22.6954 52.0241 22.699C52.0234 22.6995 52.0225 22.7006 52.0218 22.701C52.0154 22.7073 52.0138 22.7088 52.0138 22.7088C52.0064 22.716 51.9989 22.7228 51.9914 22.73C51.9724 22.7471 51.9525 22.7631 51.9316 22.7781C51.9309 22.7785 51.9302 22.7796 51.9293 22.7801C51.9222 22.7848 51.8903 22.8065 51.8646 22.8215C51.7387 22.8927 51.5921 22.9237 51.448 22.9123C51.378 22.9071 51.3113 22.9423 51.276 23.0023C50.8968 23.6443 48.9177 27.0009 48.7273 27.3236C48.7186 27.3383 48.7205 27.3573 48.7321 27.3695V27.3695ZM50.8268 22.4573C50.8226 22.4465 50.8126 22.4402 50.8013 22.4402C50.4535 22.4402 45.3771 22.4402 43.8846 22.4402C43.8121 22.4402 43.7464 22.4826 43.7167 22.5476C43.687 22.6132 43.6988 22.6897 43.7469 22.7433C44.5917 23.6855 47.1433 26.531 47.6487 27.0939C47.698 27.149 47.7759 27.1694 47.8462 27.1454C47.9291 27.1172 48.0165 27.1015 48.1045 27.0999C48.1046 27.0999 48.1047 27.0999 48.1048 27.0999C48.1103 27.0999 48.1156 27.0999 48.1211 27.0999C48.1213 27.0999 48.1217 27.0999 48.1219 27.0999C48.1464 27.1005 48.1709 27.1015 48.1952 27.1041C48.2666 27.1106 48.3354 27.0759 48.3716 27.0147C48.7534 26.3682 50.7269 23.0208 50.9267 22.6819C50.9367 22.6654 50.9352 22.6443 50.9231 22.6287C50.9224 22.6282 50.922 22.6277 50.9215 22.6266C50.9096 22.6112 50.8954 22.5894 50.89 22.5812C50.8885 22.5796 50.8872 22.5771 50.8858 22.575C50.8816 22.5683 50.8771 22.5605 50.8754 22.5574C50.8748 22.557 50.8743 22.5559 50.8738 22.5554C50.8668 22.543 50.8702 22.5491 50.8639 22.5373C50.8634 22.5368 50.863 22.5352 50.8626 22.5348C50.8578 22.526 50.8378 22.4862 50.8267 22.4573H50.8268ZM60.568 26.4147C60.568 26.4152 60.5681 26.4152 60.5682 26.4158C60.5684 26.4163 60.5686 26.4179 60.5686 26.4179C60.5684 26.4168 60.5682 26.4163 60.5681 26.4152C60.568 26.4143 60.5678 26.4132 60.5677 26.4127C60.5677 26.4127 60.5679 26.4137 60.568 26.4147V26.4147ZM59.6155 26.4096C59.6155 26.4101 59.6155 26.4101 59.6153 26.4101C59.6153 26.4111 59.6153 26.4111 59.6153 26.4111L59.6155 26.4096V26.4096ZM59.6167 26.4039C59.6165 26.4049 59.6163 26.406 59.6162 26.4065C59.616 26.4069 59.6158 26.4085 59.6157 26.4091C59.6157 26.4091 59.616 26.408 59.6161 26.4069C59.6161 26.4065 59.6162 26.4065 59.6162 26.4065C59.6164 26.4054 59.6167 26.404 59.6167 26.404V26.4039ZM68.9104 25.4412C68.9104 25.4416 68.9099 25.4416 68.9099 25.4421C68.9099 25.4432 68.9099 25.4453 68.9099 25.4453C68.9099 25.4442 68.9099 25.4426 68.9099 25.4416C68.9104 25.4406 68.9104 25.439 68.9104 25.438C68.9104 25.438 68.9104 25.4401 68.9104 25.4412V25.4412ZM68.9109 25.4349V25.437V25.4349ZM68.7041 24.8662L68.7052 24.8668H68.7047L68.7041 24.8662V24.8662ZM68.7005 24.8631L68.703 24.8653C68.703 24.8653 68.703 24.8653 68.7025 24.8647C68.7025 24.8647 68.7025 24.8647 68.7021 24.8642C68.7016 24.8637 68.7005 24.8631 68.7005 24.8631V24.8631ZM51.7244 22.7471H51.7236H51.7244ZM51.7296 22.7449C51.7292 22.7455 51.7288 22.7455 51.7285 22.7455C51.7276 22.746 51.7262 22.7465 51.7262 22.7465C51.7272 22.746 51.7281 22.746 51.7291 22.7455C51.73 22.7449 51.7309 22.7445 51.7319 22.7445C51.7319 22.7445 51.7303 22.7449 51.7296 22.7449H51.7296ZM51.7341 22.7434L51.7331 22.744L51.7341 22.7434ZM42.5595 22.5296C42.5596 22.5296 42.5596 22.5296 42.5596 22.5296H42.5592H42.5595ZM42.5549 22.526C42.5555 22.5265 42.556 22.527 42.5565 22.5276C42.5571 22.528 42.5575 22.5285 42.5582 22.529C42.5582 22.529 42.5573 22.528 42.557 22.5276C42.5566 22.5276 42.5563 22.527 42.5561 22.527C42.5556 22.5265 42.5549 22.526 42.5549 22.526H42.5549ZM42.5538 22.5244C42.5539 22.5249 42.554 22.5249 42.5541 22.5249L42.5535 22.5244C42.5535 22.5244 42.5535 22.5244 42.5538 22.5244H42.5538ZM42.4247 22.1117C42.4247 22.1117 42.4247 22.1117 42.4247 22.1123C42.4246 22.1123 42.4246 22.1127 42.4246 22.1127L42.4247 22.1117ZM42.4258 22.106C42.4257 22.1065 42.4255 22.1076 42.4253 22.108C42.4251 22.1091 42.4251 22.1096 42.425 22.1107C42.425 22.1107 42.4251 22.1096 42.4253 22.1091C42.4253 22.1087 42.4253 22.108 42.4255 22.1076C42.4255 22.1071 42.4258 22.106 42.4258 22.106V22.106ZM59.5761 21.8932C59.576 21.8937 59.576 21.8937 59.5758 21.8937C59.5757 21.8943 59.5752 21.8952 59.5752 21.8952L59.5761 21.8932ZM59.5773 21.8912C59.5773 21.8912 59.577 21.8916 59.5769 21.8916C59.5769 21.8921 59.5766 21.8921 59.5766 21.8921L59.5783 21.8891C59.5783 21.8891 59.5777 21.8905 59.5773 21.8911L59.5773 21.8912ZM59.5797 21.886C59.5797 21.8865 59.5795 21.8865 59.5795 21.887C59.579 21.8876 59.5783 21.8891 59.5783 21.8891L59.5798 21.886C59.5798 21.886 59.5798 21.886 59.5797 21.886H59.5797ZM59.581 21.8834C59.5809 21.8844 59.5808 21.8844 59.5807 21.8844L59.5811 21.8834C59.5811 21.8834 59.5811 21.8834 59.581 21.8834V21.8834ZM60.6565 21.7021L60.6573 21.7026C60.6573 21.7026 60.6571 21.7026 60.6569 21.7026L60.6565 21.7021H60.6565ZM60.6555 21.701C60.6546 21.7006 60.6539 21.6995 60.6529 21.699L60.6555 21.701ZM51.7519 21.6613C51.7521 21.6613 51.7525 21.6618 51.7528 21.6618C51.7537 21.6618 51.7552 21.6623 51.7552 21.6623C51.7542 21.6618 51.7532 21.6618 51.7523 21.6613C51.7514 21.6613 51.7504 21.6607 51.7494 21.6597C51.7494 21.6597 51.751 21.6607 51.7518 21.6613L51.7519 21.6613ZM51.7463 21.6587L51.7488 21.6597C51.7481 21.6597 51.7471 21.6591 51.7463 21.6587ZM51.7431 21.6571L51.7452 21.6582C51.7446 21.6582 51.7439 21.6577 51.7431 21.6571ZM51.7411 21.6566H51.7412C51.7411 21.6566 51.7411 21.6566 51.7411 21.6566Z" fill="white"/>
<defs>
<linearGradient id="paint0_linear_19_32" x1="93" y1="5.84668" x2="93" y2="75.8467" gradientUnits="userSpaceOnUse">
<stop stop-color="#1B2249"/>
<stop offset="1" stop-color="#0E132D"/>
</linearGradient>
</defs>
</svg>
