<svg width="40" height="41" viewBox="0 0 40 41" fill="none" xmlns="http://www.w3.org/2000/svg">
<g clip-path="url(#clip0_82_1023)">
<path d="M20.0001 0.53717C13.5124 0.53717 8.23438 5.81519 8.23438 12.3029V28.7714C8.23438 35.2592 13.5124 40.5372 20.0001 40.5372C26.4879 40.5372 31.7659 35.2592 31.7659 28.7714V12.3029C31.7659 5.81519 26.4879 0.53717 20.0001 0.53717ZM29.366 28.7714C29.366 33.9356 25.1643 38.1373 20.0001 38.1373C14.8359 38.1373 10.6343 33.9356 10.6343 28.7714V12.3029C10.6343 7.13873 14.8359 2.93707 20.0001 2.93707C25.1643 2.93707 29.366 7.13873 29.366 12.3029V28.7714Z" fill="#4040AF" fill-opacity="0.7"/>
<path d="M20.0005 8.49432C19.3376 8.49432 18.8005 9.03143 18.8005 9.69427V15.2173C18.8005 15.8799 19.3376 16.4173 20.0005 16.4173C20.663 16.4173 21.2004 15.8799 21.2004 15.2173V9.69427C21.2004 9.03143 20.6633 8.49432 20.0005 8.49432Z" fill="#4040AF" fill-opacity="0.7"/>
</g>
<defs>
<clipPath id="clip0_82_1023">
<rect width="40" height="40" fill="white" transform="translate(0 0.53717)"/>
</clipPath>
</defs>
</svg>
